<?xml version="1.0" standalone="no"?>
<!DOCTYPE svg PUBLIC "-//W3C//DTD SVG 1.1//EN" "http://www.w3.org/Graphics/SVG/1.1/DTD/svg11.dtd" >
<svg>
<metadata>
Created by FontForge 20090622 at Fri Jan 25 14:35:57 2019
 By deploy user
Digitized data copyright 2012&#226;&#128;&#147;2018 for FiraGO, bBox Type GmbH and HERE Europe B.V. All rights reserved, with Reserved Font Name "Fira" / Digitized data copyright 2012&#226;&#128;&#147;2018 for Fira Sans The Mozilla Foundation, Telefonica S.A., Carrois Corporate GbR and bBox Type GmbH, with Reserved Font Name "Fira"
</metadata>
<defs>
<font id="FiraGO-SemiBold" horiz-adv-x="0" >
  <font-face 
    font-family="FiraGO SemiBold"
    font-weight="600"
    font-stretch="normal"
    units-per-em="1000"
    panose-1="2 11 6 3 5 0 0 2 0 4"
    ascent="800"
    descent="-200"
    x-height="530"
    cap-height="692"
    bbox="-777 -675 2533 1331"
    underline-thickness="50"
    underline-position="-50"
    unicode-range="U+000D-U+FEFF"
  />
<missing-glyph horiz-adv-x="666" 
d="M543 -350h-420v1400h420v-1400zM178 998v-1296h311v1296h-311zM409.5 419q25.5 -32 25.5 -83q0 -53 -22.5 -82t-72.5 -36v-45q0 -11 -7.5 -17.5t-17.5 -6.5t-17.5 6.5t-7.5 17.5v84q53 3 72 19.5t19 57.5q0 33 -13 51t-48 18q-29 0 -52 -11q-8 -3 -13 -3q-11 0 -17.5 6.5
t-6.5 16.5q0 19 29.5 29t63.5 10q60 0 85.5 -32zM340 110q10 -10 10 -25q0 -16 -10 -26.5t-25 -10.5t-25 10.5t-10 26.5q0 15 10 25t25 10t25 -10z" />
    <glyph glyph-name="f_f" unicode="ff" horiz-adv-x="642" 
d="M536.5 634q-15.5 -17 -15.5 -55v-49h126l-16 -100h-110v-430h-142v430h-151v-430h-142v430h-82v100h82v43q0 77 51 124.5t148 47.5q75 0 150 -32q50 44 137 44q74 0 141 -32l-40 -94q-41 20 -85 20q-36 0 -51.5 -17zM379 583q0 22 5 47q-42 13 -85 13q-39 0 -55 -15
t-16 -51v-47h151v53z" />
    <glyph glyph-name="f_f_i" unicode="ffi" horiz-adv-x="883" 
d="M815 530v-530h-142v430h-152v-430h-142v430h-151v-430h-142v430h-82v100h82v43q0 77 51 124.5t148 47.5q40 0 75.5 -8t75.5 -24q55 44 154 44q89 0 169 -39l-42 -93q-53 25 -113 25q-47 0 -65 -16.5t-18 -56.5v-47h294zM379 581q0 25 6 49q-43 13 -86 13q-39 0 -55 -15
t-16 -51v-47h151v51z" />
    <glyph glyph-name="f_f_j" unicode="ffj" horiz-adv-x="883" 
d="M815 53q0 -80 -24.5 -131.5t-67.5 -83t-110 -57.5l-47 103q39 18 61 35.5t34 47t12 77.5v386h-152v-430h-142v430h-151v-430h-142v430h-82v100h82v43q0 77 51 124.5t148 47.5q40 0 75.5 -8t75.5 -24q55 44 154 44q89 0 169 -39l-42 -93q-53 25 -111 25q-49 0 -67 -16.5
t-18 -56.5v-47h294v-477zM379 581q0 25 6 49q-43 13 -86 13q-39 0 -55 -15t-16 -51v-47h151v51z" />
    <glyph glyph-name="f_f_l" unicode="ffl" horiz-adv-x="919" 
d="M910 2q-43 -18 -96 -18q-63 0 -97.5 36.5t-34.5 105.5v514q-45 12 -87 12t-58 -16.5t-16 -54.5v-51h107l-16 -100h-91v-430h-142v430h-151v-430h-142v430h-82v100h82v43q0 77 51 124.5t148 47.5q75 0 150 -32q52 44 142 44q56 0 116 -19l131 14v-613q0 -42 29 -42
q16 0 28 6zM379 583q0 22 5 47q-42 13 -85 13q-39 0 -55 -15t-16 -51v-47h151v53z" />
    <glyph glyph-name="f_j" unicode="fj" horiz-adv-x="591" 
d="M523 53q0 -80 -24.5 -131.5t-67.5 -83t-110 -57.5l-47 103q39 18 61 35.5t34 47t12 77.5v386h-153v-430h-142v430h-82v100h82v51q0 79 52.5 127.5t159.5 48.5q89 0 169 -39l-42 -93q-53 25 -111 25q-49 0 -67.5 -17t-18.5 -56v-47h295v-477z" />
    <glyph glyph-name="fi" unicode="fi" horiz-adv-x="591" 
d="M467 718l-42 -93q-53 25 -113 25q-48 0 -66 -17t-18 -56v-47h295v-530h-142v430h-153v-430h-142v430h-82v100h82v51q0 79 52.5 127.5t159.5 48.5q89 0 169 -39z" />
    <glyph glyph-name="fl" unicode="fl" horiz-adv-x="627" 
d="M618 2q-43 -18 -96 -18q-63 0 -97.5 36.5t-34.5 105.5v514q-45 12 -87 12t-58.5 -16.5t-16.5 -54.5v-51h108l-16 -100h-92v-430h-142v430h-82v100h82v53q0 77 51 125.5t148 48.5q56 0 116 -19l131 14v-613q0 -42 29 -42q16 0 28 6z" />
    <glyph glyph-name="uni0E240E45" unicode="&#xe24;&#xe45;" horiz-adv-x="958" 
d="M828 544.5q52 -45.5 52 -139.5v-603l-142 15v580q0 48 -23.5 67.5t-75.5 19.5q-46 0 -103 -15q22 -45 22 -109v-568l-142 15v553q0 62 -26 90t-87 28q-48 0 -82 -14t-60 -38q68 -13 139 -41v-83q-53 -4 -76.5 -26.5t-23.5 -69.5v-70q0 -24 8.5 -34.5t27.5 -10.5t33 7
l24 -94q-44 -20 -89 -20q-66 0 -100.5 36.5t-34.5 101.5v80q0 62 32.5 96.5t89.5 44.5q-74 23 -144 29v80q106 128 271 128q97 0 157 -40q47 25 95.5 37.5t93.5 12.5q112 0 164 -45.5z" />
    <glyph glyph-name="uni0E260E45" unicode="&#xe26;&#xe45;" horiz-adv-x="958" 
d="M828 544.5q52 -45.5 52 -139.5v-603l-142 15v580q0 48 -23 67.5t-75 19.5q-46 0 -103 -15q22 -44 22 -109v-568l-142 15v553q0 62 -25 90t-85 28q-85 0 -139 -52q70 -14 140 -41v-83q-36 -3 -55.5 -27.5t-19.5 -77.5v-73q0 -61 -32.5 -97t-112.5 -36q-16 0 -40 3l-2 97h9
q27 0 34 12t7 44v71q0 52 28.5 83t76.5 42q-68 21 -146 29v80q41 50 103.5 89t163.5 39q96 0 154 -40q94 50 188 50q112 0 164 -45.5z" />
    <glyph glyph-name="uniFEFB" unicode="&#xfedf;&#xfe8e;" horiz-adv-x="644" arabic-form="isolated" 
d="M565.5 286.5q25.5 -50.5 25.5 -97.5q0 -96 -59.5 -142.5t-192.5 -46.5h-253l11 125q110 84 169.5 136t95.5 103l-298 269l148 23l200 -192q22 70 22 185v113l112 14v-137q0 -143 -53 -254q47 -48 72.5 -98.5zM425 139q36 4 53 16.5t17 38.5q0 41 -59 100
q-58 -75 -165 -159h47q71 0 107 4z" />
    <glyph glyph-name="uniFEFC" unicode="&#xfee0;&#xfe8e;" horiz-adv-x="679" arabic-form="final" 
d="M699 61l-20 -61q-53 0 -94.5 25.5t-60.5 79.5q-41 -59 -111.5 -82t-196.5 -23h-133l-15 135h155q93 0 152 14l-285 438l142 20l156 -270q47 -83 68 -149q21 22 28 53t7 80v441l111 15v-529q0 -43 7 -67t26 -35t55 -11z" />
    <glyph glyph-name="uniFEF7" unicode="&#xfedf;&#xfe84;" horiz-adv-x="644" arabic-form="isolated" 
d="M565.5 286.5q25.5 -50.5 25.5 -97.5q0 -96 -59.5 -142.5t-192.5 -46.5h-253l11 125q110 84 169.5 136t95.5 103l-298 269l148 23l200 -192q22 70 22 185v113l112 14v-137q0 -143 -53 -254q47 -48 72.5 -98.5zM425 139q36 4 53 16.5t17 38.5q0 41 -59 100
q-58 -75 -165 -159h47q71 0 107 4zM261 728l-224 -36l-8 66l62 10q-36 33 -36 66q0 39 27.5 64.5t79.5 25.5q41 0 85 -26l-40 -62q-24 15 -45 15q-16 0 -24 -8.5t-8 -18.5q0 -19 27 -45l93 16z" />
    <glyph glyph-name="uniFEF8" unicode="&#xfee0;&#xfe84;" horiz-adv-x="679" arabic-form="final" 
d="M699 61l-20 -61q-53 0 -94.5 25.5t-60.5 79.5q-41 -59 -111.5 -82t-196.5 -23h-133l-15 135h155q93 0 152 14l-285 438l142 20l156 -270q47 -83 68 -149q21 22 28 53t7 80v441l111 15v-529q0 -43 7 -67t26 -35t55 -11zM260 687l-224 -36l-8 66l62 10q-36 33 -36 66
q0 39 27.5 64.5t79.5 25.5q41 0 85 -26l-40 -62q-24 15 -45 15q-16 0 -24 -8.5t-8 -18.5q0 -19 27 -45l93 16z" />
    <glyph glyph-name="uniFEF9" unicode="&#xfedf;&#xfe88;" horiz-adv-x="644" arabic-form="isolated" 
d="M565.5 286.5q25.5 -50.5 25.5 -97.5q0 -96 -59.5 -142.5t-192.5 -46.5h-253l11 125q110 84 169.5 136t95.5 103l-298 269l148 23l200 -192q22 70 22 185v113l112 14v-137q0 -143 -53 -254q47 -48 72.5 -98.5zM425 139q36 4 53 16.5t17 38.5q0 41 -59 100
q-58 -75 -165 -159h47q71 0 107 4zM306 -232l-224 -36l-8 66l62 10q-36 33 -36 66q0 39 27.5 64.5t79.5 25.5q41 0 85 -26l-40 -62q-24 15 -45 15q-16 0 -24 -8.5t-8 -18.5q0 -19 27 -45l93 16z" />
    <glyph glyph-name="uniFEFA" unicode="&#xfee0;&#xfe88;" horiz-adv-x="679" arabic-form="final" 
d="M699 61l-20 -61q-53 0 -94.5 25.5t-60.5 79.5q-41 -59 -111.5 -82t-196.5 -23h-133l-15 135h155q93 0 152 14l-285 438l142 20l156 -270q47 -83 68 -149q21 22 28 53t7 80v441l111 15v-529q0 -43 7 -67t26 -35t55 -11zM307 -232l-224 -36l-8 66l62 10q-36 33 -36 66
q0 39 27.5 64.5t79.5 25.5q41 0 85 -26l-40 -62q-24 15 -45 15q-16 0 -24 -8.5t-8 -18.5q0 -19 27 -45l93 16z" />
    <glyph glyph-name="uniFEF5" unicode="&#xfedf;&#xfe82;" horiz-adv-x="644" arabic-form="isolated" 
d="M565.5 286.5q25.5 -50.5 25.5 -97.5q0 -96 -59.5 -142.5t-192.5 -46.5h-253l11 125q110 84 169.5 136t95.5 103l-298 269l148 23l200 -192q22 70 22 185v113l112 14v-137q0 -143 -53 -254q47 -48 72.5 -98.5zM425 139q36 4 53 16.5t17 38.5q0 41 -59 100
q-58 -75 -165 -159h47q71 0 107 4zM19 720q13 44 40.5 71t59.5 27q16 0 26.5 -4t24.5 -11q22 -12 37 -12q11 0 18.5 3t22.5 12l29 -51q-21 -21 -40 -30.5t-39 -9.5q-11 0 -20.5 3.5t-22.5 10.5q-3 1 -13 6t-20 5q-27 0 -43 -38z" />
    <glyph glyph-name="uniFEF6" unicode="&#xfee0;&#xfe82;" horiz-adv-x="679" arabic-form="final" 
d="M699 61l-20 -61q-53 0 -94.5 25.5t-60.5 79.5q-41 -59 -111.5 -82t-196.5 -23h-133l-15 135h155q93 0 152 14l-285 438l142 20l156 -270q47 -83 68 -149q21 22 28 53t7 80v441l111 15v-529q0 -43 7 -67t26 -35t55 -11zM18 679q13 44 40.5 71t59.5 27q16 0 26.5 -4
t24.5 -11q22 -12 37 -12q11 0 18.5 3t22.5 12l29 -51q-21 -21 -40 -30.5t-39 -9.5q-11 0 -20.5 3.5t-22.5 10.5q-3 1 -13 6t-20 5q-27 0 -43 -38z" />
    <glyph glyph-name="uni06440671" unicode="&#xfedf;&#xfb51;" horiz-adv-x="644" 
d="M565.5 286.5q25.5 -50.5 25.5 -97.5q0 -96 -59.5 -142.5t-192.5 -46.5h-253l11 125q110 84 169.5 136t95.5 103l-298 269l148 23l200 -192q22 70 22 185v113l112 14v-137q0 -143 -53 -254q47 -48 72.5 -98.5zM425 139q36 4 53 16.5t17 38.5q0 41 -59 100
q-58 -75 -165 -159h47q71 0 107 4zM263 888.5q24 -20.5 24 -58.5q0 -52 -34 -73.5t-88 -21.5q-30 0 -69 11l-18 -33l-57 20l30 86l14 -4.5t18 -4.5q24 53 57 76t67 23q32 0 56 -20.5zM225 824q0 21 -25 21q-33 0 -64 -46q21 -3 40 -3q49 0 49 28z" />
    <glyph glyph-name="uni06440671.fina" unicode="&#xfee0;&#xfb51;" horiz-adv-x="679" 
d="M699 61l-20 -61q-53 0 -94.5 25.5t-60.5 79.5q-41 -59 -111.5 -82t-196.5 -23h-133l-15 135h155q93 0 152 14l-285 438l142 20l156 -270q47 -83 68 -149q21 22 28 53t7 80v441l111 15v-529q0 -43 7 -67t26 -35t55 -11zM262 847.5q24 -20.5 24 -58.5q0 -52 -34 -73.5
t-88 -21.5q-30 0 -69 11l-18 -33l-57 20l30 86l14 -4.5t18 -4.5q24 53 57 76t67 23q32 0 56 -20.5zM224 783q0 21 -25 21q-33 0 -64 -46q21 -3 40 -3q49 0 49 28z" />
    <glyph glyph-name="uniFDF2" unicode="&#x627;&#xfedf;&#xfee0;&#xfeea;" horiz-adv-x="1139" arabic-form="isolated" 
d="M609 751h-72v179l72 9v-188zM462.5 635q-22.5 20 -22.5 58q0 34 17 71l55 -13q-6 -22 -6 -41q0 -26 18 -26q9 0 15 7.5t6 23.5v31h56v-34q0 -24 19 -24t19 30q0 25 -11 53l57 19q9 -21 15 -46.5t6 -43.5q0 -38 -21 -60.5t-56 -22.5q-39 0 -56 28q-21 -30 -61 -30
q-27 0 -49.5 20zM1080 777v-777h-117v762zM744 654l112 15v-456q0 -117 -40 -165t-118 -48q-41 0 -73.5 17t-51.5 47q-17 -29 -48 -46.5t-70 -17.5q-54 0 -90 23.5t-53 66.5q-22 -30 -58.5 -47t-77.5 -17q-66 0 -110 40t-44 106q0 84 73.5 141t194.5 76v75l112 16v-261
q0 -50 12 -69.5t44 -19.5q34 0 46 21t12 79v321l112 16v-333q0 -58 12.5 -81t48.5 -23q33 0 44 23.5t11 80.5v420zM290 286q-76 -6 -119.5 -34t-43.5 -63q0 -53 63 -53t100 46v104z" />
    <glyph glyph-name="uni0E1B0E31" unicode="&#xe1b;&#xe31;" horiz-adv-x="631" 
d="M554 643v-424q0 -67 -28.5 -120.5t-84 -84t-133.5 -30.5q-122 0 -182 58.5t-60 176.5v165q0 62 -6.5 102t-19.5 70l132 16q14 -22 25 -66t11 -87v-195q0 -68 24.5 -101.5t75.5 -33.5q104 0 104 135v412q-90 1 -135 29t-45 90q0 33 8 63h97q-4 -24 -4 -37q0 -31 17.5 -43
t61.5 -13v71l142 -16v-49q42 4 106 16l15 -87q-50 -10 -121 -17z" />
    <glyph glyph-name="uni0E1B0E49" unicode="&#xe1b;&#xe49;" horiz-adv-x="631" 
d="M554 780v-561q0 -67 -28.5 -120.5t-84 -84t-133.5 -30.5q-122 0 -182 58.5t-60 176.5v165q0 62 -6.5 102t-19.5 70l132 16q14 -22 25 -66t11 -87v-195q0 -68 24.5 -101.5t75.5 -33.5q104 0 104 135v465q-42 -26 -101 -38t-142 -14l-29 36q18 29 18 54q0 24 -12 34t-36 10
q-19 0 -42 -5l-12 75q36 12 82 12q56 0 89.5 -23t33.5 -67q0 -25 -10 -45q61 6 98.5 25t60.5 54l4 -1z" />
    <glyph glyph-name="uni0E1B0E4A" unicode="&#xe1b;&#xe4a;" horiz-adv-x="631" 
d="M554 780v-561q0 -67 -28.5 -120.5t-84 -84t-133.5 -30.5q-122 0 -182 58.5t-60 176.5v165q0 62 -6.5 102t-19.5 70l132 16q14 -22 25 -66t11 -87v-195q0 -68 24.5 -101.5t75.5 -33.5q104 0 104 135v457q-49 -43 -138 -43q-25 0 -51 4q5 53 5 83q0 22 -8.5 33.5
t-23.5 11.5q-17 0 -27 -16t-10 -47v-39l-92 -8v47q0 31 -9.5 47t-26.5 16q-32 0 -32 -46q0 -42 9 -84h-98q-12 46 -12 99q0 55 30.5 84.5t81.5 29.5q47 0 71.5 -23t31.5 -58q7 34 33 57.5t74 23.5q49 0 77 -25.5t28 -64.5q0 -23 -7 -46q40 6 63.5 26.5t30.5 52.5z" />
    <glyph glyph-name="uni0E1B0E4B" unicode="&#xe1b;&#xe4b;" horiz-adv-x="631" 
d="M554 780v-561q0 -67 -28.5 -120.5t-84 -84t-133.5 -30.5q-122 0 -182 58.5t-60 176.5v165q0 62 -6.5 102t-19.5 70l132 16q14 -22 25 -66t11 -87v-195q0 -68 24.5 -101.5t75.5 -33.5q104 0 104 135v572zM360 705l-75 1l2 -63h-109l2 63l-80 -1l8 84l72 -1l-2 58l109 10
l-2 -68l75 1v-84z" />
    <glyph glyph-name="uni0E1B0E4C" unicode="&#xe1b;&#xe4c;" horiz-adv-x="631" 
d="M635 671h-81v-452q0 -67 -28.5 -120.5t-84 -84t-133.5 -30.5q-122 0 -182 58.5t-60 176.5v165q0 62 -6.5 102t-19.5 70l132 16q14 -22 25 -66t11 -87v-195q0 -68 24.5 -101.5t75.5 -33.5q104 0 104 135v447h-34q-23 0 -32.5 -9t-9.5 -32q0 -13 2 -33h-102q-4 22 -4 55
q0 54 35 80t94 26h51v38l142 -16v-22h81v-87z" />
    <glyph glyph-name="uni0E1B0E4D" unicode="&#xe1b;&#xe4d;" horiz-adv-x="631" 
d="M554 780v-561q0 -67 -28.5 -120.5t-84 -84t-133.5 -30.5q-122 0 -182 58.5t-60 176.5v165q0 62 -6.5 102t-19.5 70l132 16q14 -22 25 -66t11 -87v-195q0 -68 24.5 -101.5t75.5 -33.5q104 0 104 135v572zM337 826q33 -32 33 -80q0 -47 -33 -79.5t-87 -32.5q-53 0 -86 32.5
t-33 79.5q0 48 33 80t86 32q54 0 87 -32zM225.5 774q-9.5 -10 -9.5 -28t9.5 -28t24.5 -10q16 0 25.5 10t9.5 28t-9.5 28t-25.5 10q-15 0 -24.5 -10z" />
    <glyph glyph-name="uni0E1D0E31" unicode="&#xe1d;&#xe31;" horiz-adv-x="773" 
d="M696 643v-433q0 -116 -46 -171t-127 -55q-118 0 -144 118q-15 -63 -49 -90.5t-98 -27.5q-78 0 -122 54t-44 172v78q0 103 14 165.5t49.5 94.5t100.5 32q24 0 49 -5t39 -11l-14 -93q-21 6 -37 6q-33 0 -47.5 -34.5t-14.5 -127.5v-104q0 -67 14 -94t45 -27q27 0 40 20.5
t13 74.5v121l125 15v-136q0 -95 53 -95q30 0 44.5 24.5t14.5 92.5v429q-90 1 -135 29t-45 90q0 36 9 63h96q-3 -18 -3 -37q0 -31 17 -43t61 -13v71l142 -16v-49q55 5 106 16l15 -87q-52 -10 -121 -17z" />
    <glyph glyph-name="uni0E1D0E49" unicode="&#xe1d;&#xe49;" horiz-adv-x="773" 
d="M696 780v-570q0 -116 -46 -171t-127 -55q-118 0 -144 118q-15 -63 -49 -90.5t-98 -27.5q-78 0 -122 54t-44 172v78q0 103 14 165.5t49.5 94.5t100.5 32q24 0 49 -5t39 -11l-14 -93q-21 6 -37 6q-33 0 -47.5 -34.5t-14.5 -127.5v-104q0 -67 14 -94t45 -27q27 0 40 20.5
t13 74.5v121l125 15v-136q0 -95 53 -95q30 0 44.5 24.5t14.5 92.5v482q-42 -26 -101 -38t-142 -14l-29 36q18 29 18 54q0 24 -12 34t-36 10q-19 0 -42 -5l-11 75q36 12 81 12q56 0 89.5 -23t33.5 -67q0 -25 -10 -45q61 6 98.5 25t60.5 54l4 -1z" />
    <glyph glyph-name="uni0E1D0E4A" unicode="&#xe1d;&#xe4a;" horiz-adv-x="773" 
d="M696 780v-570q0 -116 -46 -171t-127 -55q-118 0 -144 118q-15 -63 -49 -90.5t-98 -27.5q-78 0 -122 54t-44 172v78q0 103 14 165.5t49.5 94.5t100.5 32q24 0 49 -5t39 -11l-14 -93q-21 6 -37 6q-33 0 -47.5 -34.5t-14.5 -127.5v-104q0 -67 14 -94t45 -27q27 0 40 20.5
t13 74.5v121l125 15v-136q0 -95 53 -95q30 0 44.5 24.5t14.5 92.5v474q-49 -43 -138 -43q-25 0 -51 4q5 53 5 83q0 22 -8.5 33.5t-23.5 11.5q-17 0 -27 -16t-10 -47v-39l-92 -8v47q0 31 -9.5 47t-26.5 16q-32 0 -32 -46q0 -42 9 -84h-98q-12 54 -12 99q0 55 31 84.5t82 29.5
q47 0 71 -23t31 -58q7 34 33 57.5t74 23.5q49 0 77 -25.5t28 -64.5q0 -23 -7 -46q40 5 63 26t31 53z" />
    <glyph glyph-name="uni0E1D0E4B" unicode="&#xe1d;&#xe4b;" horiz-adv-x="773" 
d="M696 780v-570q0 -116 -46 -171t-127 -55q-118 0 -144 118q-15 -63 -49 -90.5t-98 -27.5q-78 0 -122 54t-44 172v78q0 103 14 165.5t49.5 94.5t100.5 32q24 0 49 -5t39 -11l-14 -93q-21 6 -37 6q-33 0 -47.5 -34.5t-14.5 -127.5v-104q0 -67 14 -94t45 -27q27 0 40 20.5
t13 74.5v121l125 15v-136q0 -95 53 -95q30 0 44.5 24.5t14.5 92.5v589zM503 705l-75 1l2 -63h-109l2 63l-80 -1l8 84l72 -1l-2 58l109 10l-2 -68l75 1v-84z" />
    <glyph glyph-name="uni0E1D0E4C" unicode="&#xe1d;&#xe4c;" horiz-adv-x="773" 
d="M778 671h-82v-461q0 -116 -46 -171t-127 -55q-118 0 -144 118q-15 -63 -49 -90.5t-98 -27.5q-78 0 -122 54t-44 172v78q0 103 14 165.5t49.5 94.5t100.5 32q24 0 49 -5t39 -11l-14 -93q-21 6 -37 6q-33 0 -47.5 -34.5t-14.5 -127.5v-104q0 -67 14 -94t45 -27
q27 0 40 20.5t13 74.5v121l125 15v-136q0 -95 53 -95q30 0 44.5 24.5t14.5 92.5v464h-34q-23 0 -32 -9t-9 -32q0 -13 2 -33h-103q-4 44 -4 55q0 54 35 80t94 26h51v38l142 -16v-22h82v-87z" />
    <glyph glyph-name="uni0E1D0E4D" unicode="&#xe1d;&#xe4d;" horiz-adv-x="773" 
d="M696 780v-570q0 -116 -46 -171t-127 -55q-118 0 -144 118q-15 -63 -49 -90.5t-98 -27.5q-78 0 -122 54t-44 172v78q0 103 14 165.5t49.5 94.5t100.5 32q24 0 49 -5t39 -11l-14 -93q-21 6 -37 6q-33 0 -47.5 -34.5t-14.5 -127.5v-104q0 -67 14 -94t45 -27q27 0 40 20.5
t13 74.5v121l125 15v-136q0 -95 53 -95q30 0 44.5 24.5t14.5 92.5v589zM479 826q33 -32 33 -80q0 -47 -33 -79.5t-87 -32.5q-53 0 -86 32.5t-33 79.5q0 48 33 80t86 32q54 0 87 -32zM367.5 774q-9.5 -10 -9.5 -28t9.5 -28t24.5 -10q16 0 25.5 10t9.5 28t-9.5 28t-25.5 10
q-15 0 -24.5 -10z" />
    <glyph glyph-name="uni0E1F0E31" unicode="&#xe1f;&#xe31;" horiz-adv-x="788" 
d="M753 642l-13 -75l-100 -567h-184l-73 440l-81 -440h-178l-60 353q-15 83 -29 127.5t-31 73.5l121 21q49 -64 67 -208l34 -268l85 468h147l81 -468l67 468l10 69q-86 2 -129 30.5t-43 88.5q0 36 9 63h96q-3 -18 -3 -37q0 -32 18.5 -44t64.5 -12l10 71h142l-12 -65
q56 7 103 16l15 -87q-69 -13 -134 -18z" />
    <glyph glyph-name="uni0E1F0E49" unicode="&#xe1f;&#xe49;" horiz-adv-x="773" 
d="M740 567l-100 -567h-184l-73 440l-81 -440h-178l-60 353q-15 83 -29 127.5t-31 73.5l121 21q49 -64 67 -208l34 -268l85 468h147l81 -468l67 468l7 44q6 40 17 77q-42 -26 -98 -37.5t-129 -13.5l-29 37q18 26 18 53q0 24 -12 34t-36 10q-19 0 -42 -5l-11 75q36 12 81 12
q56 0 89.5 -23.5t33.5 -68.5q0 -22 -10 -42q54 7 90.5 25.5t61.5 51.5l144 -1z" />
    <glyph glyph-name="uni0E1F0E4A" unicode="&#xe1f;&#xe4a;" horiz-adv-x="773" 
d="M781 795l-41 -228l-100 -567h-184l-73 440l-81 -440h-178l-60 353q-15 83 -29 127.5t-31 73.5l121 21q49 -64 67 -208l34 -268l85 468h147l81 -468l67 468l6 38q6 34 15 65q-43 -32 -120 -32q-26 0 -52 4q5 40 5 83q0 22 -8.5 33.5t-23.5 11.5q-17 0 -26.5 -16t-9.5 -47
v-39l-92 -8v47q0 31 -10 47t-26 16q-33 0 -33 -46q0 -44 10 -84h-98q-13 50 -13 99q0 55 31 84.5t82 29.5q47 0 71.5 -23t31.5 -58q7 34 33 57.5t74 23.5t76.5 -25.5t28.5 -64.5q0 -23 -7 -46q71 11 88 79z" />
    <glyph glyph-name="uni0E1F0E4B" unicode="&#xe1f;&#xe4b;" horiz-adv-x="773" 
d="M781 796l-41 -229l-100 -567h-184l-73 440l-81 -440h-178l-60 353q-15 83 -29 127.5t-31 73.5l121 21q49 -64 67 -208l34 -268l85 468h147l81 -468l67 468l33 229h142zM577 705l-75 1l2 -63h-109l2 63l-80 -1l8 84l72 -1l-2 58l109 10l-2 -68l75 1v-84z" />
    <glyph glyph-name="uni0E1F0E4C" unicode="&#xe1f;&#xe4c;" horiz-adv-x="788" 
d="M848 671h-89l-19 -104l-100 -567h-184l-73 440l-81 -440h-178l-60 353q-15 83 -29 127.5t-31 73.5l121 21q49 -64 67 -208l34 -268l85 468h147l81 -468l67 468l15 104h-31q-23 0 -32 -9t-9 -32q0 -13 2 -33h-102q-5 28 -5 55q0 54 35 80t95 26h60l5 38h142l-7 -38h74v-87
z" />
    <glyph glyph-name="uni0E1F0E4D" unicode="&#xe1f;&#xe4d;" horiz-adv-x="773" 
d="M781 796l-41 -229l-100 -567h-184l-73 440l-81 -440h-178l-60 353q-15 83 -29 127.5t-31 73.5l121 21q49 -64 67 -208l34 -268l85 468h147l81 -468l67 468l33 229h142zM554 826q33 -32 33 -80q0 -47 -33 -79.5t-87 -32.5q-53 0 -86 32.5t-33 79.5q0 48 33 80t86 32
q54 0 87 -32zM442.5 774q-9.5 -10 -9.5 -28t9.5 -28t24.5 -10q16 0 25.5 10t9.5 28t-9.5 28t-25.5 10q-15 0 -24.5 -10z" />
    <glyph glyph-name="uni0E310E4A" unicode="&#xe31;&#xe4a;" 
d="M-542.5 670.5q-37.5 26.5 -37.5 84.5q0 17 3.5 35t7.5 28h94q-4 -22 -4 -35q0 -25 15.5 -34t57.5 -9q43 0 98 10.5t108 30.5l22 -87q-126 -50 -252 -50q-75 0 -112.5 26.5zM-30 1047q-31 -86 -87.5 -123t-144.5 -37q-10 0 -46 3q5 48 5 75q0 40 -29 40q-33 0 -33 -56v-35
l-83 -7v42q0 28 -8.5 42t-23.5 14q-29 0 -29 -41q0 -42 8 -75h-88q-11 44 -11 89q0 49 28 76t73 27q42 0 64.5 -21t28.5 -52q6 30 29.5 51.5t66.5 21.5q44 0 69 -23t25 -59q0 -23 -7 -44q78 12 107 109z" />
    <glyph glyph-name="uniFE8E" unicode="&#x627;" horiz-adv-x="257" arabic-form="final" 
d="M58 762l112 14v-542q0 -57 22 -78t76 -21l9 -73l-20 -62q-100 0 -149.5 53t-49.5 177v532z" />
    <glyph glyph-name="uniFE84" unicode="&#x623;" horiz-adv-x="257" arabic-form="final" 
d="M58 630l112 15v-411q0 -57 22 -78t76 -21l9 -73l-20 -62q-100 0 -149.5 53t-49.5 177v400zM228 714l-224 -36l-8 66l62 10q-36 33 -36 66q0 39 27.5 64.5t79.5 25.5q41 0 85 -26l-40 -62q-24 15 -45 15q-16 0 -24 -8.5t-8 -18.5q0 -19 27 -45l93 16z" />
    <glyph glyph-name="uniFE88" unicode="&#x625;" horiz-adv-x="257" arabic-form="final" 
d="M58 762l112 14v-542q0 -57 22 -78t76 -21l9 -73l-20 -62q-100 0 -149.5 53t-49.5 177v532zM240 -232l-224 -36l-8 66l62 10q-36 33 -36 66q0 39 27.5 64.5t79.5 25.5q41 0 85 -26l-40 -62q-24 15 -45 15q-16 0 -24 -8.5t-8 -18.5q0 -19 27 -45l93 16z" />
    <glyph glyph-name="uniFE82" unicode="&#x622;" horiz-adv-x="257" arabic-form="final" 
d="M58 630l112 15v-411q0 -57 22 -78t76 -21l9 -73l-20 -62q-100 0 -149.5 53t-49.5 177v400zM-14 706q13 44 40.5 71t59.5 27q16 0 26.5 -4t24.5 -11q22 -12 37 -12q11 0 18.5 3t22.5 12l29 -51q-21 -21 -40 -30.5t-39 -9.5q-11 0 -20.5 3.5t-22.5 10.5q-3 1 -13 6t-20 5
q-27 0 -43 -38z" />
    <glyph glyph-name="uniFB51" unicode="&#x671;" horiz-adv-x="257" arabic-form="final" 
d="M58 630l112 15v-411q0 -57 22 -78t76 -21l9 -73l-20 -62q-100 0 -149.5 53t-49.5 177v400zM230 874.5q24 -20.5 24 -58.5q0 -52 -34 -73.5t-88 -21.5q-30 0 -69 11l-18 -33l-57 20l30 86l14 -4.5t18 -4.5q24 53 57 76t67 23q32 0 56 -20.5zM192 810q0 21 -25 21
q-33 0 -64 -46q21 -3 40 -3q49 0 49 28z" />
    <glyph glyph-name="uniFD3D" unicode="&#xfd3d;" horiz-adv-x="233" arabic-form="isolated" 
d="M58 0v630l117 15v-645h-117zM4 855l226 43l-2 -69l-226 -43zM4 754l226 43l-2 -69l-226 -43z" />
    <glyph glyph-name="uniFD3C" unicode="&#xfd3c;" horiz-adv-x="257" arabic-form="final" 
d="M58 630l112 15v-411q0 -57 22 -78t76 -21l9 -73l-20 -62q-100 0 -149.5 53t-49.5 177v400zM2 854l226 43l-2 -69l-226 -43zM2 753l226 43l-2 -69l-226 -43z" />
    <glyph glyph-name="uni066E.init" unicode="&#x66e;" horiz-adv-x="312" 
d="M98.5 141q28.5 6 39 20t10.5 42q0 53 -47 179l118 38q21 -60 32 -122.5t11 -109.5q0 -77 -24.5 -117t-80 -55.5t-157.5 -15.5l-20 62l31 73q59 0 87.5 6z" />
    <glyph glyph-name="uni066E.medi" unicode="&#x66e;" horiz-adv-x="335" 
d="M355 62l-20 -62q-63 0 -102.5 15t-64.5 53q-25 -38 -64 -53t-104 -15l-20 62l32 73q49 0 69.5 8.5t25.5 26.5t5 60v108h112v-107q0 -40 8.5 -59.5t34 -28t79.5 -8.5z" />
    <glyph glyph-name="uni066E.fina" unicode="&#x66e;" horiz-adv-x="984" 
d="M1004 65l-20 -65q-79 0 -126 17t-78 63q-74 -43 -160 -66.5t-204 -28.5l-1 -2h-41h-38l-1 2q-117 5 -180.5 28t-89 66.5t-25.5 117.5q0 39 10.5 81.5t28.5 80.5l86 -27q-17 -66 -17 -106q0 -39 19 -61t69 -33.5t145 -13.5q111 3 204.5 22.5t146.5 49.5v155h112v-83
q0 -51 12 -77.5t44 -38t96 -11.5z" />
    <glyph glyph-name="uniFE90" unicode="&#x628;" horiz-adv-x="984" arabic-form="final" 
d="M1004 65l-20 -65q-79 0 -126 17t-78 63q-74 -43 -160 -66.5t-204 -28.5l-1 -2h-41h-38l-1 2q-117 5 -180.5 28t-89 66.5t-25.5 117.5q0 39 10.5 81.5t28.5 80.5l86 -27q-17 -66 -17 -106q0 -39 19 -61t69 -33.5t145 -13.5q111 3 204.5 22.5t146.5 49.5v155h112v-83
q0 -51 12 -77.5t44 -38t96 -11.5zM327.5 -198q-18.5 19 -18.5 46q0 28 18.5 47t46.5 19t46.5 -19t18.5 -47q0 -27 -18.5 -46t-46.5 -19t-46.5 19z" />
    <glyph glyph-name="uniFE92" unicode="&#x628;" horiz-adv-x="335" arabic-form="medial" 
d="M355 62l-20 -62q-63 0 -102.5 15t-64.5 53q-25 -38 -64 -53t-104 -15l-20 62l32 73q49 0 69.5 8.5t25.5 26.5t5 60v108h112v-107q0 -40 8.5 -59.5t34 -28t79.5 -8.5zM120.5 -198q-18.5 19 -18.5 46q0 28 18.5 47t46.5 19t46.5 -19t18.5 -47q0 -27 -18.5 -46t-46.5 -19
t-46.5 19z" />
    <glyph glyph-name="uniFE91" unicode="&#x628;" horiz-adv-x="312" arabic-form="initial" 
d="M98.5 141q28.5 6 39 20t10.5 42q0 53 -47 179l118 38q21 -60 32 -122.5t11 -109.5q0 -77 -24.5 -117t-80 -55.5t-157.5 -15.5l-20 62l31 73q59 0 87.5 6zM100.5 -198q-18.5 19 -18.5 46q0 28 18.5 47t46.5 19t46.5 -19t18.5 -47q0 -27 -18.5 -46t-46.5 -19t-46.5 19z" />
    <glyph glyph-name="uniFB57" unicode="&#x67e;" horiz-adv-x="984" arabic-form="final" 
d="M1004 65l-20 -65q-79 0 -126 17t-78 63q-74 -43 -160 -66.5t-204 -28.5l-1 -2h-41h-38l-1 2q-117 5 -180.5 28t-89 66.5t-25.5 117.5q0 39 10.5 81.5t28.5 80.5l86 -27q-17 -66 -17 -106q0 -39 19 -61t69 -33.5t145 -13.5q111 3 204.5 22.5t146.5 49.5v155h112v-83
q0 -51 12 -77.5t44 -38t96 -11.5zM327 -106q17 -17 17 -40q0 -24 -17 -41t-40 -17q-25 0 -42 16.5t-17 41.5q0 23 17 40t42 17q23 0 40 -17zM503 -106q17 -17 17 -40q0 -25 -17 -41.5t-42 -16.5q-23 0 -40 17t-17 41q0 23 17 40t40 17q25 0 42 -17zM414 -237q17 -17 17 -41
t-17 -40.5t-40 -16.5t-40 16.5t-17 40.5t17 41t40 17t40 -17z" />
    <glyph glyph-name="uniFB59" unicode="&#x67e;" horiz-adv-x="335" arabic-form="medial" 
d="M355 62l-20 -62q-63 0 -102.5 15t-64.5 53q-25 -38 -64 -53t-104 -15l-20 62l32 73q49 0 69.5 8.5t25.5 26.5t5 60v108h112v-107q0 -40 8.5 -59.5t34 -28t79.5 -8.5zM120 -106q17 -17 17 -40q0 -24 -17 -41t-40 -17q-25 0 -42 16.5t-17 41.5q0 23 17 40t42 17
q23 0 40 -17zM296 -106q17 -17 17 -40q0 -25 -17 -41.5t-42 -16.5q-23 0 -40 17t-17 41q0 23 17 40t40 17q25 0 42 -17zM207 -237q17 -17 17 -41t-17 -40.5t-40 -16.5t-40 16.5t-17 40.5t17 41t40 17t40 -17z" />
    <glyph glyph-name="uniFB58" unicode="&#x67e;" horiz-adv-x="312" arabic-form="initial" 
d="M98.5 141q28.5 6 39 20t10.5 42q0 53 -47 179l118 38q21 -60 32 -122.5t11 -109.5q0 -77 -24.5 -117t-80 -55.5t-157.5 -15.5l-20 62l31 73q59 0 87.5 6zM100 -106q17 -17 17 -40q0 -24 -17 -41t-40 -17q-25 0 -42 16.5t-17 41.5q0 23 17 40t42 17q23 0 40 -17zM276 -106
q17 -17 17 -40q0 -25 -17 -41.5t-42 -16.5q-23 0 -40 17t-17 41q0 23 17 40t40 17q25 0 42 -17zM187 -237q17 -17 17 -41t-17 -40.5t-40 -16.5t-40 16.5t-17 40.5t17 41t40 17t40 -17z" />
    <glyph glyph-name="uniFB53" unicode="&#x67b;" horiz-adv-x="984" arabic-form="final" 
d="M1004 65l-20 -65q-79 0 -126 17t-78 63q-74 -43 -160 -66.5t-204 -28.5l-1 -2h-41h-38l-1 2q-117 5 -180.5 28t-89 66.5t-25.5 117.5q0 39 10.5 81.5t28.5 80.5l86 -27q-17 -66 -17 -106q0 -39 19 -61t69 -33.5t145 -13.5q111 3 204.5 22.5t146.5 49.5v155h112v-83
q0 -51 12 -77.5t44 -38t96 -11.5zM331.5 -175q-17.5 18 -17.5 43t17.5 42.5t42.5 17.5t42.5 -17.5t17.5 -42.5q0 -26 -17.5 -43.5t-42.5 -17.5t-42.5 18zM332.5 -331.5q-17.5 17.5 -17.5 42.5t17.5 43t42.5 18t42.5 -18t17.5 -43t-17.5 -42.5t-42.5 -17.5t-42.5 17.5z" />
    <glyph glyph-name="uniFB55" unicode="&#x67b;" horiz-adv-x="335" arabic-form="medial" 
d="M355 62l-20 -62q-63 0 -102.5 15t-64.5 53q-25 -38 -64 -53t-104 -15l-20 62l32 73q49 0 69.5 8.5t25.5 26.5t5 60v108h112v-107q0 -40 8.5 -59.5t34 -28t79.5 -8.5zM124.5 -175q-17.5 18 -17.5 43t17.5 42.5t42.5 17.5t42.5 -17.5t17.5 -42.5q0 -26 -17.5 -43.5
t-42.5 -17.5t-42.5 18zM125.5 -331.5q-17.5 17.5 -17.5 42.5t17.5 43t42.5 18t42.5 -18t17.5 -43t-17.5 -42.5t-42.5 -17.5t-42.5 17.5z" />
    <glyph glyph-name="uniFB54" unicode="&#x67b;" horiz-adv-x="312" arabic-form="initial" 
d="M98.5 141q28.5 6 39 20t10.5 42q0 53 -47 179l118 38q21 -60 32 -122.5t11 -109.5q0 -77 -24.5 -117t-80 -55.5t-157.5 -15.5l-20 62l31 73q59 0 87.5 6zM104.5 -175q-17.5 18 -17.5 43t17.5 42.5t42.5 17.5t42.5 -17.5t17.5 -42.5q0 -26 -17.5 -43.5t-42.5 -17.5
t-42.5 18zM105.5 -331.5q-17.5 17.5 -17.5 42.5t17.5 43t42.5 18t42.5 -18t17.5 -43t-17.5 -42.5t-42.5 -17.5t-42.5 17.5z" />
    <glyph glyph-name="uniFB5B" unicode="&#x680;" horiz-adv-x="984" arabic-form="final" 
d="M1004 65l-20 -65q-79 0 -126 17t-78 63q-74 -43 -160 -66.5t-204 -28.5l-1 -2h-41h-38l-1 2q-117 5 -180.5 28t-89 66.5t-25.5 117.5q0 39 10.5 81.5t28.5 80.5l86 -27q-17 -66 -17 -106q0 -39 19 -61t69 -33.5t145 -13.5q111 3 204.5 22.5t146.5 49.5v155h112v-83
q0 -51 12 -77.5t44 -38t96 -11.5zM260.5 -171q-16.5 16 -16.5 39q0 24 16.5 40t39.5 16t39 -16t16 -40q0 -23 -16 -39t-39 -16t-39.5 16zM408.5 -171q-16.5 16 -16.5 39q0 24 16 40t39 16t39.5 -16t16.5 -40q0 -23 -16.5 -39t-39.5 -16q-22 0 -38.5 16zM260.5 -312.5
q-16.5 16.5 -16.5 39.5t16.5 39.5t39.5 16.5t39 -16.5t16 -39.5t-16 -39.5t-39 -16.5t-39.5 16.5zM408 -312.5q-16 16.5 -16 39.5t16 39.5t39 16.5t39.5 -16.5t16.5 -39.5t-16.5 -39.5t-39.5 -16.5t-39 16.5z" />
    <glyph glyph-name="uniFB5D" unicode="&#x680;" horiz-adv-x="335" arabic-form="medial" 
d="M355 62l-20 -62q-63 0 -102.5 15t-64.5 53q-25 -38 -64 -53t-104 -15l-20 62l32 73q49 0 69.5 8.5t25.5 26.5t5 60v108h112v-107q0 -40 8.5 -59.5t34 -28t79.5 -8.5zM53.5 -171q-16.5 16 -16.5 39q0 24 16.5 40t39.5 16t39 -16t16 -40q0 -23 -16 -39t-39 -16t-39.5 16z
M201.5 -171q-16.5 16 -16.5 39q0 24 16 40t39 16t39.5 -16t16.5 -40q0 -23 -16.5 -39t-39.5 -16q-22 0 -38.5 16zM53.5 -312.5q-16.5 16.5 -16.5 39.5t16.5 39.5t39.5 16.5t39 -16.5t16 -39.5t-16 -39.5t-39 -16.5t-39.5 16.5zM201 -312.5q-16 16.5 -16 39.5t16 39.5
t39 16.5t39.5 -16.5t16.5 -39.5t-16.5 -39.5t-39.5 -16.5t-39 16.5z" />
    <glyph glyph-name="uniFB5C" unicode="&#x680;" horiz-adv-x="312" arabic-form="initial" 
d="M98.5 141q28.5 6 39 20t10.5 42q0 53 -47 179l118 38q21 -60 32 -122.5t11 -109.5q0 -77 -24.5 -117t-80 -55.5t-157.5 -15.5l-20 62l31 73q59 0 87.5 6zM33.5 -171q-16.5 16 -16.5 39q0 24 16.5 40t39.5 16t39 -16t16 -40q0 -23 -16 -39t-39 -16t-39.5 16zM181.5 -171
q-16.5 16 -16.5 39q0 24 16 40t39 16t39.5 -16t16.5 -40q0 -23 -16.5 -39t-39.5 -16q-22 0 -38.5 16zM33.5 -312.5q-16.5 16.5 -16.5 39.5t16.5 39.5t39.5 16.5t39 -16.5t16 -39.5t-16 -39.5t-39 -16.5t-39.5 16.5zM181 -312.5q-16 16.5 -16 39.5t16 39.5t39 16.5
t39.5 -16.5t16.5 -39.5t-16.5 -39.5t-39.5 -16.5t-39 16.5z" />
    <glyph glyph-name="uniFBE9" unicode="&#x649;" horiz-adv-x="335" arabic-form="medial" 
d="M355 62l-20 -62q-63 0 -102.5 15t-64.5 53q-25 -38 -64 -53t-104 -15l-20 62l32 73q49 0 69.5 8.5t25.5 26.5t5 60v108h112v-107q0 -40 8.5 -59.5t34 -28t79.5 -8.5z" />
    <glyph glyph-name="uniFBE8" unicode="&#x649;" horiz-adv-x="312" arabic-form="initial" 
d="M98.5 141q28.5 6 39 20t10.5 42q0 53 -47 179l118 38q21 -60 32 -122.5t11 -109.5q0 -77 -24.5 -117t-80 -55.5t-157.5 -15.5l-20 62l31 73q59 0 87.5 6z" />
    <glyph glyph-name="uniFE96" unicode="&#x62a;" horiz-adv-x="984" arabic-form="final" 
d="M1004 65l-20 -65q-79 0 -126 17t-78 63q-74 -43 -160 -66.5t-204 -28.5l-1 -2h-41h-38l-1 2q-117 5 -180.5 28t-89 66.5t-25.5 117.5q0 39 10.5 81.5t28.5 80.5l86 -27q-17 -66 -17 -106q0 -39 19 -61t69 -33.5t145 -13.5q111 3 204.5 22.5t146.5 49.5v155h112v-83
q0 -51 12 -77.5t44 -38t96 -11.5zM345 410q-18 18 -18 43t18 42.5t42 17.5q25 0 43 -17.5t18 -42.5t-18 -43t-43 -18q-24 0 -42 18zM507.5 410q-17.5 18 -17.5 43t17.5 42.5t42.5 17.5t42.5 -17.5t17.5 -42.5t-17.5 -43t-42.5 -18t-42.5 18z" />
    <glyph glyph-name="uniFE98" unicode="&#x62a;" horiz-adv-x="335" arabic-form="medial" 
d="M355 62l-20 -62q-63 0 -102.5 15t-64.5 53q-25 -38 -64 -53t-104 -15l-20 62l32 73q49 0 69.5 8.5t25.5 26.5t5 60v108h112v-107q0 -40 8.5 -59.5t34 -28t79.5 -8.5zM44 444q-18 18 -18 43t18 42.5t42 17.5q25 0 43 -17.5t18 -42.5t-18 -43t-43 -18q-24 0 -42 18z
M206.5 444q-17.5 18 -17.5 43t17.5 42.5t42.5 17.5t42.5 -17.5t17.5 -42.5t-17.5 -43t-42.5 -18t-42.5 18z" />
    <glyph glyph-name="uniFE97" unicode="&#x62a;" horiz-adv-x="312" arabic-form="initial" 
d="M98.5 141q28.5 6 39 20t10.5 42q0 53 -47 179l118 38q21 -60 32 -122.5t11 -109.5q0 -77 -24.5 -117t-80 -55.5t-157.5 -15.5l-20 62l31 73q59 0 87.5 6zM3 514q-18 18 -18 43t18 42.5t42 17.5q25 0 43 -17.5t18 -42.5t-18 -43t-43 -18q-24 0 -42 18zM165.5 514
q-17.5 18 -17.5 43t17.5 42.5t42.5 17.5t42.5 -17.5t17.5 -42.5t-17.5 -43t-42.5 -18t-42.5 18z" />
    <glyph glyph-name="uni067C.init" unicode="&#x67c;" horiz-adv-x="309" 
d="M2.5 514.5q-17.5 17.5 -17.5 42.5t17.5 42.5t42.5 17.5t42.5 -17.5t17.5 -42.5t-17.5 -42.5t-42.5 -17.5t-42.5 17.5zM165 514.5q-18 17.5 -18 42.5t18 42.5t43 17.5q24 0 42 -17.5t18 -42.5t-18 -42.5t-42 -17.5q-25 0 -43 17.5zM249 94.5q-13 -35.5 -43 -56.5
q23 -26 23 -63q0 -40 -26.5 -65.5t-66.5 -25.5t-67 26t-27 65q0 14 3 26q-14 -1 -45 -1l-20 62l31 73q59 0 87.5 6t39 20t10.5 42q0 53 -47 179l118 38q21 -60 32 -122.5t11 -109.5q0 -58 -13 -93.5zM135 10l-14 -3q-22 -8 -22 -32q0 -14 10 -24t27 -10t27 10t10 24
q0 16 -10 25.5t-27 9.5h-1z" />
    <glyph glyph-name="uni067C.medi" unicode="&#x67c;" horiz-adv-x="335" 
d="M44 444q-18 18 -18 43t18 42.5t43 17.5t42.5 -17.5t17.5 -42.5t-17.5 -43t-42.5 -18t-43 18zM207 444q-18 18 -18 43t18 42.5t43 17.5q24 0 42 -17.5t18 -42.5t-18 -43t-42 -18q-25 0 -43 18zM232.5 15q-39.5 15 -64.5 53q-3 -6 -8 -11q21 -12 33 -32.5t12 -46.5
q0 -40 -26.5 -65.5t-67.5 -25.5q-39 0 -66.5 26t-27.5 65q0 11 3 22h-20l-20 62l32 73q49 0 69.5 8.5t25.5 26.5t5 60v108h112v-107q0 -40 8.5 -59.5t34 -28t79.5 -8.5l9 -73l-20 -62q-63 0 -102.5 15zM138 -46q10 10 10 24q0 16 -10 25.5t-27 9.5t-27 -9.5t-10 -25.5
q0 -14 10 -24t27 -10t27 10z" />
    <glyph glyph-name="uni067C.fina" unicode="&#x67c;" horiz-adv-x="984" 
d="M344.5 410.5q-17.5 17.5 -17.5 42.5t17.5 42.5t42.5 17.5t43 -17.5t18 -42.5t-18 -42.5t-43 -17.5t-42.5 17.5zM507.5 410.5q-17.5 17.5 -17.5 42.5t17.5 42.5t42.5 17.5t42.5 -17.5t17.5 -42.5t-17.5 -42.5t-42.5 -17.5t-42.5 17.5zM1004 65l-20 -65q-79 0 -126 17
t-78 63q-68 -40 -146 -63t-182 -30q8 -18 8 -38q0 -40 -26.5 -66t-66.5 -26t-67 26t-27 66q0 20 8 39q-94 8 -146.5 32.5t-73.5 66.5t-21 110q0 39 10.5 81.5t28.5 80.5l86 -27q-17 -66 -17 -106q0 -39 19 -61t69 -33.5t145 -13.5q111 3 204.5 22.5t146.5 49.5v155h112v-83
q0 -51 12 -77.5t44 -38t96 -11.5zM394 -75q10 10 10 24q0 15 -10.5 24.5t-26.5 9.5t-26.5 -9.5t-10.5 -24.5q0 -14 10 -24t27 -10t27 10z" />
    <glyph glyph-name="uni067D.init" unicode="&#x67d;" horiz-adv-x="312" 
d="M98.5 141q28.5 6 39 20t10.5 42q0 53 -47 179l118 38q21 -60 32 -122.5t11 -109.5q0 -77 -24.5 -117t-80 -55.5t-157.5 -15.5l-20 62l31 73q59 0 87.5 6zM80 706q17 -17 17 -40q0 -24 -17 -41t-40 -17q-25 0 -42 16.5t-17 41.5q0 23 17 40t42 17q23 0 40 -17zM256 706
q17 -17 17 -40q0 -25 -17 -41.5t-42 -16.5q-23 0 -40 17t-17 41q0 23 17 40t40 17q25 0 42 -17zM167 575q17 -17 17 -41t-17 -40.5t-40 -16.5t-40 16.5t-17 40.5t17 41t40 17t40 -17z" />
    <glyph glyph-name="uni067D.medi" unicode="&#x67d;" horiz-adv-x="335" 
d="M355 62l-20 -62q-63 0 -102.5 15t-64.5 53q-25 -38 -64 -53t-104 -15l-20 62l32 73q49 0 69.5 8.5t25.5 26.5t5 60v108h112v-107q0 -40 8.5 -59.5t34 -28t79.5 -8.5zM121 636q17 -17 17 -40q0 -24 -17 -41t-40 -17q-25 0 -42 16.5t-17 41.5q0 23 17 40t42 17q23 0 40 -17
zM297 636q17 -17 17 -40q0 -25 -17 -41.5t-42 -16.5q-23 0 -40 17t-17 41q0 23 17 40t40 17q25 0 42 -17zM208 505q17 -17 17 -41t-17 -40.5t-40 -16.5t-40 16.5t-17 40.5t17 41t40 17t40 -17z" />
    <glyph glyph-name="uni067D.fina" unicode="&#x67d;" horiz-adv-x="984" 
d="M1004 65l-20 -65q-79 0 -126 17t-78 63q-74 -43 -160 -66.5t-204 -28.5l-1 -2h-41h-38l-1 2q-117 5 -180.5 28t-89 66.5t-25.5 117.5q0 39 10.5 81.5t28.5 80.5l86 -27q-17 -66 -17 -106q0 -39 19 -61t69 -33.5t145 -13.5q111 3 204.5 22.5t146.5 49.5v155h112v-83
q0 -51 12 -77.5t44 -38t96 -11.5zM422 602q17 -17 17 -40q0 -24 -17 -41t-40 -17q-25 0 -42 16.5t-17 41.5q0 23 17 40t42 17q23 0 40 -17zM598 602q17 -17 17 -40q0 -25 -17 -41.5t-42 -16.5q-23 0 -40 17t-17 41q0 23 17 40t40 17q25 0 42 -17zM509 471q17 -17 17 -41
t-17 -40.5t-40 -16.5t-40 16.5t-17 40.5t17 41t40 17t40 -17z" />
    <glyph glyph-name="uniFE9A" unicode="&#x62b;" horiz-adv-x="984" arabic-form="final" 
d="M1004 65l-20 -65q-79 0 -126 17t-78 63q-74 -43 -160 -66.5t-204 -28.5l-1 -2h-41h-38l-1 2q-117 5 -180.5 28t-89 66.5t-25.5 117.5q0 39 10.5 81.5t28.5 80.5l86 -27q-17 -66 -17 -106q0 -39 19 -61t69 -33.5t145 -13.5q111 3 204.5 22.5t146.5 49.5v155h112v-83
q0 -51 12 -77.5t44 -38t96 -11.5zM429 530q-17 17 -17 41t17 41t40 17t40 -17t17 -41t-17 -41t-40 -17t-40 17zM340 399q-17 17 -17 40q0 25 17 42t42 17q23 0 40 -17.5t17 -41.5q0 -23 -17 -40t-40 -17q-25 0 -42 17zM516 399q-17 17 -17 40q0 24 17 41.5t40 17.5
q25 0 42 -17t17 -42q0 -23 -17 -40t-42 -17q-23 0 -40 17z" />
    <glyph glyph-name="uniFE9C" unicode="&#x62b;" horiz-adv-x="335" arabic-form="medial" 
d="M355 62l-20 -62q-63 0 -102.5 15t-64.5 53q-25 -38 -64 -53t-104 -15l-20 62l32 73q49 0 69.5 8.5t25.5 26.5t5 60v108h112v-107q0 -40 8.5 -59.5t34 -28t79.5 -8.5zM128 564q-17 17 -17 41t17 41t40 17t40 -17t17 -41t-17 -41t-40 -17t-40 17zM39 433q-17 17 -17 40
q0 25 17 42t42 17q23 0 40 -17.5t17 -41.5q0 -23 -17 -40t-40 -17q-25 0 -42 17zM215 433q-17 17 -17 40q0 24 17 41.5t40 17.5q25 0 42 -17t17 -42q0 -23 -17 -40t-42 -17q-23 0 -40 17z" />
    <glyph glyph-name="uniFE9B" unicode="&#x62b;" horiz-adv-x="312" arabic-form="initial" 
d="M98.5 141q28.5 6 39 20t10.5 42q0 53 -47 179l118 38q21 -60 32 -122.5t11 -109.5q0 -77 -24.5 -117t-80 -55.5t-157.5 -15.5l-20 62l31 73q59 0 87.5 6zM87 634q-17 17 -17 41t17 41t40 17t40 -17t17 -41t-17 -41t-40 -17t-40 17zM-2 503q-17 17 -17 40q0 25 17 42
t42 17q23 0 40 -17.5t17 -41.5q0 -23 -17 -40t-40 -17q-25 0 -42 17zM174 503q-17 17 -17 40q0 24 17 41.5t40 17.5q25 0 42 -17t17 -42q0 -23 -17 -40t-42 -17q-23 0 -40 17z" />
    <glyph glyph-name="uniFB67" unicode="&#x679;" horiz-adv-x="984" arabic-form="final" 
d="M1004 65l-20 -65q-79 0 -126 17t-78 63q-74 -43 -160 -66.5t-204 -28.5l-1 -2h-41h-38l-1 2q-117 5 -180.5 28t-89 66.5t-25.5 117.5q0 39 10.5 81.5t28.5 80.5l86 -27q-17 -66 -17 -106q0 -39 19 -61t69 -33.5t145 -13.5q111 3 204.5 22.5t146.5 49.5v155h112v-83
q0 -51 12 -77.5t44 -38t96 -11.5zM574 536q21 -26 21 -66q0 -32 -24.5 -60t-76.5 -28h-155l7 62h33v152h61v-70q19 20 37 28t38 8q38 0 59 -26zM525 451q12 7 12 22q0 26 -29 26q-40 0 -84 -55h60q29 0 41 7z" />
    <glyph glyph-name="uniFB69" unicode="&#x679;" horiz-adv-x="335" arabic-form="medial" 
d="M355 62l-20 -62q-63 0 -102.5 15t-64.5 53q-25 -38 -64 -53t-104 -15l-20 62l32 73q49 0 69.5 8.5t25.5 26.5t5 60v108h112v-107q0 -40 8.5 -59.5t34 -28t79.5 -8.5zM273 570q21 -26 21 -66q0 -32 -24.5 -60t-76.5 -28h-155l7 62h33v152h61v-70q19 20 37 28t38 8
q38 0 59 -26zM224 485q12 7 12 22q0 26 -29 26q-40 0 -84 -55h60q29 0 41 7z" />
    <glyph glyph-name="uniFB68" unicode="&#x679;" horiz-adv-x="312" arabic-form="initial" 
d="M98.5 141q28.5 6 39 20t10.5 42q0 53 -47 179l118 38q21 -60 32 -122.5t11 -109.5q0 -77 -24.5 -117t-80 -55.5t-157.5 -15.5l-20 62l31 73q59 0 87.5 6zM232 640q21 -26 21 -66q0 -32 -24.5 -60t-76.5 -28h-155l7 62h33v152h61v-70q19 20 37 28t38 8q38 0 59 -26z
M183 555q12 7 12 22q0 26 -29 26q-40 0 -84 -55h60q29 0 41 7z" />
    <glyph glyph-name="uniFB5F" unicode="&#x67a;" horiz-adv-x="984" arabic-form="final" 
d="M1004 65l-20 -65q-79 0 -126 17t-78 63q-74 -43 -160 -66.5t-204 -28.5l-1 -2h-41h-38l-1 2q-117 5 -180.5 28t-89 66.5t-25.5 117.5q0 39 10.5 81.5t28.5 80.5l86 -27q-17 -66 -17 -106q0 -39 19 -61t69 -33.5t145 -13.5q111 3 204.5 22.5t146.5 49.5v155h112v-83
q0 -51 12 -77.5t44 -38t96 -11.5zM426.5 540q-17.5 18 -17.5 43t17.5 42.5t42.5 17.5t42.5 -17.5t17.5 -42.5q0 -26 -17.5 -43.5t-42.5 -17.5t-42.5 18zM427.5 383.5q-17.5 17.5 -17.5 42.5t17.5 43t42.5 18t42.5 -18t17.5 -43t-17.5 -42.5t-42.5 -17.5t-42.5 17.5z" />
    <glyph glyph-name="uniFB61" unicode="&#x67a;" horiz-adv-x="335" arabic-form="medial" 
d="M355 62l-20 -62q-63 0 -102.5 15t-64.5 53q-25 -38 -64 -53t-104 -15l-20 62l32 73q49 0 69.5 8.5t25.5 26.5t5 60v108h112v-107q0 -40 8.5 -59.5t34 -28t79.5 -8.5zM125.5 574q-17.5 18 -17.5 43t17.5 42.5t42.5 17.5t42.5 -17.5t17.5 -42.5q0 -26 -17.5 -43.5
t-42.5 -17.5t-42.5 18zM126.5 417.5q-17.5 17.5 -17.5 42.5t17.5 43t42.5 18t42.5 -18t17.5 -43t-17.5 -42.5t-42.5 -17.5t-42.5 17.5z" />
    <glyph glyph-name="uniFB60" unicode="&#x67a;" horiz-adv-x="312" arabic-form="initial" 
d="M98.5 141q28.5 6 39 20t10.5 42q0 53 -47 179l118 38q21 -60 32 -122.5t11 -109.5q0 -77 -24.5 -117t-80 -55.5t-157.5 -15.5l-20 62l31 73q59 0 87.5 6zM84.5 644q-17.5 18 -17.5 43t17.5 42.5t42.5 17.5t42.5 -17.5t17.5 -42.5q0 -26 -17.5 -43.5t-42.5 -17.5t-42.5 18
zM85.5 487.5q-17.5 17.5 -17.5 42.5t17.5 43t42.5 18t42.5 -18t17.5 -43t-17.5 -42.5t-42.5 -17.5t-42.5 17.5z" />
    <glyph glyph-name="uniFB63" unicode="&#x67f;" horiz-adv-x="984" arabic-form="final" 
d="M1004 65l-20 -65q-79 0 -126 17t-78 63q-74 -43 -160 -66.5t-204 -28.5l-1 -2h-41h-38l-1 2q-117 5 -180.5 28t-89 66.5t-25.5 117.5q0 39 10.5 81.5t28.5 80.5l86 -27q-17 -66 -17 -106q0 -39 19 -61t69 -33.5t145 -13.5q111 3 204.5 22.5t146.5 49.5v155h112v-83
q0 -51 12 -77.5t44 -38t96 -11.5zM356.5 524q-16.5 16 -16.5 38q0 24 16 40t40 16q23 0 39 -16t16 -40q0 -22 -16.5 -38t-38.5 -16q-23 0 -39.5 16zM504.5 524q-16.5 16 -16.5 38q0 24 16 40t39 16q24 0 40 -16t16 -40q0 -22 -16.5 -38t-39.5 -16q-22 0 -38.5 16zM356.5 382
q-16.5 16 -16.5 39t16.5 39.5t39.5 16.5t39 -16.5t16 -39.5t-16 -39t-39 -16t-39.5 16zM504 382q-16 16 -16 39t16 39.5t39 16.5t39.5 -16.5t16.5 -39.5t-16.5 -39t-39.5 -16t-39 16z" />
    <glyph glyph-name="uniFB65" unicode="&#x67f;" horiz-adv-x="335" arabic-form="medial" 
d="M355 62l-20 -62q-63 0 -102.5 15t-64.5 53q-25 -38 -64 -53t-104 -15l-20 62l32 73q49 0 69.5 8.5t25.5 26.5t5 60v108h112v-107q0 -40 8.5 -59.5t34 -28t79.5 -8.5zM55.5 558q-16.5 16 -16.5 38q0 24 16 40t40 16q23 0 39 -16t16 -40q0 -22 -16.5 -38t-38.5 -16
q-23 0 -39.5 16zM203.5 558q-16.5 16 -16.5 38q0 24 16 40t39 16q24 0 40 -16t16 -40q0 -22 -16.5 -38t-39.5 -16q-22 0 -38.5 16zM55.5 416q-16.5 16 -16.5 39t16.5 39.5t39.5 16.5t39 -16.5t16 -39.5t-16 -39t-39 -16t-39.5 16zM203 416q-16 16 -16 39t16 39.5t39 16.5
t39.5 -16.5t16.5 -39.5t-16.5 -39t-39.5 -16t-39 16z" />
    <glyph glyph-name="uniFB64" unicode="&#x67f;" horiz-adv-x="312" arabic-form="initial" 
d="M98.5 141q28.5 6 39 20t10.5 42q0 53 -47 179l118 38q21 -60 32 -122.5t11 -109.5q0 -77 -24.5 -117t-80 -55.5t-157.5 -15.5l-20 62l31 73q59 0 87.5 6zM14.5 628q-16.5 16 -16.5 38q0 24 16 40t40 16q23 0 39 -16t16 -40q0 -22 -16.5 -38t-38.5 -16q-23 0 -39.5 16z
M162.5 628q-16.5 16 -16.5 38q0 24 16 40t39 16q24 0 40 -16t16 -40q0 -22 -16.5 -38t-39.5 -16q-22 0 -38.5 16zM14.5 486q-16.5 16 -16.5 39t16.5 39.5t39.5 16.5t39 -16.5t16 -39.5t-16 -39t-39 -16t-39.5 16zM162 486q-16 16 -16 39t16 39.5t39 16.5t39.5 -16.5
t16.5 -39.5t-16.5 -39t-39.5 -16t-39 16z" />
    <glyph glyph-name="uniFE9E" unicode="&#x62c;" horiz-adv-x="685" arabic-form="final" 
d="M274.5 144.5q-68.5 -39.5 -98.5 -92t-30 -103.5q0 -91 66.5 -136t187.5 -45q59 0 116 12.5t100 34.5l48 -118q-47 -30 -117.5 -48t-158.5 -18q-111 0 -188 38.5t-116.5 106t-39.5 155.5q0 141 96.5 238t283.5 128q-29 11 -55 24q-37 18 -65.5 26.5t-72.5 8.5
q-39 0 -73.5 -10.5t-59.5 -26.5l-58 111q42 26 92.5 40.5t101.5 14.5q45 0 83 -12t67 -29t72 -47q51 -37 88.5 -56.5t84.5 -25.5l-13 -112l-61 -3q7 -29 21.5 -42.5t41.5 -18t78 -4.5l9 -75l-20 -60q-99 0 -162 49t-72 146q-108 -11 -176.5 -50.5zM328.5 -93
q-18.5 19 -18.5 46q0 28 18.5 47t46.5 19t46.5 -19t18.5 -47q0 -27 -18.5 -46t-46.5 -19t-46.5 19z" />
    <glyph glyph-name="uniFEA0" unicode="&#x62c;" horiz-adv-x="733" arabic-form="medial" 
d="M753 60l-20 -60q-120 0 -184 45t-78 140q-42 -13 -82.5 -32.5t-97.5 -51.5q-92 -51 -155.5 -76t-135.5 -25l-20 62l31 73q74 0 131 18.5t140 57.5q63 30 106.5 47t95.5 28q-38 12 -87 34q-43 19 -75.5 28t-79.5 9q-62 0 -126 -37l-61 111q42 25 91 39.5t89 14.5
q58 0 100 -10.5t71.5 -26t68.5 -42.5q48 -34 91.5 -55.5t108.5 -36.5l-15 -110l-85 -3q6 -31 21.5 -44.5t47 -17.5t100.5 -4zM353.5 -148q-18.5 19 -18.5 46q0 28 18.5 47t46.5 19t46.5 -19t18.5 -47q0 -27 -18.5 -46t-46.5 -19t-46.5 19z" />
    <glyph glyph-name="uniFE9F" unicode="&#x62c;" horiz-adv-x="711" arabic-form="initial" 
d="M342.5 471.5q43.5 -13.5 72.5 -33.5t67 -54q47 -43 88 -69.5t105 -42.5l-15 -111l-102 -6q-70 -5 -130 -24.5t-141 -54.5q-90 -39 -151.5 -57.5t-135.5 -18.5l-20 62l31 73q67 0 124.5 15.5t143.5 46.5q62 23 105 36.5t91 21.5q-36 19 -74 47q-29 20 -47.5 30.5t-47 17.5
t-68.5 7q-62 0 -128 -37l-59 111q42 25 92 39.5t94 14.5q62 0 105.5 -13.5zM259.5 -198q-18.5 19 -18.5 46q0 28 18.5 47t46.5 19t46.5 -19t18.5 -47q0 -27 -18.5 -46t-46.5 -19t-46.5 19z" />
    <glyph glyph-name="uniFB7B" unicode="&#x686;" horiz-adv-x="685" arabic-form="final" 
d="M523 49q-63 49 -72 146q-108 -11 -176.5 -50.5t-98.5 -92t-30 -103.5q0 -91 66.5 -136t187.5 -45q59 0 116 12.5t100 34.5l48 -118q-47 -30 -117.5 -48t-158.5 -18q-111 0 -188 38.5t-116.5 106t-39.5 155.5q0 141 96.5 238t283.5 128q-29 11 -55 24q-37 18 -65.5 26.5
t-72.5 8.5q-39 0 -73.5 -10.5t-59.5 -26.5l-58 111q42 26 92.5 40.5t101.5 14.5q45 0 83 -12t67 -29t72 -47q51 -37 88.5 -56.5t84.5 -25.5l-13 -112l-61 -3q7 -29 21.5 -42.5t41.5 -18t78 -4.5l9 -75l-20 -60q-99 0 -162 49zM319.5 43.5q15.5 -15.5 15.5 -37.5
q0 -23 -15.5 -39t-37.5 -16q-23 0 -39 16t-16 39q0 22 16 37.5t39 15.5q22 0 37.5 -15.5zM483 -33q-16 -16 -39 -16q-21 0 -37 16t-16 39q0 22 16 37.5t37 15.5q23 0 39 -15.5t16 -37.5q0 -23 -16 -39zM325.5 -155q-15.5 16 -15.5 38t15.5 38t37.5 16t37.5 -16t15.5 -38
t-15.5 -38t-37.5 -16t-37.5 16z" />
    <glyph glyph-name="uniFB7D" unicode="&#x686;" horiz-adv-x="733" arabic-form="medial" 
d="M753 60l-20 -60q-120 0 -184 45t-78 140q-42 -13 -82.5 -32.5t-97.5 -51.5q-92 -51 -155.5 -76t-135.5 -25l-20 62l31 73q74 0 131 18.5t140 57.5q63 30 106.5 47t95.5 28q-38 12 -87 34q-43 19 -75.5 28t-79.5 9q-62 0 -126 -37l-61 111q42 25 91 39.5t89 14.5
q58 0 100 -10.5t71.5 -26t68.5 -42.5q48 -34 91.5 -55.5t108.5 -36.5l-15 -110l-85 -3q6 -31 21.5 -44.5t47 -17.5t100.5 -4zM353 -56q17 -17 17 -40q0 -24 -17 -41t-40 -17q-25 0 -42 16.5t-17 41.5q0 23 17 40t42 17q23 0 40 -17zM529 -56q17 -17 17 -40q0 -25 -17 -41.5
t-42 -16.5q-23 0 -40 17t-17 41q0 23 17 40t40 17q25 0 42 -17zM440 -187q17 -17 17 -41t-17 -40.5t-40 -16.5t-40 16.5t-17 40.5t17 41t40 17t40 -17z" />
    <glyph glyph-name="uniFB7C" unicode="&#x686;" horiz-adv-x="711" arabic-form="initial" 
d="M342.5 471.5q43.5 -13.5 72.5 -33.5t67 -54q47 -43 88 -69.5t105 -42.5l-15 -111l-102 -6q-70 -5 -130 -24.5t-141 -54.5q-90 -39 -151.5 -57.5t-135.5 -18.5l-20 62l31 73q67 0 124.5 15.5t143.5 46.5q62 23 105 36.5t91 21.5q-36 19 -74 47q-29 20 -47.5 30.5t-47 17.5
t-68.5 7q-62 0 -128 -37l-59 111q42 25 92 39.5t94 14.5q62 0 105.5 -13.5zM259 -106q17 -17 17 -40q0 -24 -17 -41t-40 -17q-25 0 -42 16.5t-17 41.5q0 23 17 40t42 17q23 0 40 -17zM435 -106q17 -17 17 -40q0 -25 -17 -41.5t-42 -16.5q-23 0 -40 17t-17 41q0 23 17 40
t40 17q25 0 42 -17zM346 -237q17 -17 17 -41t-17 -40.5t-40 -16.5t-40 16.5t-17 40.5t17 41t40 17t40 -17z" />
    <glyph glyph-name="uniFB7F" unicode="&#x687;" horiz-adv-x="685" arabic-form="final" 
d="M523 49q-63 49 -72 146q-108 -11 -176.5 -50.5t-98.5 -92t-30 -103.5q0 -91 66.5 -136t187.5 -45q59 0 116 12.5t100 34.5l48 -118q-47 -30 -117.5 -48t-158.5 -18q-111 0 -188 38.5t-116.5 106t-39.5 155.5q0 141 96.5 238t283.5 128q-29 11 -55 24q-37 18 -65.5 26.5
t-72.5 8.5q-39 0 -73.5 -10.5t-59.5 -26.5l-58 111q42 26 92.5 40.5t101.5 14.5q45 0 83 -12t67 -29t72 -47q51 -37 88.5 -56.5t84.5 -25.5l-13 -112l-61 -3q7 -29 21.5 -42.5t41.5 -18t78 -4.5l9 -75l-20 -60q-99 0 -162 49zM343.5 67q15.5 -15 15.5 -38q0 -20 -15.5 -35
t-36.5 -15t-36.5 15t-15.5 35q0 23 15.5 38t36.5 15t36.5 -15zM481 67q15 -15 15 -38q0 -20 -15 -35t-37 -15q-21 0 -36 15t-15 35q0 23 15 38t36 15q22 0 37 -15zM343.5 -65q15.5 -15 15.5 -36q0 -22 -15.5 -37t-36.5 -15t-36.5 15t-15.5 37q0 21 15.5 36t36.5 15t36.5 -15
zM481 -65q15 -15 15 -36q0 -22 -15 -37t-37 -15q-21 0 -36 15t-15 37q0 21 15 36t36 15q22 0 37 -15z" />
    <glyph glyph-name="uniFB81" unicode="&#x687;" horiz-adv-x="733" arabic-form="medial" 
d="M753 60l-20 -60q-120 0 -184 45t-78 140q-42 -13 -82.5 -32.5t-97.5 -51.5q-92 -51 -155.5 -76t-135.5 -25l-20 62l31 73q74 0 131 18.5t140 57.5q63 30 106.5 47t95.5 28q-38 12 -87 34q-43 19 -75.5 28t-79.5 9q-62 0 -126 -37l-61 111q42 25 91 39.5t89 14.5
q58 0 100 -10.5t71.5 -26t68.5 -42.5q48 -34 91.5 -55.5t108.5 -36.5l-15 -110l-85 -3q6 -31 21.5 -44.5t47 -17.5t100.5 -4zM286.5 -121q-16.5 16 -16.5 39q0 24 16.5 40t39.5 16t39 -16t16 -40q0 -23 -16 -39t-39 -16t-39.5 16zM434.5 -121q-16.5 16 -16.5 39q0 24 16 40
t39 16t39.5 -16t16.5 -40q0 -23 -16.5 -39t-39.5 -16q-22 0 -38.5 16zM286.5 -262.5q-16.5 16.5 -16.5 39.5t16.5 39.5t39.5 16.5t39 -16.5t16 -39.5t-16 -39.5t-39 -16.5t-39.5 16.5zM434 -262.5q-16 16.5 -16 39.5t16 39.5t39 16.5t39.5 -16.5t16.5 -39.5t-16.5 -39.5
t-39.5 -16.5t-39 16.5z" />
    <glyph glyph-name="uniFB80" unicode="&#x687;" horiz-adv-x="711" arabic-form="initial" 
d="M342.5 471.5q43.5 -13.5 72.5 -33.5t67 -54q47 -43 88 -69.5t105 -42.5l-15 -111l-102 -6q-70 -5 -130 -24.5t-141 -54.5q-90 -39 -151.5 -57.5t-135.5 -18.5l-20 62l31 73q67 0 124.5 15.5t143.5 46.5q62 23 105 36.5t91 21.5q-36 19 -74 47q-29 20 -47.5 30.5t-47 17.5
t-68.5 7q-62 0 -128 -37l-59 111q42 25 92 39.5t94 14.5q62 0 105.5 -13.5zM192.5 -171q-16.5 16 -16.5 39q0 24 16.5 40t39.5 16t39 -16t16 -40q0 -23 -16 -39t-39 -16t-39.5 16zM340.5 -171q-16.5 16 -16.5 39q0 24 16 40t39 16t39.5 -16t16.5 -40q0 -23 -16.5 -39
t-39.5 -16q-22 0 -38.5 16zM192.5 -312.5q-16.5 16.5 -16.5 39.5t16.5 39.5t39.5 16.5t39 -16.5t16 -39.5t-16 -39.5t-39 -16.5t-39.5 16.5zM340 -312.5q-16 16.5 -16 39.5t16 39.5t39 16.5t39.5 -16.5t16.5 -39.5t-16.5 -39.5t-39.5 -16.5t-39 16.5z" />
    <glyph glyph-name="uni06BF.init" unicode="&#x6bf;" horiz-adv-x="711" 
d="M342.5 471.5q43.5 -13.5 72.5 -33.5t67 -54q47 -43 88 -69.5t105 -42.5l-15 -111l-102 -6q-70 -5 -130 -24.5t-141 -54.5q-90 -39 -151.5 -57.5t-135.5 -18.5l-20 62l31 73q67 0 124.5 15.5t143.5 46.5q62 23 105 36.5t91 21.5q-36 19 -74 47q-29 20 -47.5 30.5t-47 17.5
t-68.5 7q-62 0 -128 -37l-59 111q42 25 92 39.5t94 14.5q62 0 105.5 -13.5zM259 -106q17 -17 17 -40q0 -24 -17 -41t-40 -17q-25 0 -42 16.5t-17 41.5q0 23 17 40t42 17q23 0 40 -17zM435 -106q17 -17 17 -40q0 -25 -17 -41.5t-42 -16.5q-23 0 -40 17t-17 41q0 23 17 40
t40 17q25 0 42 -17zM346 -237q17 -17 17 -41t-17 -40.5t-40 -16.5t-40 16.5t-17 40.5t17 41t40 17t40 -17zM189.5 572q-18.5 19 -18.5 46q0 28 18.5 47t46.5 19t46.5 -19t18.5 -47q0 -27 -18.5 -46t-46.5 -19t-46.5 19z" />
    <glyph glyph-name="uni06BF.medi" unicode="&#x6bf;" horiz-adv-x="733" 
d="M753 60l-20 -60q-120 0 -184 45t-78 140q-42 -13 -82.5 -32.5t-97.5 -51.5q-92 -51 -155.5 -76t-135.5 -25l-20 62l31 73q74 0 131 18.5t140 57.5q63 30 106.5 47t95.5 28q-38 12 -87 34q-43 19 -75.5 28t-79.5 9q-62 0 -126 -37l-61 111q42 25 91 39.5t89 14.5
q58 0 100 -10.5t71.5 -26t68.5 -42.5q48 -34 91.5 -55.5t108.5 -36.5l-15 -110l-85 -3q6 -31 21.5 -44.5t47 -17.5t100.5 -4zM353 -56q17 -17 17 -40q0 -24 -17 -41t-40 -17q-25 0 -42 16.5t-17 41.5q0 23 17 40t42 17q23 0 40 -17zM529 -56q17 -17 17 -40q0 -25 -17 -41.5
t-42 -16.5q-23 0 -40 17t-17 41q0 23 17 40t40 17q25 0 42 -17zM440 -187q17 -17 17 -41t-17 -40.5t-40 -16.5t-40 16.5t-17 40.5t17 41t40 17t40 -17zM187.5 572q-18.5 19 -18.5 46q0 28 18.5 47t46.5 19t46.5 -19t18.5 -47q0 -27 -18.5 -46t-46.5 -19t-46.5 19z" />
    <glyph glyph-name="uni06BF.fina" unicode="&#x6bf;" horiz-adv-x="685" 
d="M523 49q-63 49 -72 146q-108 -11 -176.5 -50.5t-98.5 -92t-30 -103.5q0 -91 66.5 -136t187.5 -45q59 0 116 12.5t100 34.5l48 -118q-47 -30 -117.5 -48t-158.5 -18q-111 0 -188 38.5t-116.5 106t-39.5 155.5q0 141 96.5 238t283.5 128q-29 11 -55 24q-37 18 -65.5 26.5
t-72.5 8.5q-39 0 -73.5 -10.5t-59.5 -26.5l-58 111q42 26 92.5 40.5t101.5 14.5q45 0 83 -12t67 -29t72 -47q51 -37 88.5 -56.5t84.5 -25.5l-13 -112l-61 -3q7 -29 21.5 -42.5t41.5 -18t78 -4.5l9 -75l-20 -60q-99 0 -162 49zM319.5 43.5q15.5 -15.5 15.5 -37.5
q0 -23 -15.5 -39t-37.5 -16q-23 0 -39 16t-16 39q0 22 16 37.5t39 15.5q22 0 37.5 -15.5zM483 -33q-16 -16 -39 -16q-21 0 -37 16t-16 39q0 22 16 37.5t37 15.5q23 0 39 -15.5t16 -37.5q0 -23 -16 -39zM325.5 -155q-15.5 16 -15.5 38t15.5 38t37.5 16t37.5 -16t15.5 -38
t-15.5 -38t-37.5 -16t-37.5 16zM187.5 572q-18.5 19 -18.5 46q0 28 18.5 47t46.5 19t46.5 -19t18.5 -47q0 -27 -18.5 -46t-46.5 -19t-46.5 19z" />
    <glyph glyph-name="uniFB77" unicode="&#x683;" horiz-adv-x="685" arabic-form="final" 
d="M274.5 144.5q-68.5 -39.5 -98.5 -92t-30 -103.5q0 -91 66.5 -136t187.5 -45q59 0 116 12.5t100 34.5l48 -118q-47 -30 -117.5 -48t-158.5 -18q-111 0 -188 38.5t-116.5 106t-39.5 155.5q0 141 96.5 238t283.5 128q-29 11 -55 24q-37 18 -65.5 26.5t-72.5 8.5
q-39 0 -73.5 -10.5t-59.5 -26.5l-58 111q42 26 92.5 40.5t101.5 14.5q45 0 83 -12t67 -29t72 -47q51 -37 88.5 -56.5t84.5 -25.5l-13 -112l-61 -3q7 -29 21.5 -42.5t41.5 -18t78 -4.5l9 -75l-20 -60q-99 0 -162 49t-72 146q-108 -11 -176.5 -50.5zM251 -85q-18 18 -18 43
t18 42.5t42 17.5q25 0 43 -17.5t18 -42.5t-18 -43t-43 -18q-24 0 -42 18zM413.5 -85q-17.5 18 -17.5 43t17.5 42.5t42.5 17.5t42.5 -17.5t17.5 -42.5t-17.5 -43t-42.5 -18t-42.5 18z" />
    <glyph glyph-name="uniFB79" unicode="&#x683;" horiz-adv-x="733" arabic-form="medial" 
d="M753 60l-20 -60q-120 0 -184 45t-78 140q-42 -13 -82.5 -32.5t-97.5 -51.5q-92 -51 -155.5 -76t-135.5 -25l-20 62l31 73q74 0 131 18.5t140 57.5q63 30 106.5 47t95.5 28q-38 12 -87 34q-43 19 -75.5 28t-79.5 9q-62 0 -126 -37l-61 111q42 25 91 39.5t89 14.5
q58 0 100 -10.5t71.5 -26t68.5 -42.5q48 -34 91.5 -55.5t108.5 -36.5l-15 -110l-85 -3q6 -31 21.5 -44.5t47 -17.5t100.5 -4zM276 -135.5q-18 17.5 -18 42.5t18 42.5t42 17.5q25 0 43 -17.5t18 -42.5t-18 -42.5t-43 -17.5q-24 0 -42 17.5zM438.5 -135.5
q-17.5 17.5 -17.5 42.5t17.5 42.5t42.5 17.5t42.5 -17.5t17.5 -42.5t-17.5 -42.5t-42.5 -17.5t-42.5 17.5z" />
    <glyph glyph-name="uniFB78" unicode="&#x683;" horiz-adv-x="711" arabic-form="initial" 
d="M342.5 471.5q43.5 -13.5 72.5 -33.5t67 -54q47 -43 88 -69.5t105 -42.5l-15 -111l-102 -6q-70 -5 -130 -24.5t-141 -54.5q-90 -39 -151.5 -57.5t-135.5 -18.5l-20 62l31 73q67 0 124.5 15.5t143.5 46.5q62 23 105 36.5t91 21.5q-36 19 -74 47q-29 20 -47.5 30.5t-47 17.5
t-68.5 7q-62 0 -128 -37l-59 111q42 25 92 39.5t94 14.5q62 0 105.5 -13.5zM182 -185.5q-18 17.5 -18 42.5t18 42.5t42 17.5q25 0 43 -17.5t18 -42.5t-18 -42.5t-43 -17.5q-24 0 -42 17.5zM344.5 -185.5q-17.5 17.5 -17.5 42.5t17.5 42.5t42.5 17.5t42.5 -17.5t17.5 -42.5
t-17.5 -42.5t-42.5 -17.5t-42.5 17.5z" />
    <glyph glyph-name="uniFB73" unicode="&#x684;" horiz-adv-x="685" arabic-form="final" 
d="M274.5 144.5q-68.5 -39.5 -98.5 -92t-30 -103.5q0 -91 66.5 -136t187.5 -45q59 0 116 12.5t100 34.5l48 -118q-47 -30 -117.5 -48t-158.5 -18q-111 0 -188 38.5t-116.5 106t-39.5 155.5q0 141 96.5 238t283.5 128q-29 11 -55 24q-37 18 -65.5 26.5t-72.5 8.5
q-39 0 -73.5 -10.5t-59.5 -26.5l-58 111q42 26 92.5 40.5t101.5 14.5q45 0 83 -12t67 -29t72 -47q51 -37 88.5 -56.5t84.5 -25.5l-13 -112l-61 -3q7 -29 21.5 -42.5t41.5 -18t78 -4.5l9 -75l-20 -60q-99 0 -162 49t-72 146q-108 -11 -176.5 -50.5zM334.5 -22.5
q-17.5 17.5 -17.5 42.5q0 26 17.5 43t42.5 17t42.5 -17.5t17.5 -42.5t-17.5 -42.5t-42.5 -17.5t-42.5 17.5zM334.5 -178.5q-17.5 17.5 -17.5 42.5t17.5 42.5t42.5 17.5t43 -17.5t18 -42.5t-18 -42.5t-43 -17.5t-42.5 17.5z" />
    <glyph glyph-name="uniFB75" unicode="&#x684;" horiz-adv-x="733" arabic-form="medial" 
d="M753 60l-20 -60q-120 0 -184 45t-78 140q-42 -13 -82.5 -32.5t-97.5 -51.5q-92 -51 -155.5 -76t-135.5 -25l-20 62l31 73q74 0 131 18.5t140 57.5q63 30 106.5 47t95.5 28q-38 12 -87 34q-43 19 -75.5 28t-79.5 9q-62 0 -126 -37l-61 111q42 25 91 39.5t89 14.5
q58 0 100 -10.5t71.5 -26t68.5 -42.5q48 -34 91.5 -55.5t108.5 -36.5l-15 -110l-85 -3q6 -31 21.5 -44.5t47 -17.5t100.5 -4zM357.5 -125q-17.5 18 -17.5 43t17.5 42.5t42.5 17.5t42.5 -17.5t17.5 -42.5q0 -26 -17.5 -43.5t-42.5 -17.5t-42.5 18zM358.5 -281.5
q-17.5 17.5 -17.5 42.5t17.5 43t42.5 18t42.5 -18t17.5 -43t-17.5 -42.5t-42.5 -17.5t-42.5 17.5z" />
    <glyph glyph-name="uniFB74" unicode="&#x684;" horiz-adv-x="711" arabic-form="initial" 
d="M342.5 471.5q43.5 -13.5 72.5 -33.5t67 -54q47 -43 88 -69.5t105 -42.5l-15 -111l-102 -6q-70 -5 -130 -24.5t-141 -54.5q-90 -39 -151.5 -57.5t-135.5 -18.5l-20 62l31 73q67 0 124.5 15.5t143.5 46.5q62 23 105 36.5t91 21.5q-36 19 -74 47q-29 20 -47.5 30.5t-47 17.5
t-68.5 7q-62 0 -128 -37l-59 111q42 25 92 39.5t94 14.5q62 0 105.5 -13.5zM263.5 -175q-17.5 18 -17.5 43t17.5 42.5t42.5 17.5t42.5 -17.5t17.5 -42.5q0 -26 -17.5 -43.5t-42.5 -17.5t-42.5 18zM264.5 -331.5q-17.5 17.5 -17.5 42.5t17.5 43t42.5 18t42.5 -18t17.5 -43
t-17.5 -42.5t-42.5 -17.5t-42.5 17.5z" />
    <glyph glyph-name="uniFEA2" unicode="&#x62d;" horiz-adv-x="685" arabic-form="final" 
d="M274.5 144.5q-68.5 -39.5 -98.5 -92t-30 -103.5q0 -91 66.5 -136t187.5 -45q59 0 116 12.5t100 34.5l48 -118q-47 -30 -117.5 -48t-158.5 -18q-111 0 -188 38.5t-116.5 106t-39.5 155.5q0 141 96.5 238t283.5 128q-29 11 -55 24q-37 18 -65.5 26.5t-72.5 8.5
q-39 0 -73.5 -10.5t-59.5 -26.5l-58 111q42 26 92.5 40.5t101.5 14.5q45 0 83 -12t67 -29t72 -47q51 -37 88.5 -56.5t84.5 -25.5l-13 -112l-61 -3q7 -29 21.5 -42.5t41.5 -18t78 -4.5l9 -75l-20 -60q-99 0 -162 49t-72 146q-108 -11 -176.5 -50.5z" />
    <glyph glyph-name="uniFEA4" unicode="&#x62d;" horiz-adv-x="733" arabic-form="medial" 
d="M753 60l-20 -60q-120 0 -184 45t-78 140q-42 -13 -82.5 -32.5t-97.5 -51.5q-92 -51 -155.5 -76t-135.5 -25l-20 62l31 73q74 0 131 18.5t140 57.5q63 30 106.5 47t95.5 28q-38 12 -87 34q-43 19 -75.5 28t-79.5 9q-62 0 -126 -37l-61 111q42 25 91 39.5t89 14.5
q58 0 100 -10.5t71.5 -26t68.5 -42.5q48 -34 91.5 -55.5t108.5 -36.5l-15 -110l-85 -3q6 -31 21.5 -44.5t47 -17.5t100.5 -4z" />
    <glyph glyph-name="uniFEA3" unicode="&#x62d;" horiz-adv-x="711" arabic-form="initial" 
d="M342.5 471.5q43.5 -13.5 72.5 -33.5t67 -54q47 -43 88 -69.5t105 -42.5l-15 -111l-102 -6q-70 -5 -130 -24.5t-141 -54.5q-90 -39 -151.5 -57.5t-135.5 -18.5l-20 62l31 73q67 0 124.5 15.5t143.5 46.5q62 23 105 36.5t91 21.5q-36 19 -74 47q-29 20 -47.5 30.5t-47 17.5
t-68.5 7q-62 0 -128 -37l-59 111q42 25 92 39.5t94 14.5q62 0 105.5 -13.5z" />
    <glyph glyph-name="uni0681.init" unicode="&#x681;" horiz-adv-x="711" 
d="M342.5 471.5q43.5 -13.5 72.5 -33.5t67 -54q47 -43 88 -69.5t105 -42.5l-15 -111l-102 -6q-70 -5 -130 -24.5t-141 -54.5q-90 -39 -151.5 -57.5t-135.5 -18.5l-20 62l31 73q67 0 124.5 15.5t143.5 46.5q62 23 105 36.5t91 21.5q-36 19 -74 47q-29 20 -47.5 30.5t-47 17.5
t-68.5 7q-62 0 -128 -37l-59 111q42 25 92 39.5t94 14.5q62 0 105.5 -13.5zM350 563l-224 -36l-8 66l62 10q-36 33 -36 66q0 39 27.5 64.5t79.5 25.5q41 0 85 -26l-40 -62q-24 15 -45 15q-16 0 -24 -8.5t-8 -18.5q0 -19 27 -45l93 16z" />
    <glyph glyph-name="uni0681.medi" unicode="&#x681;" horiz-adv-x="733" 
d="M753 60l-20 -60q-120 0 -184 45t-78 140q-42 -13 -82.5 -32.5t-97.5 -51.5q-92 -51 -155.5 -76t-135.5 -25l-20 62l31 73q74 0 131 18.5t140 57.5q63 30 106.5 47t95.5 28q-38 12 -87 34q-43 19 -75.5 28t-79.5 9q-62 0 -126 -37l-61 111q42 25 91 39.5t89 14.5
q58 0 100 -10.5t71.5 -26t68.5 -42.5q48 -34 91.5 -55.5t108.5 -36.5l-15 -110l-85 -3q6 -31 21.5 -44.5t47 -17.5t100.5 -4zM348 563l-224 -36l-8 66l62 10q-36 33 -36 66q0 39 27.5 64.5t79.5 25.5q41 0 85 -26l-40 -62q-24 15 -45 15q-16 0 -24 -8.5t-8 -18.5
q0 -19 27 -45l93 16z" />
    <glyph glyph-name="uni0681.fina" unicode="&#x681;" horiz-adv-x="685" 
d="M274.5 144.5q-68.5 -39.5 -98.5 -92t-30 -103.5q0 -91 66.5 -136t187.5 -45q59 0 116 12.5t100 34.5l48 -118q-47 -30 -117.5 -48t-158.5 -18q-111 0 -188 38.5t-116.5 106t-39.5 155.5q0 141 96.5 238t283.5 128q-29 11 -55 24q-37 18 -65.5 26.5t-72.5 8.5
q-39 0 -73.5 -10.5t-59.5 -26.5l-58 111q42 26 92.5 40.5t101.5 14.5q45 0 83 -12t67 -29t72 -47q51 -37 88.5 -56.5t84.5 -25.5l-13 -112l-61 -3q7 -29 21.5 -42.5t41.5 -18t78 -4.5l9 -75l-20 -60q-99 0 -162 49t-72 146q-108 -11 -176.5 -50.5zM348 563l-224 -36l-8 66
l62 10q-36 33 -36 66q0 39 27.5 64.5t79.5 25.5q41 0 85 -26l-40 -62q-24 15 -45 15q-16 0 -24 -8.5t-8 -18.5q0 -19 27 -45l93 16z" />
    <glyph glyph-name="uni0682.init" unicode="&#x682;" horiz-adv-x="711" 
d="M342.5 471.5q43.5 -13.5 72.5 -33.5t67 -54q47 -43 88 -69.5t105 -42.5l-15 -111l-102 -6q-70 -5 -130 -24.5t-141 -54.5q-90 -39 -151.5 -57.5t-135.5 -18.5l-20 62l31 73q67 0 124.5 15.5t143.5 46.5q62 23 105 36.5t91 21.5q-36 19 -74 47q-29 20 -47.5 30.5t-47 17.5
t-68.5 7q-62 0 -128 -37l-59 111q42 25 92 39.5t94 14.5q62 0 105.5 -13.5zM194.5 714q-17.5 18 -17.5 43t17.5 42.5t42.5 17.5t42.5 -17.5t17.5 -42.5q0 -26 -17.5 -43.5t-42.5 -17.5t-42.5 18zM195.5 557.5q-17.5 17.5 -17.5 42.5t17.5 43t42.5 18t42.5 -18t17.5 -43
t-17.5 -42.5t-42.5 -17.5t-42.5 17.5z" />
    <glyph glyph-name="uni0682.medi" unicode="&#x682;" horiz-adv-x="733" 
d="M753 60l-20 -60q-120 0 -184 45t-78 140q-42 -13 -82.5 -32.5t-97.5 -51.5q-92 -51 -155.5 -76t-135.5 -25l-20 62l31 73q74 0 131 18.5t140 57.5q63 30 106.5 47t95.5 28q-38 12 -87 34q-43 19 -75.5 28t-79.5 9q-62 0 -126 -37l-61 111q42 25 91 39.5t89 14.5
q58 0 100 -10.5t71.5 -26t68.5 -42.5q48 -34 91.5 -55.5t108.5 -36.5l-15 -110l-85 -3q6 -31 21.5 -44.5t47 -17.5t100.5 -4zM192.5 714q-17.5 18 -17.5 43t17.5 42.5t42.5 17.5t42.5 -17.5t17.5 -42.5q0 -26 -17.5 -43.5t-42.5 -17.5t-42.5 18zM193.5 557.5
q-17.5 17.5 -17.5 42.5t17.5 43t42.5 18t42.5 -18t17.5 -43t-17.5 -42.5t-42.5 -17.5t-42.5 17.5z" />
    <glyph glyph-name="uni0682.fina" unicode="&#x682;" horiz-adv-x="685" 
d="M274.5 144.5q-68.5 -39.5 -98.5 -92t-30 -103.5q0 -91 66.5 -136t187.5 -45q59 0 116 12.5t100 34.5l48 -118q-47 -30 -117.5 -48t-158.5 -18q-111 0 -188 38.5t-116.5 106t-39.5 155.5q0 141 96.5 238t283.5 128q-29 11 -55 24q-37 18 -65.5 26.5t-72.5 8.5
q-39 0 -73.5 -10.5t-59.5 -26.5l-58 111q42 26 92.5 40.5t101.5 14.5q45 0 83 -12t67 -29t72 -47q51 -37 88.5 -56.5t84.5 -25.5l-13 -112l-61 -3q7 -29 21.5 -42.5t41.5 -18t78 -4.5l9 -75l-20 -60q-99 0 -162 49t-72 146q-108 -11 -176.5 -50.5zM192.5 714
q-17.5 18 -17.5 43t17.5 42.5t42.5 17.5t42.5 -17.5t17.5 -42.5q0 -26 -17.5 -43.5t-42.5 -17.5t-42.5 18zM193.5 557.5q-17.5 17.5 -17.5 42.5t17.5 43t42.5 18t42.5 -18t17.5 -43t-17.5 -42.5t-42.5 -17.5t-42.5 17.5z" />
    <glyph glyph-name="uni0685.init" unicode="&#x685;" horiz-adv-x="711" 
d="M342.5 471.5q43.5 -13.5 72.5 -33.5t67 -54q47 -43 88 -69.5t105 -42.5l-15 -111l-102 -6q-70 -5 -130 -24.5t-141 -54.5q-90 -39 -151.5 -57.5t-135.5 -18.5l-20 62l31 73q67 0 124.5 15.5t143.5 46.5q62 23 105 36.5t91 21.5q-36 19 -74 47q-29 20 -47.5 30.5t-47 17.5
t-68.5 7q-62 0 -128 -37l-59 111q42 25 92 39.5t94 14.5q62 0 105.5 -13.5zM197 704q-17 17 -17 41t17 41t40 17t40 -17t17 -41t-17 -41t-40 -17t-40 17zM108 573q-17 17 -17 40q0 25 17 42t42 17q23 0 40 -17.5t17 -41.5q0 -23 -17 -40t-40 -17q-25 0 -42 17zM284 573
q-17 17 -17 40q0 24 17 41.5t40 17.5q25 0 42 -17t17 -42q0 -23 -17 -40t-42 -17q-23 0 -40 17z" />
    <glyph glyph-name="uni0685.medi" unicode="&#x685;" horiz-adv-x="733" 
d="M753 60l-20 -60q-120 0 -184 45t-78 140q-42 -13 -82.5 -32.5t-97.5 -51.5q-92 -51 -155.5 -76t-135.5 -25l-20 62l31 73q74 0 131 18.5t140 57.5q63 30 106.5 47t95.5 28q-38 12 -87 34q-43 19 -75.5 28t-79.5 9q-62 0 -126 -37l-61 111q42 25 91 39.5t89 14.5
q58 0 100 -10.5t71.5 -26t68.5 -42.5q48 -34 91.5 -55.5t108.5 -36.5l-15 -110l-85 -3q6 -31 21.5 -44.5t47 -17.5t100.5 -4zM195 704q-17 17 -17 41t17 41t40 17t40 -17t17 -41t-17 -41t-40 -17t-40 17zM106 573q-17 17 -17 40q0 25 17 42t42 17q23 0 40 -17.5t17 -41.5
q0 -23 -17 -40t-40 -17q-25 0 -42 17zM282 573q-17 17 -17 40q0 24 17 41.5t40 17.5q25 0 42 -17t17 -42q0 -23 -17 -40t-42 -17q-23 0 -40 17z" />
    <glyph glyph-name="uni0685.fina" unicode="&#x685;" horiz-adv-x="685" 
d="M274.5 144.5q-68.5 -39.5 -98.5 -92t-30 -103.5q0 -91 66.5 -136t187.5 -45q59 0 116 12.5t100 34.5l48 -118q-47 -30 -117.5 -48t-158.5 -18q-111 0 -188 38.5t-116.5 106t-39.5 155.5q0 141 96.5 238t283.5 128q-29 11 -55 24q-37 18 -65.5 26.5t-72.5 8.5
q-39 0 -73.5 -10.5t-59.5 -26.5l-58 111q42 26 92.5 40.5t101.5 14.5q45 0 83 -12t67 -29t72 -47q51 -37 88.5 -56.5t84.5 -25.5l-13 -112l-61 -3q7 -29 21.5 -42.5t41.5 -18t78 -4.5l9 -75l-20 -60q-99 0 -162 49t-72 146q-108 -11 -176.5 -50.5zM195 704q-17 17 -17 41
t17 41t40 17t40 -17t17 -41t-17 -41t-40 -17t-40 17zM106 573q-17 17 -17 40q0 25 17 42t42 17q23 0 40 -17.5t17 -41.5q0 -23 -17 -40t-40 -17q-25 0 -42 17zM282 573q-17 17 -17 40q0 24 17 41.5t40 17.5q25 0 42 -17t17 -42q0 -23 -17 -40t-42 -17q-23 0 -40 17z" />
    <glyph glyph-name="uniFEA6" unicode="&#x62e;" horiz-adv-x="685" arabic-form="final" 
d="M274.5 144.5q-68.5 -39.5 -98.5 -92t-30 -103.5q0 -91 66.5 -136t187.5 -45q59 0 116 12.5t100 34.5l48 -118q-47 -30 -117.5 -48t-158.5 -18q-111 0 -188 38.5t-116.5 106t-39.5 155.5q0 141 96.5 238t283.5 128q-29 11 -55 24q-37 18 -65.5 26.5t-72.5 8.5
q-39 0 -73.5 -10.5t-59.5 -26.5l-58 111q42 26 92.5 40.5t101.5 14.5q45 0 83 -12t67 -29t72 -47q51 -37 88.5 -56.5t84.5 -25.5l-13 -112l-61 -3q7 -29 21.5 -42.5t41.5 -18t78 -4.5l9 -75l-20 -60q-99 0 -162 49t-72 146q-108 -11 -176.5 -50.5zM187.5 572
q-18.5 19 -18.5 46q0 28 18.5 47t46.5 19t46.5 -19t18.5 -47q0 -27 -18.5 -46t-46.5 -19t-46.5 19z" />
    <glyph glyph-name="uniFEA8" unicode="&#x62e;" horiz-adv-x="733" arabic-form="medial" 
d="M753 60l-20 -60q-120 0 -184 45t-78 140q-42 -13 -82.5 -32.5t-97.5 -51.5q-92 -51 -155.5 -76t-135.5 -25l-20 62l31 73q74 0 131 18.5t140 57.5q63 30 106.5 47t95.5 28q-38 12 -87 34q-43 19 -75.5 28t-79.5 9q-62 0 -126 -37l-61 111q42 25 91 39.5t89 14.5
q58 0 100 -10.5t71.5 -26t68.5 -42.5q48 -34 91.5 -55.5t108.5 -36.5l-15 -110l-85 -3q6 -31 21.5 -44.5t47 -17.5t100.5 -4zM187.5 572q-18.5 19 -18.5 46q0 28 18.5 47t46.5 19t46.5 -19t18.5 -47q0 -27 -18.5 -46t-46.5 -19t-46.5 19z" />
    <glyph glyph-name="uniFEA7" unicode="&#x62e;" horiz-adv-x="711" arabic-form="initial" 
d="M342.5 471.5q43.5 -13.5 72.5 -33.5t67 -54q47 -43 88 -69.5t105 -42.5l-15 -111l-102 -6q-70 -5 -130 -24.5t-141 -54.5q-90 -39 -151.5 -57.5t-135.5 -18.5l-20 62l31 73q67 0 124.5 15.5t143.5 46.5q62 23 105 36.5t91 21.5q-36 19 -74 47q-29 20 -47.5 30.5t-47 17.5
t-68.5 7q-62 0 -128 -37l-59 111q42 25 92 39.5t94 14.5q62 0 105.5 -13.5zM189.5 572q-18.5 19 -18.5 46q0 28 18.5 47t46.5 19t46.5 -19t18.5 -47q0 -27 -18.5 -46t-46.5 -19t-46.5 19z" />
    <glyph glyph-name="uniFEAA" unicode="&#x62f;" horiz-adv-x="532" arabic-form="final" 
d="M552 63l-20 -63q-46 0 -87 22.5t-65 59.5q-51 -96 -202 -96q-86 0 -156 21l37 132q68 -17 129 -17q47 0 81.5 11t65.5 36l-148 310l124 56l109 -287q17 -47 32 -70.5t35.5 -33t55.5 -9.5z" />
    <glyph glyph-name="uniFEAC" unicode="&#x630;" horiz-adv-x="532" arabic-form="final" 
d="M552 63l-20 -63q-46 0 -87 22.5t-65 59.5q-51 -96 -202 -96q-86 0 -156 21l37 132q68 -17 129 -17q47 0 81.5 11t65.5 36l-148 310l124 56l109 -287q17 -47 32 -70.5t35.5 -33t55.5 -9.5zM172.5 615q-18.5 19 -18.5 46q0 28 18.5 47t46.5 19t46.5 -19t18.5 -47
q0 -27 -18.5 -46t-46.5 -19t-46.5 19z" />
    <glyph glyph-name="uniFC5B" unicode="&#xfc5b;" horiz-adv-x="478" arabic-form="isolated" 
d="M88 -10.5q-42 6.5 -66 15.5l37 133q60 -18 128 -18q53 0 99 17t46 51q0 91 -193 265l107 87q73 -76 132 -170.5t59 -193.5q0 -77 -44.5 -120t-103 -58t-112.5 -15q-47 0 -89 6.5zM125.5 613q-18.5 19 -18.5 46q0 28 18.5 47t46.5 19t46.5 -19t18.5 -47q0 -27 -18.5 -46
t-46.5 -19t-46.5 19zM209 979v-188h-73v179z" />
    <glyph glyph-name="uniFB89" unicode="&#x688;" horiz-adv-x="532" arabic-form="final" 
d="M552 63l-20 -63q-46 0 -87 22.5t-65 59.5q-51 -96 -202 -96q-86 0 -156 21l37 132q68 -17 129 -17q47 0 81.5 11t65.5 36l-148 310l124 56l109 -287q17 -47 32 -70.5t35.5 -33t55.5 -9.5zM325 753q21 -26 21 -66q0 -32 -24.5 -60t-76.5 -28h-155l7 62h33v152h61v-70
q19 20 37 28t38 8q38 0 59 -26zM276 668q12 7 12 22q0 26 -29 26q-40 0 -84 -55h60q29 0 41 7z" />
    <glyph glyph-name="uniFB85" unicode="&#x68c;" horiz-adv-x="532" arabic-form="final" 
d="M552 63l-20 -63q-46 0 -87 22.5t-65 59.5q-51 -96 -202 -96q-86 0 -156 21l37 132q68 -17 129 -17q47 0 81.5 11t65.5 36l-148 310l124 56l109 -287q17 -47 32 -70.5t35.5 -33t55.5 -9.5zM96 627q-18 18 -18 43t18 42.5t42 17.5q25 0 43 -17.5t18 -42.5t-18 -43t-43 -18
q-24 0 -42 18zM258.5 627q-17.5 18 -17.5 43t17.5 42.5t42.5 17.5t42.5 -17.5t17.5 -42.5t-17.5 -43t-42.5 -18t-42.5 18z" />
    <glyph glyph-name="uniFB83" unicode="&#x68d;" horiz-adv-x="532" arabic-form="final" 
d="M552 63l-20 -63q-46 0 -87 22.5t-65 59.5q-51 -96 -202 -96q-86 0 -156 21l37 132q68 -17 129 -17q47 0 81.5 11t65.5 36l-148 310l124 56l109 -287q17 -47 32 -70.5t35.5 -33t55.5 -9.5zM80 -185.5q-18 17.5 -18 42.5t18 42.5t42 17.5q25 0 43 -17.5t18 -42.5t-18 -42.5
t-43 -17.5q-24 0 -42 17.5zM242.5 -185.5q-17.5 17.5 -17.5 42.5t17.5 42.5t42.5 17.5t42.5 -17.5t17.5 -42.5t-17.5 -42.5t-42.5 -17.5t-42.5 17.5z" />
    <glyph glyph-name="uni0689.fina" unicode="&#x689;" horiz-adv-x="532" 
d="M552 63l-20 -63q-46 0 -87 22.5t-65 59.5q-33 -61 -102 -82q13 -23 13 -49q0 -40 -26.5 -66t-67.5 -26q-39 0 -66.5 26.5t-27.5 65.5q0 20 8 39q-49 5 -89 17l37 132q68 -17 129 -17q47 0 81.5 11t65.5 36l-148 310l124 56l109 -287q17 -47 32 -70.5t35.5 -33t55.5 -9.5z
M224 -73q10 10 10 24q0 15 -10.5 24.5t-26.5 9.5t-26.5 -9.5t-10.5 -24.5q0 -14 10 -24t27 -10t27 10z" />
    <glyph glyph-name="uni068A.fina" unicode="&#x68a;" horiz-adv-x="532" 
d="M552 63l-20 -63q-46 0 -87 22.5t-65 59.5q-51 -96 -202 -96q-86 0 -156 21l37 132q68 -17 129 -17q47 0 81.5 11t65.5 36l-148 310l124 56l109 -287q17 -47 32 -70.5t35.5 -33t55.5 -9.5zM157.5 -198q-18.5 19 -18.5 46q0 28 18.5 47t46.5 19t46.5 -19t18.5 -47
q0 -27 -18.5 -46t-46.5 -19t-46.5 19z" />
    <glyph glyph-name="uni068B.fina" unicode="&#x68b;" horiz-adv-x="532" 
d="M552 63l-20 -63q-46 0 -87 22.5t-65 59.5q-51 -96 -202 -96q-86 0 -156 21l37 132q68 -17 129 -17q47 0 81.5 11t65.5 36l-148 310l124 56l109 -287q17 -47 32 -70.5t35.5 -33t55.5 -9.5zM157.5 -198q-18.5 19 -18.5 46q0 28 18.5 47t46.5 19t46.5 -19t18.5 -47
q0 -27 -18.5 -46t-46.5 -19t-46.5 19zM325 753q21 -26 21 -66q0 -32 -24.5 -60t-76.5 -28h-155l7 62h33v152h61v-70q19 20 37 28t38 8q38 0 59 -26zM276 668q12 7 12 22q0 26 -29 26q-40 0 -84 -55h60q29 0 41 7z" />
    <glyph glyph-name="uniFB87" unicode="&#x68e;" horiz-adv-x="532" arabic-form="final" 
d="M552 63l-20 -63q-46 0 -87 22.5t-65 59.5q-51 -96 -202 -96q-86 0 -156 21l37 132q68 -17 129 -17q47 0 81.5 11t65.5 36l-148 310l124 56l109 -287q17 -47 32 -70.5t35.5 -33t55.5 -9.5zM180 747q-17 17 -17 41t17 41t40 17t40 -17t17 -41t-17 -41t-40 -17t-40 17z
M91 616q-17 17 -17 40q0 25 17 42t42 17q23 0 40 -17.5t17 -41.5q0 -23 -17 -40t-40 -17q-25 0 -42 17zM267 616q-17 17 -17 40q0 24 17 41.5t40 17.5q25 0 42 -17t17 -42q0 -23 -17 -40t-42 -17q-23 0 -40 17z" />
    <glyph glyph-name="uni068F.fina" unicode="&#x68f;" horiz-adv-x="532" 
d="M552 63l-20 -63q-46 0 -87 22.5t-65 59.5q-51 -96 -202 -96q-86 0 -156 21l37 132q68 -17 129 -17q47 0 81.5 11t65.5 36l-148 310l124 56l109 -287q17 -47 32 -70.5t35.5 -33t55.5 -9.5zM173 819q17 -17 17 -40q0 -24 -17 -41t-40 -17q-25 0 -42 16.5t-17 41.5
q0 23 17 40t42 17q23 0 40 -17zM349 819q17 -17 17 -40q0 -25 -17 -41.5t-42 -16.5q-23 0 -40 17t-17 41q0 23 17 40t40 17q25 0 42 -17zM260 688q17 -17 17 -41t-17 -40.5t-40 -16.5t-40 16.5t-17 40.5t17 41t40 17t40 -17z" />
    <glyph glyph-name="uni0690.fina" unicode="&#x690;" horiz-adv-x="532" 
d="M552 63l-20 -63q-46 0 -87 22.5t-65 59.5q-51 -96 -202 -96q-86 0 -156 21l37 132q68 -17 129 -17q47 0 81.5 11t65.5 36l-148 310l124 56l109 -287q17 -47 32 -70.5t35.5 -33t55.5 -9.5zM107.5 741q-16.5 16 -16.5 38q0 24 16 40t40 16q23 0 39 -16t16 -40
q0 -22 -16.5 -38t-38.5 -16q-23 0 -39.5 16zM255.5 741q-16.5 16 -16.5 38q0 24 16 40t39 16q24 0 40 -16t16 -40q0 -22 -16.5 -38t-39.5 -16q-22 0 -38.5 16zM107.5 599q-16.5 16 -16.5 39t16.5 39.5t39.5 16.5t39 -16.5t16 -39.5t-16 -39t-39 -16t-39.5 16zM255 599
q-16 16 -16 39t16 39.5t39 16.5t39.5 -16.5t16.5 -39.5t-16.5 -39t-39.5 -16t-39 16z" />
    <glyph glyph-name="uni06EE.fina" unicode="&#x6ee;" horiz-adv-x="532" 
d="M552 63l-20 -63q-46 0 -87 22.5t-65 59.5q-51 -96 -202 -96q-86 0 -156 21l37 132q68 -17 129 -17q47 0 81.5 11t65.5 36l-148 310l124 56l109 -287q17 -47 32 -70.5t35.5 -33t55.5 -9.5zM108 623l79 142h64l81 -142l-64 -26l-48 80l-48 -80z" />
    <glyph glyph-name="uniFEAE" unicode="&#x631;" horiz-adv-x="416" arabic-form="final" 
d="M436 62l-20 -62q-37 0 -59.5 8.5t-37.5 28.5q-10 -108 -86.5 -180t-217.5 -113l-50 130q138 40 201.5 96.5t63.5 121.5q0 40 -21.5 98t-62.5 140l127 43q22 -60 39 -117q14 -48 29 -73.5t35 -36.5t51 -11z" />
    <glyph glyph-name="uniFEB0" unicode="&#x632;" horiz-adv-x="416" arabic-form="final" 
d="M436 62l-20 -62q-37 0 -59.5 8.5t-37.5 28.5q-10 -108 -86.5 -180t-217.5 -113l-50 130q138 40 201.5 96.5t63.5 121.5q0 40 -21.5 98t-62.5 140l127 43q22 -60 39 -117q14 -48 29 -73.5t35 -36.5t51 -11zM132.5 477q-18.5 19 -18.5 46q0 28 18.5 47t46.5 19t46.5 -19
t18.5 -47q0 -27 -18.5 -46t-46.5 -19t-46.5 19z" />
    <glyph glyph-name="uniFB8D" unicode="&#x691;" horiz-adv-x="416" arabic-form="final" 
d="M436 62l-20 -62q-37 0 -59.5 8.5t-37.5 28.5q-10 -108 -86.5 -180t-217.5 -113l-50 130q138 40 201.5 96.5t63.5 121.5q0 40 -21.5 98t-62.5 140l127 43q22 -60 39 -117q14 -48 29 -73.5t35 -36.5t51 -11zM286 615q21 -26 21 -66q0 -32 -24.5 -60t-76.5 -28h-155l7 62h33
v152h61v-70q19 20 37 28t38 8q38 0 59 -26zM237 530q12 7 12 22q0 26 -29 26q-40 0 -84 -55h60q29 0 41 7z" />
    <glyph glyph-name="uni0692.fina" unicode="&#x692;" horiz-adv-x="416" 
d="M436 62l-20 -62q-37 0 -59.5 8.5t-37.5 28.5q-10 -108 -86.5 -180t-217.5 -113l-50 130q138 40 201.5 96.5t63.5 121.5q0 40 -21.5 98t-62.5 140l127 43q22 -60 39 -117q14 -48 29 -73.5t35 -36.5t51 -11zM181 520l48 81l64 -27l-81 -142h-64l-79 142l64 27z" />
    <glyph glyph-name="uni0693.fina" unicode="&#x693;" horiz-adv-x="416" 
d="M436 62l-20 -62q-37 0 -59.5 8.5t-37.5 28.5q-9 -95 -70 -164q32 -5 53.5 -30t21.5 -60q0 -40 -26.5 -65.5t-66.5 -25.5q-39 0 -66.5 26t-27.5 65v8q-54 -28 -122 -47l-50 130q138 40 201.5 96.5t63.5 121.5q0 40 -21.5 98t-62.5 140l127 43q22 -60 39 -117
q14 -48 29 -73.5t35 -36.5t51 -11zM257.5 -192.5q-10.5 9.5 -26.5 9.5t-26.5 -9.5t-10.5 -24.5q0 -14 10 -24t27 -10t27 10t10 24q0 15 -10.5 24.5z" />
    <glyph glyph-name="uni0694.fina" unicode="&#x694;" horiz-adv-x="416" 
d="M436 62l-20 -62q-37 0 -59.5 8.5t-37.5 28.5q-10 -108 -86.5 -180t-217.5 -113l-50 130q138 40 201.5 96.5t63.5 121.5q0 40 -21.5 98t-62.5 140l127 43q22 -60 39 -117q14 -48 29 -73.5t35 -36.5t51 -11zM182.5 -380q-18.5 19 -18.5 46q0 28 18.5 47t46.5 19t46.5 -19
t18.5 -47q0 -27 -18.5 -46t-46.5 -19t-46.5 19z" />
    <glyph glyph-name="uni0695.fina" unicode="&#x695;" horiz-adv-x="416" 
d="M436 62l-20 -62q-37 0 -59.5 8.5t-37.5 28.5q-10 -108 -86.5 -180t-217.5 -113l-50 130q138 40 201.5 96.5t63.5 121.5q0 40 -21.5 98t-62.5 140l127 43q22 -60 39 -117q14 -48 29 -73.5t35 -36.5t51 -11zM229 -309l48 81l64 -27l-81 -142h-64l-79 142l64 27z" />
    <glyph glyph-name="uni0696.fina" unicode="&#x696;" horiz-adv-x="416" 
d="M436 62l-20 -62q-37 0 -59.5 8.5t-37.5 28.5q-10 -108 -86.5 -180t-217.5 -113l-50 130q138 40 201.5 96.5t63.5 121.5q0 40 -21.5 98t-62.5 140l127 43q22 -60 39 -117q14 -48 29 -73.5t35 -36.5t51 -11zM182.5 -380q-18.5 19 -18.5 46q0 28 18.5 47t46.5 19t46.5 -19
t18.5 -47q0 -27 -18.5 -46t-46.5 -19t-46.5 19zM132.5 477q-18.5 19 -18.5 46q0 28 18.5 47t46.5 19t46.5 -19t18.5 -47q0 -27 -18.5 -46t-46.5 -19t-46.5 19z" />
    <glyph glyph-name="uni0697.fina" unicode="&#x697;" horiz-adv-x="416" 
d="M436 62l-20 -62q-37 0 -59.5 8.5t-37.5 28.5q-10 -108 -86.5 -180t-217.5 -113l-50 130q138 40 201.5 96.5t63.5 121.5q0 40 -21.5 98t-62.5 140l127 43q22 -60 39 -117q14 -48 29 -73.5t35 -36.5t51 -11zM57 489q-18 18 -18 43t18 42.5t42 17.5q25 0 43 -17.5t18 -42.5
t-18 -43t-43 -18q-24 0 -42 18zM219.5 489q-17.5 18 -17.5 43t17.5 42.5t42.5 17.5t42.5 -17.5t17.5 -42.5t-17.5 -43t-42.5 -18t-42.5 18z" />
    <glyph glyph-name="uniFB8B" unicode="&#x698;" horiz-adv-x="416" arabic-form="final" 
d="M436 62l-20 -62q-37 0 -59.5 8.5t-37.5 28.5q-10 -108 -86.5 -180t-217.5 -113l-50 130q138 40 201.5 96.5t63.5 121.5q0 40 -21.5 98t-62.5 140l127 43q22 -60 39 -117q14 -48 29 -73.5t35 -36.5t51 -11zM141 609q-17 17 -17 41t17 41t40 17t40 -17t17 -41t-17 -41
t-40 -17t-40 17zM52 478q-17 17 -17 40q0 25 17 42t42 17q23 0 40 -17.5t17 -41.5q0 -23 -17 -40t-40 -17q-25 0 -42 17zM228 478q-17 17 -17 40q0 24 17 41.5t40 17.5q25 0 42 -17t17 -42q0 -23 -17 -40t-42 -17q-23 0 -40 17z" />
    <glyph glyph-name="uni0699.fina" unicode="&#x699;" horiz-adv-x="416" 
d="M436 62l-20 -62q-37 0 -59.5 8.5t-37.5 28.5q-10 -108 -86.5 -180t-217.5 -113l-50 130q138 40 201.5 96.5t63.5 121.5q0 40 -21.5 98t-62.5 140l127 43q22 -60 39 -117q14 -48 29 -73.5t35 -36.5t51 -11zM68.5 603q-16.5 16 -16.5 38q0 24 16 40t40 16q23 0 39 -16
t16 -40q0 -22 -16.5 -38t-38.5 -16q-23 0 -39.5 16zM216.5 603q-16.5 16 -16.5 38q0 24 16 40t39 16q24 0 40 -16t16 -40q0 -22 -16.5 -38t-39.5 -16q-22 0 -38.5 16zM68.5 461q-16.5 16 -16.5 39t16.5 39.5t39.5 16.5t39 -16.5t16 -39.5t-16 -39t-39 -16t-39.5 16zM216 461
q-16 16 -16 39t16 39.5t39 16.5t39.5 -16.5t16.5 -39.5t-16.5 -39t-39.5 -16t-39 16z" />
    <glyph glyph-name="uniFC5C" unicode="&#xfc5c;" horiz-adv-x="374" arabic-form="isolated" 
d="M-35 -126q134 43 192.5 97.5t58.5 120.5q0 44 -19 99.5t-61 136.5l133 46q55 -144 55 -273q0 -256 -307 -357zM215 629v-188h-73v179z" />
    <glyph glyph-name="uniFEB2" unicode="&#x633;" horiz-adv-x="1307" arabic-form="final" 
d="M1327 64l-20 -64q-51 0 -89.5 17.5t-58.5 46.5q-46 -64 -144 -64q-96 0 -140 68q-25 -36 -61.5 -52t-84.5 -16h-1q-55 0 -91 30q-4 -111 -44 -174.5t-109.5 -89t-171.5 -25.5q-138 0 -205 67t-67 190q0 103 54 204l86 -26q-27 -74 -27 -156q0 -144 171 -144
q109 0 156 39.5t47 131.5q0 58 -16 115t-49 125l124 49q13 -42 36 -106q21 -58 47.5 -76.5t70.5 -18.5q34 0 54 24t20 72v107h111v-106q0 -51 20.5 -74t62.5 -23q75 0 75 76v165h112v-157q0 -49 28 -66.5t95 -17.5z" />
    <glyph glyph-name="uniFEB4" unicode="&#x633;" horiz-adv-x="883" arabic-form="medial" 
d="M903 64l-20 -64q-51 0 -89 17t-59 47q-46 -64 -143 -64q-96 0 -141 68q-46 -68 -136 -68q-42 0 -78.5 16t-57.5 51q-29 -37 -73 -52t-106 -15l-20 63l32 72q55 0 83 16t28 60v127h111v-110q0 -55 21.5 -74t60.5 -19q35 0 55 23.5t20 72.5v107h111v-106q0 -51 20.5 -74
t62.5 -23q74 0 74 76v158h113v-150q0 -49 28 -66.5t95 -17.5z" />
    <glyph glyph-name="uniFEB3" unicode="&#x633;" horiz-adv-x="825" arabic-form="initial" 
d="M774 209q0 -108 -48.5 -158.5t-126.5 -50.5q-95 0 -140 68q-46 -68 -136 -68q-43 0 -79.5 16t-57.5 51q-29 -38 -74.5 -52.5t-111.5 -14.5l-20 63l31 72q61 0 90.5 16t29.5 60v127h111v-110q0 -55 21 -74t60 -19q35 0 55 23.5t20 72.5v107h111v-106q0 -51 20.5 -74
t62.5 -23q35 0 51.5 19t16.5 59q0 75 -40 176l112 36q42 -110 42 -216z" />
    <glyph glyph-name="uni069A.init" unicode="&#x69a;" horiz-adv-x="825" 
d="M774 209q0 -108 -48.5 -158.5t-126.5 -50.5q-95 0 -140 68q-46 -68 -136 -68q-43 0 -79.5 16t-57.5 51q-29 -38 -74.5 -52.5t-111.5 -14.5l-20 63l31 72q61 0 90.5 16t29.5 60v127h111v-110q0 -55 21 -74t60 -19q35 0 55 23.5t20 72.5v107h111v-106q0 -51 20.5 -74
t62.5 -23q35 0 51.5 19t16.5 59q0 75 -40 176l112 36q42 -110 42 -216zM414.5 -198q-18.5 19 -18.5 46q0 28 18.5 47t46.5 19t46.5 -19t18.5 -47q0 -27 -18.5 -46t-46.5 -19t-46.5 19zM391.5 432q-18.5 19 -18.5 46q0 28 18.5 47t46.5 19t46.5 -19t18.5 -47q0 -27 -18.5 -46
t-46.5 -19t-46.5 19z" />
    <glyph glyph-name="uni069A.medi" unicode="&#x69a;" horiz-adv-x="883" 
d="M903 64l-20 -64q-51 0 -89 17t-59 47q-46 -64 -143 -64q-96 0 -141 68q-46 -68 -136 -68q-42 0 -78.5 16t-57.5 51q-29 -37 -73 -52t-106 -15l-20 63l32 72q55 0 83 16t28 60v127h111v-110q0 -55 21.5 -74t60.5 -19q35 0 55 23.5t20 72.5v107h111v-106q0 -51 20.5 -74
t62.5 -23q74 0 74 76v158h113v-150q0 -49 28 -66.5t95 -17.5zM401.5 -198q-18.5 19 -18.5 46q0 28 18.5 47t46.5 19t46.5 -19t18.5 -47q0 -27 -18.5 -46t-46.5 -19t-46.5 19zM398.5 432q-18.5 19 -18.5 46q0 28 18.5 47t46.5 19t46.5 -19t18.5 -47q0 -27 -18.5 -46
t-46.5 -19t-46.5 19z" />
    <glyph glyph-name="uni069A.fina" unicode="&#x69a;" horiz-adv-x="1307" 
d="M1327 64l-20 -64q-51 0 -89.5 17.5t-58.5 46.5q-46 -64 -144 -64q-96 0 -140 68q-25 -36 -61.5 -52t-84.5 -16h-1q-55 0 -91 30q-4 -111 -44 -174.5t-109.5 -89t-171.5 -25.5q-138 0 -205 67t-67 190q0 103 54 204l86 -26q-27 -74 -27 -156q0 -144 171 -144
q109 0 156 39.5t47 131.5q0 58 -16 115t-49 125l124 49q13 -42 36 -106q21 -58 47.5 -76.5t70.5 -18.5q34 0 54 24t20 72v107h111v-106q0 -51 20.5 -74t62.5 -23q75 0 75 76v165h112v-157q0 -49 28 -66.5t95 -17.5zM849.5 -198q-18.5 19 -18.5 46q0 28 18.5 47t46.5 19
t46.5 -19t18.5 -47q0 -27 -18.5 -46t-46.5 -19t-46.5 19zM821.5 432q-18.5 19 -18.5 46q0 28 18.5 47t46.5 19t46.5 -19t18.5 -47q0 -27 -18.5 -46t-46.5 -19t-46.5 19z" />
    <glyph glyph-name="uni069B.init" unicode="&#x69b;" horiz-adv-x="825" 
d="M774 209q0 -108 -48.5 -158.5t-126.5 -50.5q-95 0 -140 68q-46 -68 -136 -68q-43 0 -79.5 16t-57.5 51q-29 -38 -74.5 -52.5t-111.5 -14.5l-20 63l31 72q61 0 90.5 16t29.5 60v127h111v-110q0 -55 21 -74t60 -19q35 0 55 23.5t20 72.5v107h111v-106q0 -51 20.5 -74
t62.5 -23q35 0 51.5 19t16.5 59q0 75 -40 176l112 36q42 -110 42 -216zM414 -106q17 -17 17 -40q0 -24 -17 -41t-40 -17q-25 0 -42 16.5t-17 41.5q0 23 17 40t42 17q23 0 40 -17zM590 -106q17 -17 17 -40q0 -25 -17 -41.5t-42 -16.5q-23 0 -40 17t-17 41q0 23 17 40t40 17
q25 0 42 -17zM501 -237q17 -17 17 -41t-17 -40.5t-40 -16.5t-40 16.5t-17 40.5t17 41t40 17t40 -17z" />
    <glyph glyph-name="uni069B.medi" unicode="&#x69b;" horiz-adv-x="883" 
d="M903 64l-20 -64q-51 0 -89 17t-59 47q-46 -64 -143 -64q-96 0 -141 68q-46 -68 -136 -68q-42 0 -78.5 16t-57.5 51q-29 -37 -73 -52t-106 -15l-20 63l32 72q55 0 83 16t28 60v127h111v-110q0 -55 21.5 -74t60.5 -19q35 0 55 23.5t20 72.5v107h111v-106q0 -51 20.5 -74
t62.5 -23q74 0 74 76v158h113v-150q0 -49 28 -66.5t95 -17.5zM401 -106q17 -17 17 -40q0 -24 -17 -41t-40 -17q-25 0 -42 16.5t-17 41.5q0 23 17 40t42 17q23 0 40 -17zM577 -106q17 -17 17 -40q0 -25 -17 -41.5t-42 -16.5q-23 0 -40 17t-17 41q0 23 17 40t40 17
q25 0 42 -17zM488 -237q17 -17 17 -41t-17 -40.5t-40 -16.5t-40 16.5t-17 40.5t17 41t40 17t40 -17z" />
    <glyph glyph-name="uni069B.fina" unicode="&#x69b;" horiz-adv-x="1307" 
d="M1327 64l-20 -64q-51 0 -89.5 17.5t-58.5 46.5q-46 -64 -144 -64q-96 0 -140 68q-25 -36 -61.5 -52t-84.5 -16h-1q-55 0 -91 30q-4 -111 -44 -174.5t-109.5 -89t-171.5 -25.5q-138 0 -205 67t-67 190q0 103 54 204l86 -26q-27 -74 -27 -156q0 -144 171 -144
q109 0 156 39.5t47 131.5q0 58 -16 115t-49 125l124 49q13 -42 36 -106q21 -58 47.5 -76.5t70.5 -18.5q34 0 54 24t20 72v107h111v-106q0 -51 20.5 -74t62.5 -23q75 0 75 76v165h112v-157q0 -49 28 -66.5t95 -17.5zM849 -106q17 -17 17 -40q0 -24 -17 -41t-40 -17
q-25 0 -42 16.5t-17 41.5q0 23 17 40t42 17q23 0 40 -17zM1025 -106q17 -17 17 -40q0 -25 -17 -41.5t-42 -16.5q-23 0 -40 17t-17 41q0 23 17 40t40 17q25 0 42 -17zM936 -237q17 -17 17 -41t-17 -40.5t-40 -16.5t-40 16.5t-17 40.5t17 41t40 17t40 -17z" />
    <glyph glyph-name="uniFEB6" unicode="&#x634;" horiz-adv-x="1307" arabic-form="final" 
d="M1327 64l-20 -64q-51 0 -89.5 17.5t-58.5 46.5q-46 -64 -144 -64q-96 0 -140 68q-25 -36 -61.5 -52t-84.5 -16h-1q-55 0 -91 30q-4 -111 -44 -174.5t-109.5 -89t-171.5 -25.5q-138 0 -205 67t-67 190q0 103 54 204l86 -26q-27 -74 -27 -156q0 -144 171 -144
q109 0 156 39.5t47 131.5q0 58 -16 115t-49 125l124 49q13 -42 36 -106q21 -58 47.5 -76.5t70.5 -18.5q34 0 54 24t20 72v107h111v-106q0 -51 20.5 -74t62.5 -23q75 0 75 76v165h112v-157q0 -49 28 -66.5t95 -17.5zM830 564q-17 17 -17 41t17 41t40 17t40 -17t17 -41
t-17 -41t-40 -17t-40 17zM741 433q-17 17 -17 40q0 25 17 42t42 17q23 0 40 -17.5t17 -41.5q0 -23 -17 -40t-40 -17q-25 0 -42 17zM917 433q-17 17 -17 40q0 24 17 41.5t40 17.5q25 0 42 -17t17 -42q0 -23 -17 -40t-42 -17q-23 0 -40 17z" />
    <glyph glyph-name="uniFEB8" unicode="&#x634;" horiz-adv-x="883" arabic-form="medial" 
d="M903 64l-20 -64q-51 0 -89 17t-59 47q-46 -64 -143 -64q-96 0 -141 68q-46 -68 -136 -68q-42 0 -78.5 16t-57.5 51q-29 -37 -73 -52t-106 -15l-20 63l32 72q55 0 83 16t28 60v127h111v-110q0 -55 21.5 -74t60.5 -19q35 0 55 23.5t20 72.5v107h111v-106q0 -51 20.5 -74
t62.5 -23q74 0 74 76v158h113v-150q0 -49 28 -66.5t95 -17.5zM406 564q-17 17 -17 41t17 41t40 17t40 -17t17 -41t-17 -41t-40 -17t-40 17zM317 433q-17 17 -17 40q0 25 17 42t42 17q23 0 40 -17.5t17 -41.5q0 -23 -17 -40t-40 -17q-25 0 -42 17zM493 433q-17 17 -17 40
q0 24 17 41.5t40 17.5q25 0 42 -17t17 -42q0 -23 -17 -40t-42 -17q-23 0 -40 17z" />
    <glyph glyph-name="uniFEB7" unicode="&#x634;" horiz-adv-x="825" arabic-form="initial" 
d="M774 209q0 -108 -48.5 -158.5t-126.5 -50.5q-95 0 -140 68q-46 -68 -136 -68q-43 0 -79.5 16t-57.5 51q-29 -38 -74.5 -52.5t-111.5 -14.5l-20 63l31 72q61 0 90.5 16t29.5 60v127h111v-110q0 -55 21 -74t60 -19q35 0 55 23.5t20 72.5v107h111v-106q0 -51 20.5 -74
t62.5 -23q35 0 51.5 19t16.5 59q0 75 -40 176l112 36q42 -110 42 -216zM400 564q-17 17 -17 41t17 41t40 17t40 -17t17 -41t-17 -41t-40 -17t-40 17zM311 433q-17 17 -17 40q0 25 17 42t42 17q23 0 40 -17.5t17 -41.5q0 -23 -17 -40t-40 -17q-25 0 -42 17zM487 433
q-17 17 -17 40q0 24 17 41.5t40 17.5q25 0 42 -17t17 -42q0 -23 -17 -40t-42 -17q-23 0 -40 17z" />
    <glyph glyph-name="uni06FA.init" unicode="&#x6fa;" horiz-adv-x="825" 
d="M774 209q0 -108 -48.5 -158.5t-126.5 -50.5q-95 0 -140 68q-46 -68 -136 -68q-43 0 -79.5 16t-57.5 51q-29 -38 -74.5 -52.5t-111.5 -14.5l-20 63l31 72q61 0 90.5 16t29.5 60v127h111v-110q0 -55 21 -74t60 -19q35 0 55 23.5t20 72.5v107h111v-106q0 -51 20.5 -74
t62.5 -23q35 0 51.5 19t16.5 59q0 75 -40 176l112 36q42 -110 42 -216zM400 564q-17 17 -17 41t17 41t40 17t40 -17t17 -41t-17 -41t-40 -17t-40 17zM311 433q-17 17 -17 40q0 25 17 42t42 17q23 0 40 -17.5t17 -41.5q0 -23 -17 -40t-40 -17q-25 0 -42 17zM487 433
q-17 17 -17 40q0 24 17 41.5t40 17.5q25 0 42 -17t17 -42q0 -23 -17 -40t-42 -17q-23 0 -40 17zM414.5 -198q-18.5 19 -18.5 46q0 28 18.5 47t46.5 19t46.5 -19t18.5 -47q0 -27 -18.5 -46t-46.5 -19t-46.5 19z" />
    <glyph glyph-name="uni06FA.medi" unicode="&#x6fa;" horiz-adv-x="883" 
d="M903 64l-20 -64q-51 0 -89 17t-59 47q-46 -64 -143 -64q-96 0 -141 68q-46 -68 -136 -68q-42 0 -78.5 16t-57.5 51q-29 -37 -73 -52t-106 -15l-20 63l32 72q55 0 83 16t28 60v127h111v-110q0 -55 21.5 -74t60.5 -19q35 0 55 23.5t20 72.5v107h111v-106q0 -51 20.5 -74
t62.5 -23q74 0 74 76v158h113v-150q0 -49 28 -66.5t95 -17.5zM406 564q-17 17 -17 41t17 41t40 17t40 -17t17 -41t-17 -41t-40 -17t-40 17zM317 433q-17 17 -17 40q0 25 17 42t42 17q23 0 40 -17.5t17 -41.5q0 -23 -17 -40t-40 -17q-25 0 -42 17zM493 433q-17 17 -17 40
q0 24 17 41.5t40 17.5q25 0 42 -17t17 -42q0 -23 -17 -40t-42 -17q-23 0 -40 17zM401.5 -198q-18.5 19 -18.5 46q0 28 18.5 47t46.5 19t46.5 -19t18.5 -47q0 -27 -18.5 -46t-46.5 -19t-46.5 19z" />
    <glyph glyph-name="uni06FA.fina" unicode="&#x6fa;" horiz-adv-x="1307" 
d="M1327 64l-20 -64q-51 0 -89.5 17.5t-58.5 46.5q-46 -64 -144 -64q-96 0 -140 68q-25 -36 -61.5 -52t-84.5 -16h-1q-55 0 -91 30q-4 -111 -44 -174.5t-109.5 -89t-171.5 -25.5q-138 0 -205 67t-67 190q0 103 54 204l86 -26q-27 -74 -27 -156q0 -144 171 -144
q109 0 156 39.5t47 131.5q0 58 -16 115t-49 125l124 49q13 -42 36 -106q21 -58 47.5 -76.5t70.5 -18.5q34 0 54 24t20 72v107h111v-106q0 -51 20.5 -74t62.5 -23q75 0 75 76v165h112v-157q0 -49 28 -66.5t95 -17.5zM830 564q-17 17 -17 41t17 41t40 17t40 -17t17 -41
t-17 -41t-40 -17t-40 17zM741 433q-17 17 -17 40q0 25 17 42t42 17q23 0 40 -17.5t17 -41.5q0 -23 -17 -40t-40 -17q-25 0 -42 17zM917 433q-17 17 -17 40q0 24 17 41.5t40 17.5q25 0 42 -17t17 -42q0 -23 -17 -40t-42 -17q-23 0 -40 17zM849.5 -198q-18.5 19 -18.5 46
q0 28 18.5 47t46.5 19t46.5 -19t18.5 -47q0 -27 -18.5 -46t-46.5 -19t-46.5 19z" />
    <glyph glyph-name="uni069C.init" unicode="&#x69c;" horiz-adv-x="825" 
d="M774 209q0 -108 -48.5 -158.5t-126.5 -50.5q-95 0 -140 68q-46 -68 -136 -68q-43 0 -79.5 16t-57.5 51q-29 -38 -74.5 -52.5t-111.5 -14.5l-20 63l31 72q61 0 90.5 16t29.5 60v127h111v-110q0 -55 21 -74t60 -19q35 0 55 23.5t20 72.5v107h111v-106q0 -51 20.5 -74
t62.5 -23q35 0 51.5 19t16.5 59q0 75 -40 176l112 36q42 -110 42 -216zM400 564q-17 17 -17 41t17 41t40 17t40 -17t17 -41t-17 -41t-40 -17t-40 17zM311 433q-17 17 -17 40q0 25 17 42t42 17q23 0 40 -17.5t17 -41.5q0 -23 -17 -40t-40 -17q-25 0 -42 17zM487 433
q-17 17 -17 40q0 24 17 41.5t40 17.5q25 0 42 -17t17 -42q0 -23 -17 -40t-42 -17q-23 0 -40 17zM414 -106q17 -17 17 -40q0 -24 -17 -41t-40 -17q-25 0 -42 16.5t-17 41.5q0 23 17 40t42 17q23 0 40 -17zM590 -106q17 -17 17 -40q0 -25 -17 -41.5t-42 -16.5q-23 0 -40 17
t-17 41q0 23 17 40t40 17q25 0 42 -17zM501 -237q17 -17 17 -41t-17 -40.5t-40 -16.5t-40 16.5t-17 40.5t17 41t40 17t40 -17z" />
    <glyph glyph-name="uni069C.medi" unicode="&#x69c;" horiz-adv-x="883" 
d="M903 64l-20 -64q-51 0 -89 17t-59 47q-46 -64 -143 -64q-96 0 -141 68q-46 -68 -136 -68q-42 0 -78.5 16t-57.5 51q-29 -37 -73 -52t-106 -15l-20 63l32 72q55 0 83 16t28 60v127h111v-110q0 -55 21.5 -74t60.5 -19q35 0 55 23.5t20 72.5v107h111v-106q0 -51 20.5 -74
t62.5 -23q74 0 74 76v158h113v-150q0 -49 28 -66.5t95 -17.5zM406 564q-17 17 -17 41t17 41t40 17t40 -17t17 -41t-17 -41t-40 -17t-40 17zM317 433q-17 17 -17 40q0 25 17 42t42 17q23 0 40 -17.5t17 -41.5q0 -23 -17 -40t-40 -17q-25 0 -42 17zM493 433q-17 17 -17 40
q0 24 17 41.5t40 17.5q25 0 42 -17t17 -42q0 -23 -17 -40t-42 -17q-23 0 -40 17zM401 -106q17 -17 17 -40q0 -24 -17 -41t-40 -17q-25 0 -42 16.5t-17 41.5q0 23 17 40t42 17q23 0 40 -17zM577 -106q17 -17 17 -40q0 -25 -17 -41.5t-42 -16.5q-23 0 -40 17t-17 41
q0 23 17 40t40 17q25 0 42 -17zM488 -237q17 -17 17 -41t-17 -40.5t-40 -16.5t-40 16.5t-17 40.5t17 41t40 17t40 -17z" />
    <glyph glyph-name="uni069C.fina" unicode="&#x69c;" horiz-adv-x="1307" 
d="M1327 64l-20 -64q-51 0 -89.5 17.5t-58.5 46.5q-46 -64 -144 -64q-96 0 -140 68q-25 -36 -61.5 -52t-84.5 -16h-1q-55 0 -91 30q-4 -111 -44 -174.5t-109.5 -89t-171.5 -25.5q-138 0 -205 67t-67 190q0 103 54 204l86 -26q-27 -74 -27 -156q0 -144 171 -144
q109 0 156 39.5t47 131.5q0 58 -16 115t-49 125l124 49q13 -42 36 -106q21 -58 47.5 -76.5t70.5 -18.5q34 0 54 24t20 72v107h111v-106q0 -51 20.5 -74t62.5 -23q75 0 75 76v165h112v-157q0 -49 28 -66.5t95 -17.5zM830 564q-17 17 -17 41t17 41t40 17t40 -17t17 -41
t-17 -41t-40 -17t-40 17zM741 433q-17 17 -17 40q0 25 17 42t42 17q23 0 40 -17.5t17 -41.5q0 -23 -17 -40t-40 -17q-25 0 -42 17zM917 433q-17 17 -17 40q0 24 17 41.5t40 17.5q25 0 42 -17t17 -42q0 -23 -17 -40t-42 -17q-23 0 -40 17zM849 -106q17 -17 17 -40
q0 -24 -17 -41t-40 -17q-25 0 -42 16.5t-17 41.5q0 23 17 40t42 17q23 0 40 -17zM1025 -106q17 -17 17 -40q0 -25 -17 -41.5t-42 -16.5q-23 0 -40 17t-17 41q0 23 17 40t40 17q25 0 42 -17zM936 -237q17 -17 17 -41t-17 -40.5t-40 -16.5t-40 16.5t-17 40.5t17 41t40 17
t40 -17z" />
    <glyph glyph-name="uniFEBA" unicode="&#x635;" horiz-adv-x="1356" arabic-form="final" 
d="M1376 60l-20 -60q-40 0 -74.5 18t-58.5 48q-42 -39 -123 -52.5t-227 -13.5h-144q-56 0 -92 30q-4 -111 -44 -174.5t-109.5 -89t-171.5 -25.5q-138 0 -205 67t-67 190q0 103 54 204l86 -26q-27 -74 -27 -156q0 -144 171 -144q109 0 156 39.5t47 131.5q0 58 -16 115
t-49 125l124 49q13 -42 36 -106q15 -41 33 -62t41 -28q61 161 160 246t211 85q57 0 105 -26t77 -80t29 -134q0 -39 -5 -62q20 -19 42.5 -26.5t51.5 -7.5zM1066 143q60 8 85.5 30t25.5 66q0 62 -30.5 82t-79.5 20q-71 0 -138.5 -45t-131.5 -161h91q118 0 178 8z" />
    <glyph glyph-name="uniFEBC" unicode="&#x635;" horiz-adv-x="952" arabic-form="medial" 
d="M972 60l-20 -60q-40 0 -74.5 18t-58.5 48q-42 -39 -122.5 -52.5t-226.5 -13.5h-145q-59 0 -98 15t-64 52q-25 -38 -62.5 -52.5t-100.5 -14.5l-20 62l32 73q46 0 66 8.5t24.5 26t4.5 58.5v169h112v-168q0 -33 5.5 -51t21 -28t46.5 -13q60 162 159 248t212 86q57 0 105 -26
t77 -80t29 -134q0 -39 -5 -62q20 -19 42.5 -26.5t51.5 -7.5zM662.5 143q60.5 8 86 30t25.5 66q0 62 -31 82t-80 20q-71 0 -138.5 -45t-131.5 -161h91q118 0 178.5 8z" />
    <glyph glyph-name="uniFEBB" unicode="&#x635;" horiz-adv-x="924" arabic-form="initial" 
d="M768 445q48 -26 77 -80t29 -134q0 -100 -40 -149.5t-123.5 -65.5t-240.5 -16h-145q-59 0 -98 15t-64 52q-25 -38 -62.5 -52.5t-100.5 -14.5l-20 62l32 73q46 0 66 8.5t24.5 26t4.5 58.5v169h112v-168q0 -33 5.5 -51t21 -28t46.5 -13q60 162 159 248t212 86q57 0 105 -26z
M662.5 143q60.5 8 86 30t25.5 66q0 62 -31 82t-80 20q-71 0 -138.5 -45t-131.5 -161h91q118 0 178.5 8z" />
    <glyph glyph-name="uni069D.init" unicode="&#x69d;" horiz-adv-x="924" 
d="M768 445q48 -26 77 -80t29 -134q0 -100 -40 -149.5t-123.5 -65.5t-240.5 -16h-145q-59 0 -98 15t-64 52q-25 -38 -62.5 -52.5t-100.5 -14.5l-20 62l32 73q46 0 66 8.5t24.5 26t4.5 58.5v169h112v-168q0 -33 5.5 -51t21 -28t46.5 -13q60 162 159 248t212 86q57 0 105 -26z
M662.5 143q60.5 8 86 30t25.5 66q0 62 -31 82t-80 20q-71 0 -138.5 -45t-131.5 -161h91q118 0 178.5 8zM38 -185.5q-18 17.5 -18 42.5t18 42.5t42 17.5q25 0 43 -17.5t18 -42.5t-18 -42.5t-43 -17.5q-24 0 -42 17.5zM200.5 -185.5q-17.5 17.5 -17.5 42.5t17.5 42.5
t42.5 17.5t42.5 -17.5t17.5 -42.5t-17.5 -42.5t-42.5 -17.5t-42.5 17.5z" />
    <glyph glyph-name="uni069D.medi" unicode="&#x69d;" horiz-adv-x="952" 
d="M972 60l-20 -60q-40 0 -74.5 18t-58.5 48q-42 -39 -122.5 -52.5t-226.5 -13.5h-145q-59 0 -98 15t-64 52q-25 -38 -62.5 -52.5t-100.5 -14.5l-20 62l32 73q46 0 66 8.5t24.5 26t4.5 58.5v169h112v-168q0 -33 5.5 -51t21 -28t46.5 -13q60 162 159 248t212 86q57 0 105 -26
t77 -80t29 -134q0 -39 -5 -62q20 -19 42.5 -26.5t51.5 -7.5zM662.5 143q60.5 8 86 30t25.5 66q0 62 -31 82t-80 20q-71 0 -138.5 -45t-131.5 -161h91q118 0 178.5 8zM38 -185.5q-18 17.5 -18 42.5t18 42.5t42 17.5q25 0 43 -17.5t18 -42.5t-18 -42.5t-43 -17.5
q-24 0 -42 17.5zM200.5 -185.5q-17.5 17.5 -17.5 42.5t17.5 42.5t42.5 17.5t42.5 -17.5t17.5 -42.5t-17.5 -42.5t-42.5 -17.5t-42.5 17.5z" />
    <glyph glyph-name="uni069D.fina" unicode="&#x69d;" horiz-adv-x="1356" 
d="M1376 60l-20 -60q-40 0 -74.5 18t-58.5 48q-42 -39 -123 -52.5t-227 -13.5h-144q-56 0 -92 30q-4 -111 -44 -174.5t-109.5 -89t-171.5 -25.5q-138 0 -205 67t-67 190q0 103 54 204l86 -26q-27 -74 -27 -156q0 -144 171 -144q109 0 156 39.5t47 131.5q0 58 -16 115
t-49 125l124 49q13 -42 36 -106q15 -41 33 -62t41 -28q61 161 160 246t211 85q57 0 105 -26t77 -80t29 -134q0 -39 -5 -62q20 -19 42.5 -26.5t51.5 -7.5zM1066 143q60 8 85.5 30t25.5 66q0 62 -30.5 82t-79.5 20q-71 0 -138.5 -45t-131.5 -161h91q118 0 178 8zM198 -432.5
q-18 17.5 -18 42.5t18 42.5t42 17.5q25 0 43 -17.5t18 -42.5t-18 -42.5t-43 -17.5q-24 0 -42 17.5zM360.5 -432.5q-17.5 17.5 -17.5 42.5t17.5 42.5t42.5 17.5t42.5 -17.5t17.5 -42.5t-17.5 -42.5t-42.5 -17.5t-42.5 17.5z" />
    <glyph glyph-name="uni069E.init" unicode="&#x69e;" horiz-adv-x="924" 
d="M589 680q-17 17 -17 41t17 41t40 17t40 -17t17 -41t-17 -41t-40 -17t-40 17zM500 549q-17 17 -17 40q0 25 17 42t42 17q23 0 40 -17t17 -42q0 -23 -17 -40t-40 -17q-25 0 -42 17zM676.5 631q17.5 17 40.5 17q24 0 41.5 -17t17.5 -42q0 -23 -17.5 -40t-41.5 -17
q-23 0 -40.5 17t-17.5 40q0 25 17.5 42zM768 445q48 -26 77 -80t29 -134q0 -100 -40 -149.5t-123.5 -65.5t-240.5 -16h-145q-59 0 -98 15t-64 52q-25 -38 -62.5 -52.5t-100.5 -14.5l-20 62l32 73q46 0 66 8.5t24.5 26t4.5 58.5v169h112v-168q0 -33 5.5 -51t21 -28t46.5 -13
q60 162 159 248t212 86q57 0 105 -26zM662.5 143q60.5 8 86 30t25.5 66q0 62 -31 82t-80 20q-71 0 -138.5 -45t-131.5 -161h91q118 0 178.5 8z" />
    <glyph glyph-name="uni069E.medi" unicode="&#x69e;" horiz-adv-x="952" 
d="M589 680q-17 17 -17 41t17 41t40 17t40 -17t17 -41t-17 -41t-40 -17t-40 17zM500 549q-17 17 -17 40q0 25 17 42t42 17q23 0 40 -17t17 -42q0 -23 -17 -40t-40 -17q-25 0 -42 17zM676.5 631q17.5 17 40.5 17q24 0 41.5 -17t17.5 -42q0 -23 -17.5 -40t-41.5 -17
q-23 0 -40.5 17t-17.5 40q0 25 17.5 42zM972 60l-20 -60q-40 0 -74.5 18t-58.5 48q-42 -39 -122.5 -52.5t-226.5 -13.5h-145q-59 0 -98 15t-64 52q-25 -38 -62.5 -52.5t-100.5 -14.5l-20 62l32 73q46 0 66 8.5t24.5 26t4.5 58.5v169h112v-168q0 -33 5.5 -51t21 -28t46.5 -13
q60 162 159 248t212 86q57 0 105 -26t77 -80t29 -134q0 -39 -5 -62q20 -19 42.5 -26.5t51.5 -7.5zM662.5 143q60.5 8 86 30t25.5 66q0 62 -31 82t-80 20q-71 0 -138.5 -45t-131.5 -161h91q118 0 178.5 8z" />
    <glyph glyph-name="uni069E.fina" unicode="&#x69e;" horiz-adv-x="1356" 
d="M993 680q-17 17 -17 41t17 41t40 17t40 -17t17 -41t-17 -41t-40 -17t-40 17zM904 549q-17 17 -17 40q0 25 17 42t42 17q23 0 40 -17t17 -42q0 -23 -17 -40t-40 -17q-25 0 -42 17zM1080 630.5q17 17.5 40 17.5q25 0 42.5 -17t17.5 -42q0 -23 -17.5 -40t-42.5 -17
q-23 0 -40 17t-17 40q0 24 17 41.5zM1376 60l-20 -60q-40 0 -74.5 18t-58.5 48q-42 -39 -123 -52.5t-227 -13.5h-144q-56 0 -92 30q-4 -111 -44 -174.5t-109.5 -89t-171.5 -25.5q-138 0 -205 67t-67 190q0 103 54 204l86 -26q-27 -74 -27 -156q0 -144 171 -144
q109 0 156 39.5t47 131.5q0 58 -16 115t-49 125l124 49q13 -42 36 -106q15 -41 33 -62t41 -28q61 161 160 246t211 85q57 0 105 -26t77 -80t29 -134q0 -39 -5 -62q20 -19 42.5 -26.5t51.5 -7.5zM1066 143q60 8 85.5 30t25.5 66q0 62 -30.5 82t-79.5 20q-71 0 -138.5 -45
t-131.5 -161h91q118 0 178 8z" />
    <glyph glyph-name="uniFEBE" unicode="&#x636;" horiz-adv-x="1356" arabic-form="final" 
d="M985 548q-19 19 -19 47q0 27 19 46t47 19q27 0 46 -19t19 -46q0 -28 -19 -47t-46 -19q-28 0 -47 19zM1376 60l-20 -60q-40 0 -74.5 18t-58.5 48q-42 -39 -123 -52.5t-227 -13.5h-144q-56 0 -92 30q-4 -111 -44 -174.5t-109.5 -89t-171.5 -25.5q-138 0 -205 67t-67 190
q0 103 54 204l86 -26q-27 -74 -27 -156q0 -144 171 -144q109 0 156 39.5t47 131.5q0 58 -16 115t-49 125l124 49q13 -42 36 -106q15 -41 33 -62t41 -28q61 161 160 246t211 85q57 0 105 -26t77 -80t29 -134q0 -39 -5 -62q20 -19 42.5 -26.5t51.5 -7.5zM1066 143
q60 8 85.5 30t25.5 66q0 62 -30.5 82t-79.5 20q-71 0 -138.5 -45t-131.5 -161h91q118 0 178 8z" />
    <glyph glyph-name="uniFEC0" unicode="&#x636;" horiz-adv-x="952" arabic-form="medial" 
d="M581 548q-19 19 -19 47q0 27 19 46t47 19q27 0 46 -19t19 -46q0 -28 -19 -47t-46 -19q-28 0 -47 19zM972 60l-20 -60q-40 0 -74.5 18t-58.5 48q-42 -39 -122.5 -52.5t-226.5 -13.5h-145q-59 0 -98 15t-64 52q-25 -38 -62.5 -52.5t-100.5 -14.5l-20 62l32 73q46 0 66 8.5
t24.5 26t4.5 58.5v169h112v-168q0 -33 5.5 -51t21 -28t46.5 -13q60 162 159 248t212 86q57 0 105 -26t77 -80t29 -134q0 -39 -5 -62q20 -19 42.5 -26.5t51.5 -7.5zM662.5 143q60.5 8 86 30t25.5 66q0 62 -31 82t-80 20q-71 0 -138.5 -45t-131.5 -161h91q118 0 178.5 8z" />
    <glyph glyph-name="uniFEBF" unicode="&#x636;" horiz-adv-x="924" arabic-form="initial" 
d="M581 548q-19 19 -19 47q0 27 19 46t47 19q27 0 46 -19t19 -46q0 -28 -19 -47t-46 -19q-28 0 -47 19zM768 445q48 -26 77 -80t29 -134q0 -100 -40 -149.5t-123.5 -65.5t-240.5 -16h-145q-59 0 -98 15t-64 52q-25 -38 -62.5 -52.5t-100.5 -14.5l-20 62l32 73q46 0 66 8.5
t24.5 26t4.5 58.5v169h112v-168q0 -33 5.5 -51t21 -28t46.5 -13q60 162 159 248t212 86q57 0 105 -26zM662.5 143q60.5 8 86 30t25.5 66q0 62 -31 82t-80 20q-71 0 -138.5 -45t-131.5 -161h91q118 0 178.5 8z" />
    <glyph glyph-name="uni06FB.init" unicode="&#x6fb;" horiz-adv-x="924" 
d="M581 548q-19 19 -19 47q0 27 19 46t47 19q27 0 46 -19t19 -46q0 -28 -19 -47t-46 -19q-28 0 -47 19zM768 445q48 -26 77 -80t29 -134q0 -100 -40 -149.5t-123.5 -65.5t-240.5 -16h-145q-59 0 -98 15t-64 52q-25 -38 -62.5 -52.5t-100.5 -14.5l-20 62l32 73q46 0 66 8.5
t24.5 26t4.5 58.5v169h112v-168q0 -33 5.5 -51t21 -28t46.5 -13q60 162 159 248t212 86q57 0 105 -26zM662.5 143q60.5 8 86 30t25.5 66q0 62 -31 82t-80 20q-71 0 -138.5 -45t-131.5 -161h91q118 0 178.5 8zM542.5 -105q18.5 -19 18.5 -47q0 -27 -18.5 -46t-46.5 -19
t-46.5 19t-18.5 46q0 28 18.5 47t46.5 19t46.5 -19z" />
    <glyph glyph-name="uni06FB.medi" unicode="&#x6fb;" horiz-adv-x="952" 
d="M581 548q-19 19 -19 47q0 27 19 46t47 19q27 0 46 -19t19 -46q0 -28 -19 -47t-46 -19q-28 0 -47 19zM972 60l-20 -60q-40 0 -74.5 18t-58.5 48q-42 -39 -122.5 -52.5t-226.5 -13.5h-145q-59 0 -98 15t-64 52q-25 -38 -62.5 -52.5t-100.5 -14.5l-20 62l32 73q46 0 66 8.5
t24.5 26t4.5 58.5v169h112v-168q0 -33 5.5 -51t21 -28t46.5 -13q60 162 159 248t212 86q57 0 105 -26t77 -80t29 -134q0 -39 -5 -62q20 -19 42.5 -26.5t51.5 -7.5zM662.5 143q60.5 8 86 30t25.5 66q0 62 -31 82t-80 20q-71 0 -138.5 -45t-131.5 -161h91q118 0 178.5 8z
M542.5 -105q18.5 -19 18.5 -47q0 -27 -18.5 -46t-46.5 -19t-46.5 19t-18.5 46q0 28 18.5 47t46.5 19t46.5 -19z" />
    <glyph glyph-name="uni06FB.fina" unicode="&#x6fb;" horiz-adv-x="1356" 
d="M985 548q-19 19 -19 47q0 27 19 46t47 19q27 0 46 -19t19 -46q0 -28 -19 -47t-46 -19q-28 0 -47 19zM1376 60l-20 -60q-40 0 -74.5 18t-58.5 48q-42 -39 -123 -52.5t-227 -13.5h-144q-56 0 -92 30q-4 -111 -44 -174.5t-109.5 -89t-171.5 -25.5q-138 0 -205 67t-67 190
q0 103 54 204l86 -26q-27 -74 -27 -156q0 -144 171 -144q109 0 156 39.5t47 131.5q0 58 -16 115t-49 125l124 49q13 -42 36 -106q15 -41 33 -62t41 -28q61 161 160 246t211 85q57 0 105 -26t77 -80t29 -134q0 -39 -5 -62q20 -19 42.5 -26.5t51.5 -7.5zM1066 143
q60 8 85.5 30t25.5 66q0 62 -30.5 82t-79.5 20q-71 0 -138.5 -45t-131.5 -161h91q118 0 178 8zM946.5 -105q18.5 -19 18.5 -47q0 -27 -18.5 -46t-46.5 -19t-46.5 19t-18.5 46q0 28 18.5 47t46.5 19t46.5 -19z" />
    <glyph glyph-name="uniFEC2" unicode="&#x637;" horiz-adv-x="852" arabic-form="final" 
d="M872 60l-20 -60q-43 0 -80 20.5t-61 55.5q-40 -45 -123.5 -60.5t-236.5 -15.5h-326l26 135h102l9 18l17 34v575l112 13v-429q58 62 123 93.5t131 31.5q57 0 105 -26t77 -80t29 -134q0 -17 -2 -45q24 -29 49 -40t60 -11zM544 143q60 8 85.5 30t25.5 66q0 62 -30.5 82
t-79.5 20q-71 0 -139 -45t-135 -161h95q118 0 178 8z" />
    <glyph glyph-name="uniFEC4" unicode="&#x637;" horiz-adv-x="825" arabic-form="medial" 
d="M845 60l-20 -60q-44 0 -80.5 21t-59.5 56q-40 -46 -123 -61.5t-237 -15.5h-326v2l-19 59l31 74h116q11 24 26 53v574l112 13v-428q58 61 123 92.5t131 31.5q57 0 104.5 -26t76.5 -80t29 -134q0 -16 -2 -44q23 -30 49 -41t61 -11zM517.5 143q60.5 8 86 30t25.5 66
q0 62 -30.5 82t-79.5 20q-71 0 -139.5 -45t-134.5 -161h94q118 0 178.5 8z" />
    <glyph glyph-name="uniFEC3" unicode="&#x637;" horiz-adv-x="780" arabic-form="initial" 
d="M623.5 445q47.5 -26 76.5 -80t29 -134q0 -100 -40 -149.5t-123.5 -65.5t-240.5 -16h-326v2l-19 59l31 74h116q11 24 26 53v574l112 13v-428q58 61 123 92.5t131 31.5q57 0 104.5 -26zM517.5 143q60.5 8 86 30t25.5 66q0 62 -30.5 82t-79.5 20q-71 0 -139.5 -45
t-134.5 -161h94q118 0 178.5 8z" />
    <glyph glyph-name="uni069F.init" unicode="&#x69f;" horiz-adv-x="780" 
d="M623.5 445q47.5 -26 76.5 -80t29 -134q0 -100 -40 -149.5t-123.5 -65.5t-240.5 -16h-326v2l-19 59l31 74h116q11 24 26 53v574l112 13v-428q58 61 123 92.5t131 31.5q57 0 104.5 -26zM517.5 143q60.5 8 86 30t25.5 66q0 62 -30.5 82t-79.5 20q-71 0 -139.5 -45
t-134.5 -161h94q118 0 178.5 8zM450 680q-17 17 -17 41t17 41t40 17t40 -17t17 -41t-17 -41t-40 -17t-40 17zM361 549q-17 17 -17 40q0 25 17 42t42 17q23 0 40 -17.5t17 -41.5q0 -23 -17 -40t-40 -17q-25 0 -42 17zM537 549q-17 17 -17 40q0 24 17 41.5t40 17.5
q25 0 42 -17t17 -42q0 -23 -17 -40t-42 -17q-23 0 -40 17z" />
    <glyph glyph-name="uni069F.medi" unicode="&#x69f;" horiz-adv-x="825" 
d="M845 60l-20 -60q-44 0 -80.5 21t-59.5 56q-40 -46 -123 -61.5t-237 -15.5h-326v2l-19 59l31 74h116q11 24 26 53v574l112 13v-428q58 61 123 92.5t131 31.5q57 0 104.5 -26t76.5 -80t29 -134q0 -16 -2 -44q23 -30 49 -41t61 -11zM517.5 143q60.5 8 86 30t25.5 66
q0 62 -30.5 82t-79.5 20q-71 0 -139.5 -45t-134.5 -161h94q118 0 178.5 8zM450 680q-17 17 -17 41t17 41t40 17t40 -17t17 -41t-17 -41t-40 -17t-40 17zM361 549q-17 17 -17 40q0 25 17 42t42 17q23 0 40 -17.5t17 -41.5q0 -23 -17 -40t-40 -17q-25 0 -42 17zM537 549
q-17 17 -17 40q0 24 17 41.5t40 17.5q25 0 42 -17t17 -42q0 -23 -17 -40t-42 -17q-23 0 -40 17z" />
    <glyph glyph-name="uni069F.fina" unicode="&#x69f;" horiz-adv-x="852" 
d="M872 60l-20 -60q-43 0 -80 20.5t-61 55.5q-40 -45 -123.5 -60.5t-236.5 -15.5h-326l26 135h102l9 18l17 34v575l112 13v-429q58 62 123 93.5t131 31.5q57 0 105 -26t77 -80t29 -134q0 -17 -2 -45q24 -29 49 -40t60 -11zM544 143q60 8 85.5 30t25.5 66q0 62 -30.5 82
t-79.5 20q-71 0 -139 -45t-135 -161h95q118 0 178 8zM476 680q-17 17 -17 41t17 41t40 17t40 -17t17 -41t-17 -41t-40 -17t-40 17zM387 549q-17 17 -17 40q0 25 17 42t42 17q23 0 40 -17.5t17 -41.5q0 -23 -17 -40t-40 -17q-25 0 -42 17zM563 549q-17 17 -17 40
q0 24 17 41.5t40 17.5q25 0 42 -17t17 -42q0 -23 -17 -40t-42 -17q-23 0 -40 17z" />
    <glyph glyph-name="uniFEC6" unicode="&#x638;" horiz-adv-x="852" arabic-form="final" 
d="M872 60l-20 -60q-43 0 -80 20.5t-61 55.5q-40 -45 -123.5 -60.5t-236.5 -15.5h-326l26 135h102l9 18l17 34v575l112 13v-429q58 62 123 93.5t131 31.5q57 0 105 -26t77 -80t29 -134q0 -17 -2 -45q24 -29 49 -40t60 -11zM544 143q60 8 85.5 30t25.5 66q0 62 -30.5 82
t-79.5 20q-71 0 -139 -45t-135 -161h95q118 0 178 8zM467.5 548q-18.5 19 -18.5 46q0 28 18.5 47t46.5 19t46.5 -19t18.5 -47q0 -27 -18.5 -46t-46.5 -19t-46.5 19z" />
    <glyph glyph-name="uniFEC8" unicode="&#x638;" horiz-adv-x="825" arabic-form="medial" 
d="M845 60l-20 -60q-44 0 -80.5 21t-59.5 56q-40 -46 -123 -61.5t-237 -15.5h-326v2l-19 59l31 74h116q11 24 26 53v574l112 13v-428q58 61 123 92.5t131 31.5q57 0 104.5 -26t76.5 -80t29 -134q0 -16 -2 -44q23 -30 49 -41t61 -11zM517.5 143q60.5 8 86 30t25.5 66
q0 62 -30.5 82t-79.5 20q-71 0 -139.5 -45t-134.5 -161h94q118 0 178.5 8zM441.5 548q-18.5 19 -18.5 46q0 28 18.5 47t46.5 19t46.5 -19t18.5 -47q0 -27 -18.5 -46t-46.5 -19t-46.5 19z" />
    <glyph glyph-name="uniFEC7" unicode="&#x638;" horiz-adv-x="780" arabic-form="initial" 
d="M623.5 445q47.5 -26 76.5 -80t29 -134q0 -100 -40 -149.5t-123.5 -65.5t-240.5 -16h-326v2l-19 59l31 74h116q11 24 26 53v574l112 13v-428q58 61 123 92.5t131 31.5q57 0 104.5 -26zM517.5 143q60.5 8 86 30t25.5 66q0 62 -30.5 82t-79.5 20q-71 0 -139.5 -45
t-134.5 -161h94q118 0 178.5 8zM441.5 548q-18.5 19 -18.5 46q0 28 18.5 47t46.5 19t46.5 -19t18.5 -47q0 -27 -18.5 -46t-46.5 -19t-46.5 19z" />
    <glyph glyph-name="uniFECA" unicode="&#x639;" horiz-adv-x="582" arabic-form="final" 
d="M553 -187l48 -118q-46 -30 -113.5 -47t-152.5 -17q-105 0 -173.5 37t-100 95.5t-31.5 124.5q0 187 173 273q-39 40 -74.5 71.5t-89.5 68.5l16 126q112 40 229 40q115 0 170 -39t55 -112q0 -53 -26.5 -94t-81.5 -75q22 -7 55 -9.5t89 -2.5h48l9 -72l-20 -63h-65
q-65 0 -122 20t-114 67q-80 -40 -115 -82.5t-35 -95.5q0 -64 53 -102.5t159 -38.5q125 0 210 45zM313 205q51 23 74 44t23 47q0 25 -28 37t-94 12q-64 0 -130 -17q52 -35 155 -123z" />
    <glyph glyph-name="uniFECC" unicode="&#x639;" horiz-adv-x="609" arabic-form="medial" 
d="M629 62l-20 -62h-46q-69 0 -125.5 16.5t-106.5 53.5q-64 -33 -136.5 -51.5t-147.5 -18.5h-47l-20 63l31 72h19q110 0 204 26q-36 39 -72 71t-91 68l16 126q46 18 105.5 29.5t120.5 11.5q113 0 168.5 -39t55.5 -112q0 -42 -24.5 -85.5t-68.5 -83.5q25 -7 57 -9.5t82 -2.5
h37zM260.5 274l85.5 -71q44 22 68 46.5t24 45.5q0 25 -28.5 37.5t-91.5 12.5t-129 -17q31 -21 71.5 -54z" />
    <glyph glyph-name="uniFECB" unicode="&#x639;" horiz-adv-x="566" arabic-form="initial" 
d="M553 53q-129 -33 -218 -43t-188 -10h-147l-20 61l31 74h110h25q-39 36 -59 77t-20 81q0 49 27.5 93t81 71.5t128.5 27.5q91 0 166 -40l-53 -123q-29 15 -59 22.5t-54 7.5q-59 0 -88.5 -24t-29.5 -60q0 -71 89 -129q54 4 109.5 14.5t154.5 34.5z" />
    <glyph glyph-name="uni06A0.init" unicode="&#x6a0;" horiz-adv-x="566" 
d="M553 53q-129 -33 -218 -43t-188 -10h-147l-20 61l31 74h110h25q-39 36 -59 77t-20 81q0 49 27.5 93t81 71.5t128.5 27.5q91 0 166 -40l-53 -123q-29 15 -59 22.5t-54 7.5q-59 0 -88.5 -24t-29.5 -60q0 -71 89 -129q54 4 109.5 14.5t154.5 34.5zM264 704q-17 17 -17 41
t17 41t40 17t40 -17t17 -41t-17 -41t-40 -17t-40 17zM175 573q-17 17 -17 40q0 25 17 42t42 17q23 0 40 -17.5t17 -41.5q0 -23 -17 -40t-40 -17q-25 0 -42 17zM351 573q-17 17 -17 40q0 24 17 41.5t40 17.5q25 0 42 -17t17 -42q0 -23 -17 -40t-42 -17q-23 0 -40 17z" />
    <glyph glyph-name="uni06A0.medi" unicode="&#x6a0;" horiz-adv-x="609" 
d="M629 62l-20 -62h-46q-69 0 -125.5 16.5t-106.5 53.5q-64 -33 -136.5 -51.5t-147.5 -18.5h-47l-20 63l31 72h19q110 0 204 26q-36 39 -72 71t-91 68l16 126q46 18 105.5 29.5t120.5 11.5q113 0 168.5 -39t55.5 -112q0 -42 -24.5 -85.5t-68.5 -83.5q25 -7 57 -9.5t82 -2.5
h37zM260.5 274l85.5 -71q44 22 68 46.5t24 45.5q0 25 -28.5 37.5t-91.5 12.5t-129 -17q31 -21 71.5 -54zM272 692q-17 17 -17 41t17 41t40 17t40 -17t17 -41t-17 -41t-40 -17t-40 17zM183 561q-17 17 -17 40q0 25 17 42t42 17q23 0 40 -17.5t17 -41.5q0 -23 -17 -40t-40 -17
q-25 0 -42 17zM359 561q-17 17 -17 40q0 24 17 41.5t40 17.5q25 0 42 -17t17 -42q0 -23 -17 -40t-42 -17q-23 0 -40 17z" />
    <glyph glyph-name="uni06A0.fina" unicode="&#x6a0;" horiz-adv-x="582" 
d="M553 -187l48 -118q-46 -30 -113.5 -47t-152.5 -17q-105 0 -173.5 37t-100 95.5t-31.5 124.5q0 187 173 273q-39 40 -74.5 71.5t-89.5 68.5l16 126q112 40 229 40q115 0 170 -39t55 -112q0 -53 -26.5 -94t-81.5 -75q22 -7 55 -9.5t89 -2.5h48l9 -72l-20 -63h-65
q-65 0 -122 20t-114 67q-80 -40 -115 -82.5t-35 -95.5q0 -64 53 -102.5t159 -38.5q125 0 210 45zM313 205q51 23 74 44t23 47q0 25 -28 37t-94 12q-64 0 -130 -17q52 -35 155 -123zM256 692q-17 17 -17 41t17 41t40 17t40 -17t17 -41t-17 -41t-40 -17t-40 17zM167 561
q-17 17 -17 40q0 25 17 42t42 17q23 0 40 -17.5t17 -41.5q0 -23 -17 -40t-40 -17q-25 0 -42 17zM343 561q-17 17 -17 40q0 24 17 41.5t40 17.5q25 0 42 -17t17 -42q0 -23 -17 -40t-42 -17q-23 0 -40 17z" />
    <glyph glyph-name="uniFECE" unicode="&#x63a;" horiz-adv-x="582" arabic-form="final" 
d="M553 -187l48 -118q-46 -30 -113.5 -47t-152.5 -17q-105 0 -173.5 37t-100 95.5t-31.5 124.5q0 187 173 273q-39 40 -74.5 71.5t-89.5 68.5l16 126q112 40 229 40q115 0 170 -39t55 -112q0 -53 -26.5 -94t-81.5 -75q22 -7 55 -9.5t89 -2.5h48l9 -72l-20 -63h-65
q-65 0 -122 20t-114 67q-80 -40 -115 -82.5t-35 -95.5q0 -64 53 -102.5t159 -38.5q125 0 210 45zM313 205q51 23 74 44t23 47q0 25 -28 37t-94 12q-64 0 -130 -17q52 -35 155 -123zM248.5 560q-18.5 19 -18.5 46q0 28 18.5 47t46.5 19t46.5 -19t18.5 -47q0 -27 -18.5 -46
t-46.5 -19t-46.5 19z" />
    <glyph glyph-name="uniFED0" unicode="&#x63a;" horiz-adv-x="609" arabic-form="medial" 
d="M629 62l-20 -62h-46q-69 0 -125.5 16.5t-106.5 53.5q-64 -33 -136.5 -51.5t-147.5 -18.5h-47l-20 63l31 72h19q110 0 204 26q-36 39 -72 71t-91 68l16 126q46 18 105.5 29.5t120.5 11.5q113 0 168.5 -39t55.5 -112q0 -42 -24.5 -85.5t-68.5 -83.5q25 -7 57 -9.5t82 -2.5
h37zM260.5 274l85.5 -71q44 22 68 46.5t24 45.5q0 25 -28.5 37.5t-91.5 12.5t-129 -17q31 -21 71.5 -54zM263.5 560q-18.5 19 -18.5 46q0 28 18.5 47t46.5 19t46.5 -19t18.5 -47q0 -27 -18.5 -46t-46.5 -19t-46.5 19z" />
    <glyph glyph-name="uniFECF" unicode="&#x63a;" horiz-adv-x="566" arabic-form="initial" 
d="M553 53q-129 -33 -218 -43t-188 -10h-147l-20 61l31 74h110h25q-39 36 -59 77t-20 81q0 49 27.5 93t81 71.5t128.5 27.5q91 0 166 -40l-53 -123q-29 15 -59 22.5t-54 7.5q-59 0 -88.5 -24t-29.5 -60q0 -71 89 -129q54 4 109.5 14.5t154.5 34.5zM255.5 572
q-18.5 19 -18.5 46q0 28 18.5 47t46.5 19t46.5 -19t18.5 -47q0 -27 -18.5 -46t-46.5 -19t-46.5 19z" />
    <glyph glyph-name="uni06FC.init" unicode="&#x6fc;" horiz-adv-x="566" 
d="M553 53q-129 -33 -218 -43t-188 -10h-147l-20 61l31 74h110h25q-39 36 -59 77t-20 81q0 49 27.5 93t81 71.5t128.5 27.5q91 0 166 -40l-53 -123q-29 15 -59 22.5t-54 7.5q-59 0 -88.5 -24t-29.5 -60q0 -71 89 -129q54 4 109.5 14.5t154.5 34.5zM255.5 572
q-18.5 19 -18.5 46q0 28 18.5 47t46.5 19t46.5 -19t18.5 -47q0 -27 -18.5 -46t-46.5 -19t-46.5 19zM213.5 -198q-18.5 19 -18.5 46q0 28 18.5 47t46.5 19t46.5 -19t18.5 -47q0 -27 -18.5 -46t-46.5 -19t-46.5 19z" />
    <glyph glyph-name="uni06FC.medi" unicode="&#x6fc;" horiz-adv-x="609" 
d="M629 62l-20 -62h-46q-69 0 -125.5 16.5t-106.5 53.5q-64 -33 -136.5 -51.5t-147.5 -18.5h-47l-20 63l31 72h19q110 0 204 26q-36 39 -72 71t-91 68l16 126q46 18 105.5 29.5t120.5 11.5q113 0 168.5 -39t55.5 -112q0 -42 -24.5 -85.5t-68.5 -83.5q25 -7 57 -9.5t82 -2.5
h37zM260.5 274l85.5 -71q44 22 68 46.5t24 45.5q0 25 -28.5 37.5t-91.5 12.5t-129 -17q31 -21 71.5 -54zM263.5 560q-18.5 19 -18.5 46q0 28 18.5 47t46.5 19t46.5 -19t18.5 -47q0 -27 -18.5 -46t-46.5 -19t-46.5 19zM284.5 -198q-18.5 19 -18.5 46q0 28 18.5 47t46.5 19
t46.5 -19t18.5 -47q0 -27 -18.5 -46t-46.5 -19t-46.5 19z" />
    <glyph glyph-name="uni06FC.fina" unicode="&#x6fc;" horiz-adv-x="582" 
d="M553 -187l48 -118q-46 -30 -113.5 -47t-152.5 -17q-105 0 -173.5 37t-100 95.5t-31.5 124.5q0 187 173 273q-39 40 -74.5 71.5t-89.5 68.5l16 126q112 40 229 40q115 0 170 -39t55 -112q0 -53 -26.5 -94t-81.5 -75q22 -7 55 -9.5t89 -2.5h48l9 -72l-20 -63h-65
q-65 0 -122 20t-114 67q-80 -40 -115 -82.5t-35 -95.5q0 -64 53 -102.5t159 -38.5q125 0 210 45zM313 205q51 23 74 44t23 47q0 25 -28 37t-94 12q-64 0 -130 -17q52 -35 155 -123zM248.5 560q-18.5 19 -18.5 46q0 28 18.5 47t46.5 19t46.5 -19t18.5 -47q0 -27 -18.5 -46
t-46.5 -19t-46.5 19zM270.5 -126q-18.5 19 -18.5 46q0 28 18.5 47t46.5 19t46.5 -19t18.5 -47q0 -27 -18.5 -46t-46.5 -19t-46.5 19z" />
    <glyph glyph-name="uniFED2" unicode="&#x641;" horiz-adv-x="975" arabic-form="final" 
d="M995 62l-21 -62h-53q-51 0 -105.5 13.5t-103.5 37.5q-123 -56 -296 -66l-1 -2h-43h-36l-1 2q-117 5 -180.5 28t-89 66.5t-25.5 117.5q0 39 10.5 81.5t28.5 80.5l86 -27q-17 -66 -17 -106t19.5 -62t71 -33.5t149.5 -12.5q135 3 208 15q-74 77 -74 165q0 56 26 103.5
t69.5 75t94.5 27.5q57 0 101 -27t68.5 -74t24.5 -104q0 -41 -17.5 -82t-52.5 -79q33 -3 66 -3h83zM715 165q88 39 88 119q0 39 -25.5 65.5t-63.5 26.5q-39 0 -65 -27t-26 -66q0 -80 92 -118zM664.5 590q-18.5 19 -18.5 46q0 28 18.5 47t46.5 19t46.5 -19t18.5 -47
q0 -27 -18.5 -46t-46.5 -19t-46.5 19z" />
    <glyph glyph-name="uniFED4" unicode="&#x641;" horiz-adv-x="531" arabic-form="medial" 
d="M551 62l-20 -62h-73q-45 0 -94 13t-95 36q-98 -49 -210 -49h-59l-20 62l31 73h62q40 0 76 3q-71 78 -71 164q0 56 26 103t70 74.5t94 27.5q57 0 101.5 -27t69 -73.5t24.5 -103.5q0 -40 -19 -82t-54 -81q38 -5 97 -5h54zM273 166q87 37 87 120q0 39 -26 65.5t-64 26.5
q-39 0 -65 -27.5t-26 -66.5q0 -82 94 -118zM220.5 593q-18.5 19 -18.5 46q0 28 18.5 47t46.5 19t46.5 -19t18.5 -47q0 -27 -18.5 -46t-46.5 -19t-46.5 19z" />
    <glyph glyph-name="uniFED3" unicode="&#x641;" horiz-adv-x="476" arabic-form="initial" 
d="M323.5 562.5q46.5 -33.5 74.5 -101.5t28 -166q0 -120 -42 -183.5t-132 -87.5t-252 -24l-20 63l31 72q121 0 186.5 9.5t92.5 29t33 53.5q-38 -28 -110 -28q-82 0 -133.5 49.5t-51.5 133.5q0 60 26 109t70.5 77t96.5 28q56 0 102.5 -33.5zM156 329.5q29 -22.5 88 -22.5
q39 0 80 13q-14 155 -106 155q-40 0 -65.5 -22.5t-25.5 -58.5q0 -42 29 -64.5zM172.5 683q-18.5 19 -18.5 46q0 28 18.5 47t46.5 19t46.5 -19t18.5 -47q0 -27 -18.5 -46t-46.5 -19t-46.5 19z" />
    <glyph glyph-name="uniFB6B" unicode="&#x6a4;" horiz-adv-x="975" arabic-form="final" 
d="M995 62l-21 -62h-53q-51 0 -105.5 13.5t-103.5 37.5q-123 -56 -296 -66l-1 -2h-43h-36l-1 2q-117 5 -180.5 28t-89 66.5t-25.5 117.5q0 39 10.5 81.5t28.5 80.5l86 -27q-17 -66 -17 -106t19.5 -62t71 -33.5t149.5 -12.5q135 3 208 15q-74 77 -74 165q0 56 26 103.5
t69.5 75t94.5 27.5q57 0 101 -27t68.5 -74t24.5 -104q0 -41 -17.5 -82t-52.5 -79q33 -3 66 -3h83zM715 165q88 39 88 119q0 39 -25.5 65.5t-63.5 26.5q-39 0 -65 -27t-26 -66q0 -80 92 -118zM672 722q-17 17 -17 41t17 41t40 17t40 -17t17 -41t-17 -41t-40 -17t-40 17z
M583 591q-17 17 -17 40q0 25 17 42t42 17q23 0 40 -17.5t17 -41.5q0 -23 -17 -40t-40 -17q-25 0 -42 17zM759 591q-17 17 -17 40q0 24 17 41.5t40 17.5q25 0 42 -17t17 -42q0 -23 -17 -40t-42 -17q-23 0 -40 17z" />
    <glyph glyph-name="uniFB6D" unicode="&#x6a4;" horiz-adv-x="531" arabic-form="medial" 
d="M551 62l-20 -62h-73q-45 0 -94 13t-95 36q-98 -49 -210 -49h-59l-20 62l31 73h62q40 0 76 3q-71 78 -71 164q0 56 26 103t70 74.5t94 27.5q57 0 101.5 -27t69 -73.5t24.5 -103.5q0 -40 -19 -82t-54 -81q38 -5 97 -5h54zM273 166q87 37 87 120q0 39 -26 65.5t-64 26.5
q-39 0 -65 -27.5t-26 -66.5q0 -82 94 -118zM229 725q-17 17 -17 41t17 41t40 17t40 -17t17 -41t-17 -41t-40 -17t-40 17zM140 594q-17 17 -17 40q0 25 17 42t42 17q23 0 40 -17.5t17 -41.5q0 -23 -17 -40t-40 -17q-25 0 -42 17zM316 594q-17 17 -17 40q0 24 17 41.5t40 17.5
q25 0 42 -17t17 -42q0 -23 -17 -40t-42 -17q-23 0 -40 17z" />
    <glyph glyph-name="uniFB6C" unicode="&#x6a4;" horiz-adv-x="476" arabic-form="initial" 
d="M323.5 562.5q46.5 -33.5 74.5 -101.5t28 -166q0 -120 -42 -183.5t-132 -87.5t-252 -24l-20 63l31 72q121 0 186.5 9.5t92.5 29t33 53.5q-38 -28 -110 -28q-82 0 -133.5 49.5t-51.5 133.5q0 60 26 109t70.5 77t96.5 28q56 0 102.5 -33.5zM156 329.5q29 -22.5 88 -22.5
q39 0 80 13q-14 155 -106 155q-40 0 -65.5 -22.5t-25.5 -58.5q0 -42 29 -64.5zM181 815q-17 17 -17 41t17 41t40 17t40 -17t17 -41t-17 -41t-40 -17t-40 17zM92 684q-17 17 -17 40q0 25 17 42t42 17q23 0 40 -17.5t17 -41.5q0 -23 -17 -40t-40 -17q-25 0 -42 17zM268 684
q-17 17 -17 40q0 24 17 41.5t40 17.5q25 0 42 -17t17 -42q0 -23 -17 -40t-42 -17q-23 0 -40 17z" />
    <glyph glyph-name="uni06A1.init" unicode="&#x6a1;" horiz-adv-x="476" 
d="M323.5 562.5q46.5 -33.5 74.5 -101.5t28 -166q0 -120 -42 -183.5t-132 -87.5t-252 -24l-20 63l31 72q121 0 186.5 9.5t92.5 29t33 53.5q-38 -28 -110 -28q-82 0 -133.5 49.5t-51.5 133.5q0 60 26 109t70.5 77t96.5 28q56 0 102.5 -33.5zM156 329.5q29 -22.5 88 -22.5
q39 0 80 13q-14 155 -106 155q-40 0 -65.5 -22.5t-25.5 -58.5q0 -42 29 -64.5z" />
    <glyph glyph-name="uni06A1.medi" unicode="&#x6a1;" horiz-adv-x="531" 
d="M551 62l-20 -62h-73q-45 0 -94 13t-95 36q-98 -49 -210 -49h-59l-20 62l31 73h62q40 0 76 3q-71 78 -71 164q0 56 26 103t70 74.5t94 27.5q57 0 101.5 -27t69 -73.5t24.5 -103.5q0 -40 -19 -82t-54 -81q38 -5 97 -5h54zM273 166q87 37 87 120q0 39 -26 65.5t-64 26.5
q-39 0 -65 -27.5t-26 -66.5q0 -82 94 -118z" />
    <glyph glyph-name="uni06A1.fina" unicode="&#x6a1;" horiz-adv-x="975" 
d="M995 62l-21 -62h-53q-51 0 -105.5 13.5t-103.5 37.5q-123 -56 -296 -66l-1 -2h-43h-36l-1 2q-117 5 -180.5 28t-89 66.5t-25.5 117.5q0 39 10.5 81.5t28.5 80.5l86 -27q-17 -66 -17 -106t19.5 -62t71 -33.5t149.5 -12.5q135 3 208 15q-74 77 -74 165q0 56 26 103.5
t69.5 75t94.5 27.5q57 0 101 -27t68.5 -74t24.5 -104q0 -41 -17.5 -82t-52.5 -79q33 -3 66 -3h83zM715 165q88 39 88 119q0 39 -25.5 65.5t-63.5 26.5q-39 0 -65 -27t-26 -66q0 -80 92 -118z" />
    <glyph glyph-name="uni06A2.init" unicode="&#x6a2;" horiz-adv-x="476" 
d="M323.5 562.5q46.5 -33.5 74.5 -101.5t28 -166q0 -120 -42 -183.5t-132 -87.5t-252 -24l-20 63l31 72q121 0 186.5 9.5t92.5 29t33 53.5q-38 -28 -110 -28q-82 0 -133.5 49.5t-51.5 133.5q0 60 26 109t70.5 77t96.5 28q56 0 102.5 -33.5zM156 329.5q29 -22.5 88 -22.5
q39 0 80 13q-14 155 -106 155q-40 0 -65.5 -22.5t-25.5 -58.5q0 -42 29 -64.5zM163.5 -198q-18.5 19 -18.5 46q0 28 18.5 47t46.5 19t46.5 -19t18.5 -47q0 -27 -18.5 -46t-46.5 -19t-46.5 19z" />
    <glyph glyph-name="uni06A2.medi" unicode="&#x6a2;" horiz-adv-x="531" 
d="M551 62l-20 -62h-73q-45 0 -94 13t-95 36q-98 -49 -210 -49h-59l-20 62l31 73h62q40 0 76 3q-71 78 -71 164q0 56 26 103t70 74.5t94 27.5q57 0 101.5 -27t69 -73.5t24.5 -103.5q0 -40 -19 -82t-54 -81q38 -5 97 -5h54zM273 166q87 37 87 120q0 39 -26 65.5t-64 26.5
q-39 0 -65 -27.5t-26 -66.5q0 -82 94 -118zM223.5 -198q-18.5 19 -18.5 46q0 28 18.5 47t46.5 19t46.5 -19t18.5 -47q0 -27 -18.5 -46t-46.5 -19t-46.5 19z" />
    <glyph glyph-name="uni06A2.fina" unicode="&#x6a2;" horiz-adv-x="975" 
d="M995 62l-21 -62h-53q-51 0 -105.5 13.5t-103.5 37.5q-123 -56 -296 -66l-1 -2h-43h-36l-1 2q-117 5 -180.5 28t-89 66.5t-25.5 117.5q0 39 10.5 81.5t28.5 80.5l86 -27q-17 -66 -17 -106t19.5 -62t71 -33.5t149.5 -12.5q135 3 208 15q-74 77 -74 165q0 56 26 103.5
t69.5 75t94.5 27.5q57 0 101 -27t68.5 -74t24.5 -104q0 -41 -17.5 -82t-52.5 -79q33 -3 66 -3h83zM715 165q88 39 88 119q0 39 -25.5 65.5t-63.5 26.5q-39 0 -65 -27t-26 -66q0 -80 92 -118zM667.5 -198q-18.5 19 -18.5 46q0 28 18.5 47t46.5 19t46.5 -19t18.5 -47
q0 -27 -18.5 -46t-46.5 -19t-46.5 19z" />
    <glyph glyph-name="uni06A3.init" unicode="&#x6a3;" horiz-adv-x="476" 
d="M323.5 562.5q46.5 -33.5 74.5 -101.5t28 -166q0 -120 -42 -183.5t-132 -87.5t-252 -24l-20 63l31 72q121 0 186.5 9.5t92.5 29t33 53.5q-38 -28 -110 -28q-82 0 -133.5 49.5t-51.5 133.5q0 60 26 109t70.5 77t96.5 28q56 0 102.5 -33.5zM156 329.5q29 -22.5 88 -22.5
q39 0 80 13q-14 155 -106 155q-40 0 -65.5 -22.5t-25.5 -58.5q0 -42 29 -64.5zM172.5 683q-18.5 19 -18.5 46q0 28 18.5 47t46.5 19t46.5 -19t18.5 -47q0 -27 -18.5 -46t-46.5 -19t-46.5 19zM157.5 -198q-18.5 19 -18.5 46q0 28 18.5 47t46.5 19t46.5 -19t18.5 -47
q0 -27 -18.5 -46t-46.5 -19t-46.5 19z" />
    <glyph glyph-name="uni06A3.medi" unicode="&#x6a3;" horiz-adv-x="531" 
d="M551 62l-20 -62h-73q-45 0 -94 13t-95 36q-98 -49 -210 -49h-59l-20 62l31 73h62q40 0 76 3q-71 78 -71 164q0 56 26 103t70 74.5t94 27.5q57 0 101.5 -27t69 -73.5t24.5 -103.5q0 -40 -19 -82t-54 -81q38 -5 97 -5h54zM273 166q87 37 87 120q0 39 -26 65.5t-64 26.5
q-39 0 -65 -27.5t-26 -66.5q0 -82 94 -118zM220.5 593q-18.5 19 -18.5 46q0 28 18.5 47t46.5 19t46.5 -19t18.5 -47q0 -27 -18.5 -46t-46.5 -19t-46.5 19zM219.5 -198q-18.5 19 -18.5 46q0 28 18.5 47t46.5 19t46.5 -19t18.5 -47q0 -27 -18.5 -46t-46.5 -19t-46.5 19z" />
    <glyph glyph-name="uni06A3.fina" unicode="&#x6a3;" horiz-adv-x="975" 
d="M995 62l-21 -62h-53q-51 0 -105.5 13.5t-103.5 37.5q-123 -56 -296 -66l-1 -2h-43h-36l-1 2q-117 5 -180.5 28t-89 66.5t-25.5 117.5q0 39 10.5 81.5t28.5 80.5l86 -27q-17 -66 -17 -106t19.5 -62t71 -33.5t149.5 -12.5q135 3 208 15q-74 77 -74 165q0 56 26 103.5
t69.5 75t94.5 27.5q57 0 101 -27t68.5 -74t24.5 -104q0 -41 -17.5 -82t-52.5 -79q33 -3 66 -3h83zM715 165q88 39 88 119q0 39 -25.5 65.5t-63.5 26.5q-39 0 -65 -27t-26 -66q0 -80 92 -118zM664.5 590q-18.5 19 -18.5 46q0 28 18.5 47t46.5 19t46.5 -19t18.5 -47
q0 -27 -18.5 -46t-46.5 -19t-46.5 19zM664.5 -198q-18.5 19 -18.5 46q0 28 18.5 47t46.5 19t46.5 -19t18.5 -47q0 -27 -18.5 -46t-46.5 -19t-46.5 19z" />
    <glyph glyph-name="uni06A5.init" unicode="&#x6a5;" horiz-adv-x="476" 
d="M323.5 562.5q46.5 -33.5 74.5 -101.5t28 -166q0 -120 -42 -183.5t-132 -87.5t-252 -24l-20 63l31 72q121 0 186.5 9.5t92.5 29t33 53.5q-38 -28 -110 -28q-82 0 -133.5 49.5t-51.5 133.5q0 60 26 109t70.5 77t96.5 28q56 0 102.5 -33.5zM156 329.5q29 -22.5 88 -22.5
q39 0 80 13q-14 155 -106 155q-40 0 -65.5 -22.5t-25.5 -58.5q0 -42 29 -64.5zM163 -106q17 -17 17 -40q0 -24 -17 -41t-40 -17q-25 0 -42 16.5t-17 41.5q0 23 17 40t42 17q23 0 40 -17zM339 -106q17 -17 17 -40q0 -25 -17 -41.5t-42 -16.5q-23 0 -40 17t-17 41q0 23 17 40
t40 17q25 0 42 -17zM250 -237q17 -17 17 -41t-17 -40.5t-40 -16.5t-40 16.5t-17 40.5t17 41t40 17t40 -17z" />
    <glyph glyph-name="uni06A5.medi" unicode="&#x6a5;" horiz-adv-x="531" 
d="M551 62l-20 -62h-73q-45 0 -94 13t-95 36q-98 -49 -210 -49h-59l-20 62l31 73h62q40 0 76 3q-71 78 -71 164q0 56 26 103t70 74.5t94 27.5q57 0 101.5 -27t69 -73.5t24.5 -103.5q0 -40 -19 -82t-54 -81q38 -5 97 -5h54zM273 166q87 37 87 120q0 39 -26 65.5t-64 26.5
q-39 0 -65 -27.5t-26 -66.5q0 -82 94 -118zM223 -106q17 -17 17 -40q0 -24 -17 -41t-40 -17q-25 0 -42 16.5t-17 41.5q0 23 17 40t42 17q23 0 40 -17zM399 -106q17 -17 17 -40q0 -25 -17 -41.5t-42 -16.5q-23 0 -40 17t-17 41q0 23 17 40t40 17q25 0 42 -17zM310 -237
q17 -17 17 -41t-17 -40.5t-40 -16.5t-40 16.5t-17 40.5t17 41t40 17t40 -17z" />
    <glyph glyph-name="uni06A5.fina" unicode="&#x6a5;" horiz-adv-x="975" 
d="M995 62l-21 -62h-53q-51 0 -105.5 13.5t-103.5 37.5q-123 -56 -296 -66l-1 -2h-43h-36l-1 2q-117 5 -180.5 28t-89 66.5t-25.5 117.5q0 39 10.5 81.5t28.5 80.5l86 -27q-17 -66 -17 -106t19.5 -62t71 -33.5t149.5 -12.5q135 3 208 15q-74 77 -74 165q0 56 26 103.5
t69.5 75t94.5 27.5q57 0 101 -27t68.5 -74t24.5 -104q0 -41 -17.5 -82t-52.5 -79q33 -3 66 -3h83zM715 165q88 39 88 119q0 39 -25.5 65.5t-63.5 26.5q-39 0 -65 -27t-26 -66q0 -80 92 -118zM667 -106q17 -17 17 -40q0 -24 -17 -41t-40 -17q-25 0 -42 16.5t-17 41.5
q0 23 17 40t42 17q23 0 40 -17zM843 -106q17 -17 17 -40q0 -25 -17 -41.5t-42 -16.5q-23 0 -40 17t-17 41q0 23 17 40t40 17q25 0 42 -17zM754 -237q17 -17 17 -41t-17 -40.5t-40 -16.5t-40 16.5t-17 40.5t17 41t40 17t40 -17z" />
    <glyph glyph-name="uniFB6F" unicode="&#x6a6;" horiz-adv-x="975" arabic-form="final" 
d="M995 62l-21 -62h-53q-51 0 -105.5 13.5t-103.5 37.5q-123 -56 -296 -66l-1 -2h-43h-36l-1 2q-117 5 -180.5 28t-89 66.5t-25.5 117.5q0 39 10.5 81.5t28.5 80.5l86 -27q-17 -66 -17 -106t19.5 -62t71 -33.5t149.5 -12.5q135 3 208 15q-74 77 -74 165q0 56 26 103.5
t69.5 75t94.5 27.5q57 0 101 -27t68.5 -74t24.5 -104q0 -41 -17.5 -82t-52.5 -79q33 -3 66 -3h83zM715 165q88 39 88 119q0 39 -25.5 65.5t-63.5 26.5q-39 0 -65 -27t-26 -66q0 -80 92 -118zM599.5 716q-16.5 16 -16.5 38q0 24 16 40t40 16q23 0 39 -16t16 -40
q0 -22 -16.5 -38t-38.5 -16q-23 0 -39.5 16zM747.5 716q-16.5 16 -16.5 38q0 24 16 40t39 16q24 0 40 -16t16 -40q0 -22 -16.5 -38t-39.5 -16q-22 0 -38.5 16zM599.5 574q-16.5 16 -16.5 39t16.5 39.5t39.5 16.5t39 -16.5t16 -39.5t-16 -39t-39 -16t-39.5 16zM747 574
q-16 16 -16 39t16 39.5t39 16.5t39.5 -16.5t16.5 -39.5t-16.5 -39t-39.5 -16t-39 16z" />
    <glyph glyph-name="uniFB71" unicode="&#x6a6;" horiz-adv-x="531" arabic-form="medial" 
d="M551 62l-20 -62h-73q-45 0 -94 13t-95 36q-98 -49 -210 -49h-59l-20 62l31 73h62q40 0 76 3q-71 78 -71 164q0 56 26 103t70 74.5t94 27.5q57 0 101.5 -27t69 -73.5t24.5 -103.5q0 -40 -19 -82t-54 -81q38 -5 97 -5h54zM273 166q87 37 87 120q0 39 -26 65.5t-64 26.5
q-39 0 -65 -27.5t-26 -66.5q0 -82 94 -118zM156.5 719q-16.5 16 -16.5 38q0 24 16 40t40 16q23 0 39 -16t16 -40q0 -22 -16.5 -38t-38.5 -16q-23 0 -39.5 16zM304.5 719q-16.5 16 -16.5 38q0 24 16 40t39 16q24 0 40 -16t16 -40q0 -22 -16.5 -38t-39.5 -16q-22 0 -38.5 16z
M156.5 577q-16.5 16 -16.5 39t16.5 39.5t39.5 16.5t39 -16.5t16 -39.5t-16 -39t-39 -16t-39.5 16zM304 577q-16 16 -16 39t16 39.5t39 16.5t39.5 -16.5t16.5 -39.5t-16.5 -39t-39.5 -16t-39 16z" />
    <glyph glyph-name="uniFB70" unicode="&#x6a6;" horiz-adv-x="476" arabic-form="initial" 
d="M323.5 562.5q46.5 -33.5 74.5 -101.5t28 -166q0 -120 -42 -183.5t-132 -87.5t-252 -24l-20 63l31 72q121 0 186.5 9.5t92.5 29t33 53.5q-38 -28 -110 -28q-82 0 -133.5 49.5t-51.5 133.5q0 60 26 109t70.5 77t96.5 28q56 0 102.5 -33.5zM156 329.5q29 -22.5 88 -22.5
q39 0 80 13q-14 155 -106 155q-40 0 -65.5 -22.5t-25.5 -58.5q0 -42 29 -64.5zM108.5 809q-16.5 16 -16.5 38q0 24 16 40t40 16q23 0 39 -16t16 -40q0 -22 -16.5 -38t-38.5 -16q-23 0 -39.5 16zM256.5 809q-16.5 16 -16.5 38q0 24 16 40t39 16q24 0 40 -16t16 -40
q0 -22 -16.5 -38t-39.5 -16q-22 0 -38.5 16zM108.5 667q-16.5 16 -16.5 39t16.5 39.5t39.5 16.5t39 -16.5t16 -39.5t-16 -39t-39 -16t-39.5 16zM256 667q-16 16 -16 39t16 39.5t39 16.5t39.5 -16.5t16.5 -39.5t-16.5 -39t-39.5 -16t-39 16z" />
    <glyph glyph-name="uni066F.init" unicode="&#x66f;" horiz-adv-x="476" 
d="M323.5 562.5q46.5 -33.5 74.5 -101.5t28 -166q0 -120 -42 -183.5t-132 -87.5t-252 -24l-20 63l31 72q121 0 186.5 9.5t92.5 29t33 53.5q-38 -28 -110 -28q-82 0 -133.5 49.5t-51.5 133.5q0 60 26 109t70.5 77t96.5 28q56 0 102.5 -33.5zM156 329.5q29 -22.5 88 -22.5
q39 0 80 13q-14 155 -106 155q-40 0 -65.5 -22.5t-25.5 -58.5q0 -42 29 -64.5z" />
    <glyph glyph-name="uni066F.medi" unicode="&#x66f;" horiz-adv-x="531" 
d="M551 62l-20 -62h-73q-45 0 -94 13t-95 36q-98 -49 -210 -49h-59l-20 62l31 73h62q40 0 76 3q-71 78 -71 164q0 56 26 103t70 74.5t94 27.5q57 0 101.5 -27t69 -73.5t24.5 -103.5q0 -40 -19 -82t-54 -81q38 -5 97 -5h54zM273 166q87 37 87 120q0 39 -26 65.5t-64 26.5
q-39 0 -65 -27.5t-26 -66.5q0 -82 94 -118z" />
    <glyph glyph-name="uni066F.fina" unicode="&#x66f;" horiz-adv-x="811" 
d="M811 0h-95q-20 -133 -102.5 -197.5t-239.5 -64.5q-174 0 -254 65t-80 195q0 104 52 201l87 -25q-26 -69 -26 -154q0 -74 52.5 -110.5t180.5 -36.5q194 0 229 127h-54q-119 0 -177 49.5t-58 137.5q0 61 26 110t70.5 77t96.5 28q53 0 97 -29.5t72.5 -89.5t33.5 -148h100
l9 -74zM622 129q-15 152 -106 152q-40 0 -65.5 -22.5t-25.5 -59.5q0 -39 28 -57t89 -18q46 0 80 5z" />
    <glyph glyph-name="uniFED6" unicode="&#x642;" horiz-adv-x="811" arabic-form="final" 
d="M811 0h-95q-20 -133 -102.5 -197.5t-239.5 -64.5q-174 0 -254 65t-80 195q0 104 52 201l87 -25q-26 -69 -26 -154q0 -74 52.5 -110.5t180.5 -36.5q194 0 229 127h-54q-119 0 -177 49.5t-58 137.5q0 61 26 110t70.5 77t96.5 28q53 0 97 -29.5t72.5 -89.5t33.5 -148h100
l9 -74zM622 129q-15 152 -106 152q-40 0 -65.5 -22.5t-25.5 -59.5q0 -39 28 -57t89 -18q46 0 80 5zM395 500q-18 18 -18 43t18 42.5t42 17.5q25 0 43 -17.5t18 -42.5t-18 -43t-43 -18q-24 0 -42 18zM557.5 500q-17.5 18 -17.5 43t17.5 42.5t42.5 17.5t42.5 -17.5t17.5 -42.5
t-17.5 -43t-42.5 -18t-42.5 18z" />
    <glyph glyph-name="uniFED8" unicode="&#x642;" horiz-adv-x="531" arabic-form="medial" 
d="M551 62l-20 -62h-73q-45 0 -94 13t-95 36q-98 -49 -210 -49h-59l-20 62l31 73h62q40 0 76 3q-71 78 -71 164q0 56 26 103t70 74.5t94 27.5q57 0 101.5 -27t69 -73.5t24.5 -103.5q0 -40 -19 -82t-54 -81q38 -5 97 -5h54zM273 166q87 37 87 120q0 39 -26 65.5t-64 26.5
q-39 0 -65 -27.5t-26 -66.5q0 -82 94 -118zM145 605q-18 18 -18 43t18 42.5t42 17.5q25 0 43 -17.5t18 -42.5t-18 -43t-43 -18q-24 0 -42 18zM307.5 605q-17.5 18 -17.5 43t17.5 42.5t42.5 17.5t42.5 -17.5t17.5 -42.5t-17.5 -43t-42.5 -18t-42.5 18z" />
    <glyph glyph-name="uniFED7" unicode="&#x642;" horiz-adv-x="476" arabic-form="initial" 
d="M323.5 562.5q46.5 -33.5 74.5 -101.5t28 -166q0 -120 -42 -183.5t-132 -87.5t-252 -24l-20 63l31 72q121 0 186.5 9.5t92.5 29t33 53.5q-38 -28 -110 -28q-82 0 -133.5 49.5t-51.5 133.5q0 60 26 109t70.5 77t96.5 28q56 0 102.5 -33.5zM156 329.5q29 -22.5 88 -22.5
q39 0 80 13q-14 155 -106 155q-40 0 -65.5 -22.5t-25.5 -58.5q0 -42 29 -64.5zM97 695q-18 18 -18 43t18 42.5t42 17.5q25 0 43 -17.5t18 -42.5t-18 -43t-43 -18q-24 0 -42 18zM259.5 695q-17.5 18 -17.5 43t17.5 42.5t42.5 17.5t42.5 -17.5t17.5 -42.5t-17.5 -43t-42.5 -18
t-42.5 18z" />
    <glyph glyph-name="uni06A7.init" unicode="&#x6a7;" horiz-adv-x="476" 
d="M323.5 562.5q46.5 -33.5 74.5 -101.5t28 -166q0 -120 -42 -183.5t-132 -87.5t-252 -24l-20 63l31 72q121 0 186.5 9.5t92.5 29t33 53.5q-38 -28 -110 -28q-82 0 -133.5 49.5t-51.5 133.5q0 60 26 109t70.5 77t96.5 28q56 0 102.5 -33.5zM156 329.5q29 -22.5 88 -22.5
q39 0 80 13q-14 155 -106 155q-40 0 -65.5 -22.5t-25.5 -58.5q0 -42 29 -64.5zM172.5 683q-18.5 19 -18.5 46q0 28 18.5 47t46.5 19t46.5 -19t18.5 -47q0 -27 -18.5 -46t-46.5 -19t-46.5 19z" />
    <glyph glyph-name="uni06A7.medi" unicode="&#x6a7;" horiz-adv-x="531" 
d="M551 62l-20 -62h-73q-45 0 -94 13t-95 36q-98 -49 -210 -49h-59l-20 62l31 73h62q40 0 76 3q-71 78 -71 164q0 56 26 103t70 74.5t94 27.5q57 0 101.5 -27t69 -73.5t24.5 -103.5q0 -40 -19 -82t-54 -81q38 -5 97 -5h54zM273 166q87 37 87 120q0 39 -26 65.5t-64 26.5
q-39 0 -65 -27.5t-26 -66.5q0 -82 94 -118zM220.5 593q-18.5 19 -18.5 46q0 28 18.5 47t46.5 19t46.5 -19t18.5 -47q0 -27 -18.5 -46t-46.5 -19t-46.5 19z" />
    <glyph glyph-name="uni06A7.fina" unicode="&#x6a7;" horiz-adv-x="811" 
d="M811 0h-95q-20 -133 -102.5 -197.5t-239.5 -64.5q-174 0 -254 65t-80 195q0 104 52 201l87 -25q-26 -69 -26 -154q0 -74 52.5 -110.5t180.5 -36.5q194 0 229 127h-54q-119 0 -177 49.5t-58 137.5q0 61 26 110t70.5 77t96.5 28q53 0 97 -29.5t72.5 -89.5t33.5 -148h100
l9 -74zM622 129q-15 152 -106 152q-40 0 -65.5 -22.5t-25.5 -59.5q0 -39 28 -57t89 -18q46 0 80 5zM471.5 488q-18.5 19 -18.5 46q0 28 18.5 47t46.5 19t46.5 -19t18.5 -47q0 -27 -18.5 -46t-46.5 -19t-46.5 19z" />
    <glyph glyph-name="uni06A8.init" unicode="&#x6a8;" horiz-adv-x="476" 
d="M323.5 562.5q46.5 -33.5 74.5 -101.5t28 -166q0 -120 -42 -183.5t-132 -87.5t-252 -24l-20 63l31 72q121 0 186.5 9.5t92.5 29t33 53.5q-38 -28 -110 -28q-82 0 -133.5 49.5t-51.5 133.5q0 60 26 109t70.5 77t96.5 28q56 0 102.5 -33.5zM156 329.5q29 -22.5 88 -22.5
q39 0 80 13q-14 155 -106 155q-40 0 -65.5 -22.5t-25.5 -58.5q0 -42 29 -64.5zM181 815q-17 17 -17 41t17 41t40 17t40 -17t17 -41t-17 -41t-40 -17t-40 17zM92 684q-17 17 -17 40q0 25 17 42t42 17q23 0 40 -17.5t17 -41.5q0 -23 -17 -40t-40 -17q-25 0 -42 17zM268 684
q-17 17 -17 40q0 24 17 41.5t40 17.5q25 0 42 -17t17 -42q0 -23 -17 -40t-42 -17q-23 0 -40 17z" />
    <glyph glyph-name="uni06A8.medi" unicode="&#x6a8;" horiz-adv-x="531" 
d="M551 62l-20 -62h-73q-45 0 -94 13t-95 36q-98 -49 -210 -49h-59l-20 62l31 73h62q40 0 76 3q-71 78 -71 164q0 56 26 103t70 74.5t94 27.5q57 0 101.5 -27t69 -73.5t24.5 -103.5q0 -40 -19 -82t-54 -81q38 -5 97 -5h54zM273 166q87 37 87 120q0 39 -26 65.5t-64 26.5
q-39 0 -65 -27.5t-26 -66.5q0 -82 94 -118zM229 725q-17 17 -17 41t17 41t40 17t40 -17t17 -41t-17 -41t-40 -17t-40 17zM140 594q-17 17 -17 40q0 25 17 42t42 17q23 0 40 -17.5t17 -41.5q0 -23 -17 -40t-40 -17q-25 0 -42 17zM316 594q-17 17 -17 40q0 24 17 41.5t40 17.5
q25 0 42 -17t17 -42q0 -23 -17 -40t-42 -17q-23 0 -40 17z" />
    <glyph glyph-name="uni06A8.fina" unicode="&#x6a8;" horiz-adv-x="811" 
d="M811 0h-95q-20 -133 -102.5 -197.5t-239.5 -64.5q-174 0 -254 65t-80 195q0 104 52 201l87 -25q-26 -69 -26 -154q0 -74 52.5 -110.5t180.5 -36.5q194 0 229 127h-54q-119 0 -177 49.5t-58 137.5q0 61 26 110t70.5 77t96.5 28q53 0 97 -29.5t72.5 -89.5t33.5 -148h100
l9 -74zM622 129q-15 152 -106 152q-40 0 -65.5 -22.5t-25.5 -59.5q0 -39 28 -57t89 -18q46 0 80 5zM479 620q-17 17 -17 41t17 41t40 17t40 -17t17 -41t-17 -41t-40 -17t-40 17zM390 489q-17 17 -17 40q0 25 17 42t42 17q23 0 40 -17.5t17 -41.5q0 -23 -17 -40t-40 -17
q-25 0 -42 17zM566 489q-17 17 -17 40q0 24 17 41.5t40 17.5q25 0 42 -17t17 -42q0 -23 -17 -40t-42 -17q-23 0 -40 17z" />
    <glyph glyph-name="uniFEDA" unicode="&#x643;" horiz-adv-x="861" arabic-form="final" 
d="M881 65l-20 -65q-59 0 -99 15t-70 55q-57 -37 -124 -57.5t-152 -26.5l-1 -3h-45h-34l-1 2q-117 5 -180.5 28t-89 66.5t-25.5 117.5q0 39 10.5 81.5t28.5 80.5l86 -27q-17 -66 -17 -106q0 -39 18.5 -61t68 -33.5t143.5 -13.5q80 3 143 19t116 44v582l113 15v-528
q0 -43 10 -67.5t36.5 -36t76.5 -11.5zM396 342q30 6 30 18t-21 21.5t-88 22.5l15 75l171 100l-5 -84l-97 -50q54 -15 76 -35t22 -52q0 -95 -199 -95l-12 73q78 0 108 6z" />
    <glyph glyph-name="uniFEDC" unicode="&#x643;" horiz-adv-x="540" arabic-form="medial" 
d="M560 65l-20 -65q-92 0 -154 35t-124 125q-6 -70 -73 -115t-189 -45l-20 62l31 73q92 0 128.5 18t36.5 54q0 24 -17.5 56.5t-56.5 79.5l-70 85l26 115l404 226l-6 -126l-314 -172l159 -199q47 -59 79 -86.5t70 -39t101 -11.5z" />
    <glyph glyph-name="uniFEDB" unicode="&#x643;" horiz-adv-x="461" arabic-form="initial" 
d="M421 639l-281 -155q95 -48 145 -90.5t67.5 -83t17.5 -92.5q0 -101 -89.5 -159.5t-280.5 -58.5l-20 62l31 73q102 0 158 11t77.5 32t21.5 53q0 25 -18 48.5t-77 58t-176 86.5l26 119l405 226z" />
    <glyph glyph-name="uniFB8F" unicode="&#x6a9;" horiz-adv-x="995" arabic-form="final" 
d="M1015 65l-20 -65q-92 0 -154 35t-124 125q-5 -69 -75.5 -117t-225.5 -58l-1 -2h-44h-35l-1 2q-117 5 -180.5 28t-89 66.5t-25.5 117.5q0 39 10.5 81.5t28.5 80.5l86 -27q-17 -66 -17 -106q0 -39 19 -61.5t69.5 -33.5t147.5 -13q143 3 195 27t52 62q0 24 -17.5 56.5
t-56.5 79.5l-69 85l25 115l405 226l-7 -130l-311 -172l175 -218q41 -51 70 -74.5t63.5 -31.5t97.5 -8z" />
    <glyph glyph-name="uniFB91" unicode="&#x6a9;" horiz-adv-x="540" arabic-form="medial" 
d="M560 65l-20 -65q-92 0 -154 35t-124 125q-6 -70 -73 -115t-189 -45l-20 62l31 73q92 0 128.5 18t36.5 54q0 24 -17.5 56.5t-56.5 79.5l-70 85l26 115l404 226l-6 -126l-314 -172l159 -199q47 -59 79 -86.5t70 -39t101 -11.5z" />
    <glyph glyph-name="uniFB90" unicode="&#x6a9;" horiz-adv-x="461" arabic-form="initial" 
d="M421 639l-281 -155q95 -48 145 -90.5t67.5 -83t17.5 -92.5q0 -101 -89.5 -159.5t-280.5 -58.5l-20 62l31 73q102 0 158 11t77.5 32t21.5 53q0 25 -18 48.5t-77 58t-176 86.5l26 119l405 226z" />
    <glyph glyph-name="uni063B.init" unicode="&#x63b;" horiz-adv-x="461" 
d="M421 639l-281 -155q95 -48 145 -90.5t67.5 -83t17.5 -92.5q0 -101 -89.5 -159.5t-280.5 -58.5l-20 62l31 73q102 0 158 11t77.5 32t21.5 53q0 25 -18 48.5t-77 58t-176 86.5l26 119l405 226zM-57 736q-18 18 -18 43t18 42.5t42 17.5q25 0 43 -17.5t18 -42.5t-18 -43
t-43 -18q-24 0 -42 18zM105.5 736q-17.5 18 -17.5 43t17.5 42.5t42.5 17.5t42.5 -17.5t17.5 -42.5t-17.5 -43t-42.5 -18t-42.5 18z" />
    <glyph glyph-name="uni063B.medi" unicode="&#x63b;" horiz-adv-x="540" 
d="M560 65l-20 -65q-92 0 -154 35t-124 125q-6 -70 -73 -115t-189 -45l-20 62l31 73q92 0 128.5 18t36.5 54q0 24 -17.5 56.5t-56.5 79.5l-70 85l26 115l404 226l-6 -126l-314 -172l159 -199q47 -59 79 -86.5t70 -39t101 -11.5zM-26 736q-18 18 -18 43t18 42.5t42 17.5
q25 0 43 -17.5t18 -42.5t-18 -43t-43 -18q-24 0 -42 18zM136.5 736q-17.5 18 -17.5 43t17.5 42.5t42.5 17.5t42.5 -17.5t17.5 -42.5t-17.5 -43t-42.5 -18t-42.5 18z" />
    <glyph glyph-name="uni063B.fina" unicode="&#x63b;" horiz-adv-x="995" 
d="M1015 65l-20 -65q-92 0 -154 35t-124 125q-5 -69 -75.5 -117t-225.5 -58l-1 -2h-44h-35l-1 2q-117 5 -180.5 28t-89 66.5t-25.5 117.5q0 39 10.5 81.5t28.5 80.5l86 -27q-17 -66 -17 -106q0 -39 19 -61.5t69.5 -33.5t147.5 -13q143 3 195 27t52 62q0 24 -17.5 56.5
t-56.5 79.5l-69 85l25 115l405 226l-7 -130l-311 -172l175 -218q41 -51 70 -74.5t63.5 -31.5t97.5 -8zM424 736q-18 18 -18 43t18 42.5t42 17.5q25 0 43 -17.5t18 -42.5t-18 -43t-43 -18q-24 0 -42 18zM586.5 736q-17.5 18 -17.5 43t17.5 42.5t42.5 17.5t42.5 -17.5
t17.5 -42.5t-17.5 -43t-42.5 -18t-42.5 18z" />
    <glyph glyph-name="uni063C.init" unicode="&#x63c;" horiz-adv-x="461" 
d="M421 639l-281 -155q95 -48 145 -90.5t67.5 -83t17.5 -92.5q0 -101 -89.5 -159.5t-280.5 -58.5l-20 62l31 73q102 0 158 11t77.5 32t21.5 53q0 25 -18 48.5t-77 58t-176 86.5l26 119l405 226zM75 -106q17 -17 17 -40q0 -24 -17 -41t-40 -17q-25 0 -42 16.5t-17 41.5
q0 23 17 40t42 17q23 0 40 -17zM251 -106q17 -17 17 -40q0 -25 -17 -41.5t-42 -16.5q-23 0 -40 17t-17 41q0 23 17 40t40 17q25 0 42 -17zM162 -237q17 -17 17 -41t-17 -40.5t-40 -16.5t-40 16.5t-17 40.5t17 41t40 17t40 -17z" />
    <glyph glyph-name="uni063C.medi" unicode="&#x63c;" horiz-adv-x="540" 
d="M560 65l-20 -65q-92 0 -154 35t-124 125q-6 -70 -73 -115t-189 -45l-20 62l31 73q92 0 128.5 18t36.5 54q0 24 -17.5 56.5t-56.5 79.5l-70 85l26 115l404 226l-6 -126l-314 -172l159 -199q47 -59 79 -86.5t70 -39t101 -11.5zM241 -106q17 -17 17 -40q0 -24 -17 -41
t-40 -17q-25 0 -42 16.5t-17 41.5q0 23 17 40t42 17q23 0 40 -17zM417 -106q17 -17 17 -40q0 -25 -17 -41.5t-42 -16.5q-23 0 -40 17t-17 41q0 23 17 40t40 17q25 0 42 -17zM328 -237q17 -17 17 -41t-17 -40.5t-40 -16.5t-40 16.5t-17 40.5t17 41t40 17t40 -17z" />
    <glyph glyph-name="uni063C.fina" unicode="&#x63c;" horiz-adv-x="995" 
d="M1015 65l-20 -65q-92 0 -154 35t-124 125q-5 -69 -75.5 -117t-225.5 -58l-1 -2h-44h-35l-1 2q-117 5 -180.5 28t-89 66.5t-25.5 117.5q0 39 10.5 81.5t28.5 80.5l86 -27q-17 -66 -17 -106q0 -39 19 -61.5t69.5 -33.5t147.5 -13q143 3 195 27t52 62q0 24 -17.5 56.5
t-56.5 79.5l-69 85l25 115l405 226l-7 -130l-311 -172l175 -218q41 -51 70 -74.5t63.5 -31.5t97.5 -8zM331 -106q17 -17 17 -40q0 -24 -17 -41t-40 -17q-25 0 -42 16.5t-17 41.5q0 23 17 40t42 17q23 0 40 -17zM507 -106q17 -17 17 -40q0 -25 -17 -41.5t-42 -16.5
q-23 0 -40 17t-17 41q0 23 17 40t40 17q25 0 42 -17zM418 -237q17 -17 17 -41t-17 -40.5t-40 -16.5t-40 16.5t-17 40.5t17 41t40 17t40 -17z" />
    <glyph glyph-name="uniFB93" unicode="&#x6af;" horiz-adv-x="995" arabic-form="final" 
d="M913 811l-396 -220l23 94l378 214zM1015 65l-20 -65q-92 0 -154 35t-124 125q-5 -69 -75.5 -117t-225.5 -58l-1 -2h-44h-35l-1 2q-117 5 -180.5 28t-89 66.5t-25.5 117.5q0 39 10.5 81.5t28.5 80.5l86 -27q-17 -66 -17 -106q0 -39 19 -61.5t69.5 -33.5t147.5 -13
q143 3 195 27t52 62q0 24 -17.5 56.5t-56.5 79.5l-69 85l25 115l405 226l-7 -130l-311 -172l175 -218q41 -51 70 -74.5t63.5 -31.5t97.5 -8z" />
    <glyph glyph-name="uniFB95" unicode="&#x6af;" horiz-adv-x="540" arabic-form="medial" 
d="M453 811l-395 -220l22 94l378 214zM560 65l-20 -65q-92 0 -154 35t-124 125q-6 -70 -73 -115t-189 -45l-20 62l31 73q92 0 128.5 18t36.5 54q0 24 -17.5 56.5t-56.5 79.5l-70 85l26 115l404 226l-6 -126l-314 -172l159 -199q47 -59 79 -86.5t70 -39t101 -11.5z" />
    <glyph glyph-name="uniFB94" unicode="&#x6af;" horiz-adv-x="463" arabic-form="initial" 
d="M422 811l-395 -220l23 94l378 214zM23 543l405 226l-7 -130l-281 -155q95 -48 145 -90.5t67.5 -83t17.5 -92.5q0 -101 -89.5 -159.5t-280.5 -58.5l-20 62l31 73q102 0 158 11t77.5 32t21.5 53q0 25 -18 48.5t-77 58t-176 86.5z" />
    <glyph glyph-name="uni06B0.init" unicode="&#x6b0;" horiz-adv-x="463" 
d="M422 811l-395 -220l23 94l378 214zM23 543l405 226l-7 -130l-47 -26q19 -12 30 -32t11 -44q0 -40 -26.5 -65.5t-67.5 -25.5q-38 0 -65 24.5t-29 61.5l-87 -48q95 -48 145 -90.5t67.5 -83t17.5 -92.5q0 -101 -89.5 -159.5t-280.5 -58.5l-20 62l31 73q102 0 158 11t77.5 32
t21.5 53q0 25 -18 48.5t-77 58t-176 86.5zM348 513q10 10 10 24q0 15 -10.5 24.5t-26.5 9.5t-26 -9.5t-10 -24.5q0 -14 9.5 -24t26.5 -10t27 10z" />
    <glyph glyph-name="uni06B0.medi" unicode="&#x6b0;" horiz-adv-x="540" 
d="M453 811l-395 -220l22 94l378 214zM560 65l-20 -65q-92 0 -154 35t-124 125q-6 -70 -73 -115t-189 -45l-20 62l31 73q92 0 128.5 18t36.5 54q0 24 -17.5 56.5t-56.5 79.5l-70 85l26 115l404 226l-6 -126l-49 -27q17 -12 26.5 -31t9.5 -42q0 -40 -26.5 -66t-67.5 -26
q-37 0 -63.5 23t-30.5 59l-113 -62l159 -199q47 -59 79 -86.5t70 -39t101 -11.5zM376 519q10 10 10 24q0 15 -10.5 24.5t-26.5 9.5t-26 -9.5t-10 -24.5q0 -14 9.5 -24t26.5 -10t27 10z" />
    <glyph glyph-name="uni06B0.fina" unicode="&#x6b0;" horiz-adv-x="995" 
d="M913 811l-396 -220l23 94l378 214zM1015 65l-20 -65q-92 0 -154 35t-124 125q-5 -69 -75.5 -117t-225.5 -58l-1 -2h-44h-35l-1 2q-117 5 -180.5 28t-89 66.5t-25.5 117.5q0 39 10.5 81.5t28.5 80.5l86 -27q-17 -66 -17 -106q0 -39 19 -61.5t69.5 -33.5t147.5 -13
q143 3 195 27t52 62q0 24 -17.5 56.5t-56.5 79.5l-69 85l25 115l405 226l-7 -130l-51 -28q16 -12 25.5 -31t9.5 -42q0 -40 -26.5 -66t-66.5 -26q-37 0 -63 23t-30 58l-109 -60l175 -218q41 -51 70 -74.5t63.5 -31.5t97.5 -8zM828 513.5q10 10.5 10 24.5q0 15 -10 24.5
t-26 9.5t-26.5 -9.5t-10.5 -24.5q0 -14 10 -24.5t27 -10.5q16 0 26 10.5z" />
    <glyph glyph-name="uni06B4.init" unicode="&#x6b4;" horiz-adv-x="463" 
d="M422 811l-395 -220l23 94l378 214zM23 543l405 226l-7 -130l-281 -155q95 -48 145 -90.5t67.5 -83t17.5 -92.5q0 -101 -89.5 -159.5t-280.5 -58.5l-20 62l31 73q102 0 158 11t77.5 32t21.5 53q0 25 -18 48.5t-77 58t-176 86.5zM-14 931q-17 17 -17 41t17 41t40 17t40 -17
t17 -41t-17 -41t-40 -17t-40 17zM-103 800q-17 17 -17 40q0 25 17 42t42 17q23 0 40 -17.5t17 -41.5q0 -23 -17 -40t-40 -17q-25 0 -42 17zM73 800q-17 17 -17 40q0 24 17 41.5t40 17.5q25 0 42 -17t17 -42q0 -23 -17 -40t-42 -17q-23 0 -40 17z" />
    <glyph glyph-name="uni06B4.medi" unicode="&#x6b4;" horiz-adv-x="540" 
d="M453 811l-395 -220l22 94l378 214zM560 65l-20 -65q-92 0 -154 35t-124 125q-6 -70 -73 -115t-189 -45l-20 62l31 73q92 0 128.5 18t36.5 54q0 24 -17.5 56.5t-56.5 79.5l-70 85l26 115l404 226l-6 -126l-314 -172l159 -199q47 -59 79 -86.5t70 -39t101 -11.5zM11 930
q-17 17 -17 41t17 41t40 17t40 -17t17 -41t-17 -41t-40 -17t-40 17zM-78 799q-17 17 -17 40q0 25 17 42t42 17q23 0 40 -17.5t17 -41.5q0 -23 -17 -40t-40 -17q-25 0 -42 17zM98 799q-17 17 -17 40q0 24 17 41.5t40 17.5q25 0 42 -17t17 -42q0 -23 -17 -40t-42 -17
q-23 0 -40 17z" />
    <glyph glyph-name="uni06B4.fina" unicode="&#x6b4;" horiz-adv-x="995" 
d="M913 811l-396 -220l23 94l378 214zM1015 65l-20 -65q-92 0 -154 35t-124 125q-5 -69 -75.5 -117t-225.5 -58l-1 -2h-44h-35l-1 2q-117 5 -180.5 28t-89 66.5t-25.5 117.5q0 39 10.5 81.5t28.5 80.5l86 -27q-17 -66 -17 -106q0 -39 19 -61.5t69.5 -33.5t147.5 -13
q143 3 195 27t52 62q0 24 -17.5 56.5t-56.5 79.5l-69 85l25 115l405 226l-7 -130l-311 -172l175 -218q41 -51 70 -74.5t63.5 -31.5t97.5 -8zM472 931q-17 17 -17 41t17 41t40 17t40 -17t17 -41t-17 -41t-40 -17t-40 17zM383 800q-17 17 -17 40q0 25 17 42t42 17
q23 0 40 -17.5t17 -41.5q0 -23 -17 -40t-40 -17q-25 0 -42 17zM559 800q-17 17 -17 40q0 24 17 41.5t40 17.5q25 0 42 -17t17 -42q0 -23 -17 -40t-42 -17q-23 0 -40 17z" />
    <glyph glyph-name="uni06AA.init" unicode="&#x6aa;" horiz-adv-x="1174" 
d="M1051 355q73 -44 73 -151q0 -39 -28 -74.5t-74 -56.5q-76 -34 -250 -53.5t-450 -19.5h-322l-20 70l24 65q35 0 131 -2q130 -4 243 -4q241 0 384.5 13.5t200 32t56.5 36.5q0 63 -177 63q-98 -1 -269 -13q-174 -12 -258 -12q-73 0 -136 5.5t-95 14.5l13 110
q42 107 140.5 184t232.5 102l-22 -130q-80 -18 -145 -58t-105 -97q68 -6 132 -6q62 0 134 4t138 9q164 12 240 12q136 0 209 -44z" />
    <glyph glyph-name="uni06AA.medi" unicode="&#x6aa;" horiz-adv-x="1235" 
d="M1255 64l-20 -64q-66 0 -109.5 28.5t-55.5 74.5q-21 -18 -48 -30q-76 -34 -250 -53.5t-450 -19.5h-322l-20 70l24 65q35 0 131 -2q130 -4 243 -4q241 0 384.5 13.5t200 32t56.5 36.5q0 63 -177 63q-98 -1 -269 -13q-174 -12 -258 -12q-73 0 -136 5.5t-95 14.5l13 110
q42 107 140.5 184t232.5 102l-22 -130q-80 -18 -145 -58t-105 -97q68 -6 132 -6q62 0 134 4t138 9q164 12 240 12q131 0 203.5 -41t78.5 -139q0 -49 28 -66.5t95 -17.5z" />
    <glyph glyph-name="uni06AA.fina" unicode="&#x6aa;" horiz-adv-x="1307" 
d="M1327 64l-20 -64q-66 0 -109.5 28.5t-55.5 74.5q-21 -18 -48 -30q-76 -34 -251.5 -53.5t-448.5 -19.5h-321l-40 135l53 -1q192 -6 340 -6q252 0 400.5 13.5t206.5 32.5t58 37q0 63 -177 63q-95 -1 -269 -13q-172 -12 -257 -12q-73 0 -136.5 5.5t-95.5 14.5l13 110
q43 107 141 184t233 102l-23 -130q-80 -18 -145 -58t-104 -97q66 -6 131 -6q62 0 134 4t138 9q164 12 240 12q131 0 203.5 -41t78.5 -139q0 -49 28 -66.5t95 -17.5z" />
    <glyph glyph-name="uni06AB.init" unicode="&#x6ab;" horiz-adv-x="461" 
d="M421 639l-44 -24q33 -28 33 -71q0 -40 -26.5 -66t-67.5 -26q-35 0 -61.5 22t-31.5 56l-83 -46q95 -48 145 -90.5t67.5 -83t17.5 -92.5q0 -101 -89.5 -159.5t-280.5 -58.5l-20 62l31 73q102 0 158 11t77.5 32t21.5 53q0 25 -18 48.5t-77 58t-176 86.5l26 119l405 226z
M310 578l-24 -13q-6 -9 -6 -21q0 -14 9.5 -24t26.5 -10t27 10t10 24q0 15 -10.5 24.5t-26.5 9.5h-6z" />
    <glyph glyph-name="uni06AB.medi" unicode="&#x6ab;" horiz-adv-x="540" 
d="M560 65l-20 -65q-92 0 -154 35t-124 125q-6 -70 -73 -115t-189 -45l-20 62l31 73q92 0 128.5 18t36.5 54q0 24 -17.5 56.5t-56.5 79.5l-70 85l26 115l404 226l-6 -126l-51 -28q15 -12 24 -30.5t9 -40.5q0 -40 -26.5 -66t-67.5 -26q-36 0 -62.5 22.5t-30.5 56.5l-109 -60
l159 -199q47 -59 79 -86.5t70 -39t101 -11.5zM336 577l-22 -12q-7 -9 -7 -21q0 -14 10 -24t27 -10t27 10t10 24q0 15 -10.5 24.5t-26.5 9.5q-5 0 -8 -1z" />
    <glyph glyph-name="uni06AB.fina" unicode="&#x6ab;" horiz-adv-x="995" 
d="M1015 65l-20 -65q-92 0 -154 35t-124 125q-5 -69 -75.5 -117t-225.5 -58l-1 -2h-44h-35l-1 2q-117 5 -180.5 28t-89 66.5t-25.5 117.5q0 39 10.5 81.5t28.5 80.5l86 -27q-17 -66 -17 -106q0 -39 19 -61.5t69.5 -33.5t147.5 -13q143 3 195 27t52 62q0 24 -17.5 56.5
t-56.5 79.5l-69 85l25 115l405 226l-7 -130l-50 -28q29 -26 29 -67q0 -40 -26.5 -66t-67.5 -26q-34 0 -59.5 20.5t-32.5 52.5l-104 -58l175 -218q41 -51 70 -74.5t63.5 -31.5t97.5 -8zM824 567q-9 9 -24 11l-38 -21q-2 -8 -2 -13q0 -14 9.5 -24t26.5 -10t27 10t10 24t-9 23z
" />
    <glyph glyph-name="uni06AC.init" unicode="&#x6ac;" horiz-adv-x="461" 
d="M421 639l-281 -155q95 -48 145 -90.5t67.5 -83t17.5 -92.5q0 -101 -89.5 -159.5t-280.5 -58.5l-20 62l31 73q102 0 158 11t77.5 32t21.5 53q0 25 -18 48.5t-77 58t-176 86.5l26 119l405 226zM18.5 724q-18.5 19 -18.5 46q0 28 18.5 47t46.5 19t46.5 -19t18.5 -47
q0 -27 -18.5 -46t-46.5 -19t-46.5 19z" />
    <glyph glyph-name="uni06AC.medi" unicode="&#x6ac;" horiz-adv-x="540" 
d="M560 65l-20 -65q-92 0 -154 35t-124 125q-6 -70 -73 -115t-189 -45l-20 62l31 73q92 0 128.5 18t36.5 54q0 24 -17.5 56.5t-56.5 79.5l-70 85l26 115l404 226l-6 -126l-314 -172l159 -199q47 -59 79 -86.5t70 -39t101 -11.5zM49.5 724q-18.5 19 -18.5 46q0 28 18.5 47
t46.5 19t46.5 -19t18.5 -47q0 -27 -18.5 -46t-46.5 -19t-46.5 19z" />
    <glyph glyph-name="uni06AC.fina" unicode="&#x6ac;" horiz-adv-x="861" 
d="M881 65l-20 -65q-59 0 -99 15t-70 55q-57 -37 -124 -57.5t-152 -26.5l-1 -3h-45h-34l-1 2q-117 5 -180.5 28t-89 66.5t-25.5 117.5q0 39 10.5 81.5t28.5 80.5l86 -27q-17 -66 -17 -106q0 -39 18.5 -61t68 -33.5t143.5 -13.5q80 3 143 19t116 44v582l113 15v-528
q0 -43 10 -67.5t36.5 -36t76.5 -11.5zM396 342q30 6 30 18t-21 21.5t-88 22.5l15 75l171 100l-5 -84l-97 -50q54 -15 76 -35t22 -52q0 -95 -199 -95l-12 73q78 0 108 6zM645.5 855q-18.5 19 -18.5 46q0 28 18.5 47t46.5 19t46.5 -19t18.5 -47q0 -27 -18.5 -46t-46.5 -19
t-46.5 19z" />
    <glyph glyph-name="uni06AE.init" unicode="&#x6ae;" horiz-adv-x="461" 
d="M421 639l-281 -155q95 -48 145 -90.5t67.5 -83t17.5 -92.5q0 -101 -89.5 -159.5t-280.5 -58.5l-20 62l31 73q102 0 158 11t77.5 32t21.5 53q0 25 -18 48.5t-77 58t-176 86.5l26 119l405 226zM75 -106q17 -17 17 -40q0 -24 -17 -41t-40 -17q-25 0 -42 16.5t-17 41.5
q0 23 17 40t42 17q23 0 40 -17zM251 -106q17 -17 17 -40q0 -25 -17 -41.5t-42 -16.5q-23 0 -40 17t-17 41q0 23 17 40t40 17q25 0 42 -17zM162 -237q17 -17 17 -41t-17 -40.5t-40 -16.5t-40 16.5t-17 40.5t17 41t40 17t40 -17z" />
    <glyph glyph-name="uni06AE.medi" unicode="&#x6ae;" horiz-adv-x="540" 
d="M560 65l-20 -65q-92 0 -154 35t-124 125q-6 -70 -73 -115t-189 -45l-20 62l31 73q92 0 128.5 18t36.5 54q0 24 -17.5 56.5t-56.5 79.5l-70 85l26 115l404 226l-6 -126l-314 -172l159 -199q47 -59 79 -86.5t70 -39t101 -11.5zM241 -106q17 -17 17 -40q0 -24 -17 -41
t-40 -17q-25 0 -42 16.5t-17 41.5q0 23 17 40t42 17q23 0 40 -17zM417 -106q17 -17 17 -40q0 -25 -17 -41.5t-42 -16.5q-23 0 -40 17t-17 41q0 23 17 40t40 17q25 0 42 -17zM328 -237q17 -17 17 -41t-17 -40.5t-40 -16.5t-40 16.5t-17 40.5t17 41t40 17t40 -17z" />
    <glyph glyph-name="uni06AE.fina" unicode="&#x6ae;" horiz-adv-x="861" 
d="M881 65l-20 -65q-59 0 -99 15t-70 55q-57 -37 -124 -57.5t-152 -26.5l-1 -3h-45h-34l-1 2q-117 5 -180.5 28t-89 66.5t-25.5 117.5q0 39 10.5 81.5t28.5 80.5l86 -27q-17 -66 -17 -106q0 -39 18.5 -61t68 -33.5t143.5 -13.5q80 3 143 19t116 44v582l113 15v-528
q0 -43 10 -67.5t36.5 -36t76.5 -11.5zM396 342q30 6 30 18t-21 21.5t-88 22.5l15 75l171 100l-5 -84l-97 -50q54 -15 76 -35t22 -52q0 -95 -199 -95l-12 73q78 0 108 6zM341 -106q17 -17 17 -40q0 -24 -17 -41t-40 -17q-25 0 -42 16.5t-17 41.5q0 23 17 40t42 17
q23 0 40 -17zM517 -106q17 -17 17 -40q0 -25 -17 -41.5t-42 -16.5q-23 0 -40 17t-17 41q0 23 17 40t40 17q25 0 42 -17zM428 -237q17 -17 17 -41t-17 -40.5t-40 -16.5t-40 16.5t-17 40.5t17 41t40 17t40 -17z" />
    <glyph glyph-name="uni06B2.init" unicode="&#x6b2;" horiz-adv-x="463" 
d="M422 811l-395 -220l23 94l378 214zM23 543l405 226l-7 -130l-281 -155q95 -48 145 -90.5t67.5 -83t17.5 -92.5q0 -101 -89.5 -159.5t-280.5 -58.5l-20 62l31 73q102 0 158 11t77.5 32t21.5 53q0 25 -18 48.5t-77 58t-176 86.5zM-2 -185.5q-18 17.5 -18 42.5t18 42.5
t42 17.5q25 0 43 -17.5t18 -42.5t-18 -42.5t-43 -17.5q-24 0 -42 17.5zM160.5 -185.5q-17.5 17.5 -17.5 42.5t17.5 42.5t42.5 17.5t42.5 -17.5t17.5 -42.5t-17.5 -42.5t-42.5 -17.5t-42.5 17.5z" />
    <glyph glyph-name="uni06B2.medi" unicode="&#x6b2;" horiz-adv-x="540" 
d="M453 811l-395 -220l22 94l378 214zM560 65l-20 -65q-92 0 -154 35t-124 125q-6 -70 -73 -115t-189 -45l-20 62l31 73q92 0 128.5 18t36.5 54q0 24 -17.5 56.5t-56.5 79.5l-70 85l26 115l404 226l-6 -126l-314 -172l159 -199q47 -59 79 -86.5t70 -39t101 -11.5z
M164 -185.5q-18 17.5 -18 42.5t18 42.5t42 17.5q25 0 43 -17.5t18 -42.5t-18 -42.5t-43 -17.5q-24 0 -42 17.5zM326.5 -185.5q-17.5 17.5 -17.5 42.5t17.5 42.5t42.5 17.5t42.5 -17.5t17.5 -42.5t-17.5 -42.5t-42.5 -17.5t-42.5 17.5z" />
    <glyph glyph-name="uni06B2.fina" unicode="&#x6b2;" horiz-adv-x="995" 
d="M913 811l-396 -220l23 94l378 214zM1015 65l-20 -65q-92 0 -154 35t-124 125q-5 -69 -75.5 -117t-225.5 -58l-1 -2h-44h-35l-1 2q-117 5 -180.5 28t-89 66.5t-25.5 117.5q0 39 10.5 81.5t28.5 80.5l86 -27q-17 -66 -17 -106q0 -39 19 -61.5t69.5 -33.5t147.5 -13
q143 3 195 27t52 62q0 24 -17.5 56.5t-56.5 79.5l-69 85l25 115l405 226l-7 -130l-311 -172l175 -218q41 -51 70 -74.5t63.5 -31.5t97.5 -8zM254 -185.5q-18 17.5 -18 42.5t18 42.5t42 17.5q25 0 43 -17.5t18 -42.5t-18 -42.5t-43 -17.5q-24 0 -42 17.5zM416.5 -185.5
q-17.5 17.5 -17.5 42.5t17.5 42.5t42.5 17.5t42.5 -17.5t17.5 -42.5t-17.5 -42.5t-42.5 -17.5t-42.5 17.5z" />
    <glyph glyph-name="uniFBD4" unicode="&#x6ad;" horiz-adv-x="861" arabic-form="final" 
d="M881 65l-20 -65q-59 0 -99 15t-70 55q-57 -37 -124 -57.5t-152 -26.5l-1 -3h-45h-34l-1 2q-117 5 -180.5 28t-89 66.5t-25.5 117.5q0 39 10.5 81.5t28.5 80.5l86 -27q-17 -66 -17 -106q0 -39 18.5 -61t68 -33.5t143.5 -13.5q80 3 143 19t116 44v582l113 15v-528
q0 -43 10 -67.5t36.5 -36t76.5 -11.5zM396 342q30 6 30 18t-21 21.5t-88 22.5l15 75l171 100l-5 -84l-97 -50q54 -15 76 -35t22 -52q0 -95 -199 -95l-12 73q78 0 108 6zM654 987q-17 17 -17 41t17 41t40 17t40 -17t17 -41t-17 -41t-40 -17t-40 17zM565 856q-17 17 -17 40
q0 25 17 42t42 17q23 0 40 -17.5t17 -41.5q0 -23 -17 -40t-40 -17q-25 0 -42 17zM741 856q-17 17 -17 40q0 24 17 41.5t40 17.5q25 0 42 -17t17 -42q0 -23 -17 -40t-42 -17q-23 0 -40 17z" />
    <glyph glyph-name="uniFBD6" unicode="&#x6ad;" horiz-adv-x="540" arabic-form="medial" 
d="M560 65l-20 -65q-92 0 -154 35t-124 125q-6 -70 -73 -115t-189 -45l-20 62l31 73q92 0 128.5 18t36.5 54q0 24 -17.5 56.5t-56.5 79.5l-70 85l26 115l404 226l-6 -126l-314 -172l159 -199q47 -59 79 -86.5t70 -39t101 -11.5zM58 856q-17 17 -17 41t17 41t40 17t40 -17
t17 -41t-17 -41t-40 -17t-40 17zM-31 725q-17 17 -17 40q0 25 17 42t42 17q23 0 40 -17.5t17 -41.5q0 -23 -17 -40t-40 -17q-25 0 -42 17zM145 725q-17 17 -17 40q0 24 17 41.5t40 17.5q25 0 42 -17t17 -42q0 -23 -17 -40t-42 -17q-23 0 -40 17z" />
    <glyph glyph-name="uniFBD5" unicode="&#x6ad;" horiz-adv-x="461" arabic-form="initial" 
d="M421 639l-281 -155q95 -48 145 -90.5t67.5 -83t17.5 -92.5q0 -101 -89.5 -159.5t-280.5 -58.5l-20 62l31 73q102 0 158 11t77.5 32t21.5 53q0 25 -18 48.5t-77 58t-176 86.5l26 119l405 226zM27 856q-17 17 -17 41t17 41t40 17t40 -17t17 -41t-17 -41t-40 -17t-40 17z
M-62 725q-17 17 -17 40q0 25 17 42t42 17q23 0 40 -17.5t17 -41.5q0 -23 -17 -40t-40 -17q-25 0 -42 17zM114 725q-17 17 -17 40q0 24 17 41.5t40 17.5q25 0 42 -17t17 -42q0 -23 -17 -40t-42 -17q-23 0 -40 17z" />
    <glyph glyph-name="uniFB9B" unicode="&#x6b1;" horiz-adv-x="995" arabic-form="final" 
d="M913 811l-396 -220l23 94l378 214zM1015 65l-20 -65q-92 0 -154 35t-124 125q-5 -69 -75.5 -117t-225.5 -58l-1 -2h-44h-35l-1 2q-117 5 -180.5 28t-89 66.5t-25.5 117.5q0 39 10.5 81.5t28.5 80.5l86 -27q-17 -66 -17 -106q0 -39 19 -61.5t69.5 -33.5t147.5 -13
q143 3 195 27t52 62q0 24 -17.5 56.5t-56.5 79.5l-69 85l25 115l405 226l-7 -130l-311 -172l175 -218q41 -51 70 -74.5t63.5 -31.5t97.5 -8zM388 811q-18 18 -18 43t18 42.5t42 17.5q25 0 43 -17.5t18 -42.5t-18 -43t-43 -18q-24 0 -42 18zM550.5 811q-17.5 18 -17.5 43
t17.5 42.5t42.5 17.5t42.5 -17.5t17.5 -42.5t-17.5 -43t-42.5 -18t-42.5 18z" />
    <glyph glyph-name="uniFB9D" unicode="&#x6b1;" horiz-adv-x="540" arabic-form="medial" 
d="M453 811l-395 -220l22 94l378 214zM560 65l-20 -65q-92 0 -154 35t-124 125q-6 -70 -73 -115t-189 -45l-20 62l31 73q92 0 128.5 18t36.5 54q0 24 -17.5 56.5t-56.5 79.5l-70 85l26 115l404 226l-6 -126l-314 -172l159 -199q47 -59 79 -86.5t70 -39t101 -11.5zM-73 810
q-18 18 -18 43t18 42.5t42 17.5q25 0 43 -17.5t18 -42.5t-18 -43t-43 -18q-24 0 -42 18zM89.5 810q-17.5 18 -17.5 43t17.5 42.5t42.5 17.5t42.5 -17.5t17.5 -42.5t-17.5 -43t-42.5 -18t-42.5 18z" />
    <glyph glyph-name="uniFB9C" unicode="&#x6b1;" horiz-adv-x="463" arabic-form="initial" 
d="M422 811l-395 -220l23 94l378 214zM23 543l405 226l-7 -130l-281 -155q95 -48 145 -90.5t67.5 -83t17.5 -92.5q0 -101 -89.5 -159.5t-280.5 -58.5l-20 62l31 73q102 0 158 11t77.5 32t21.5 53q0 25 -18 48.5t-77 58t-176 86.5zM-98 811q-18 18 -18 43t18 42.5t42 17.5
q25 0 43 -17.5t18 -42.5t-18 -43t-43 -18q-24 0 -42 18zM64.5 811q-17.5 18 -17.5 43t17.5 42.5t42.5 17.5t42.5 -17.5t17.5 -42.5t-17.5 -43t-42.5 -18t-42.5 18z" />
    <glyph glyph-name="uniFB97" unicode="&#x6b3;" horiz-adv-x="995" arabic-form="final" 
d="M913 811l-396 -220l23 94l378 214zM1015 65l-20 -65q-92 0 -154 35t-124 125q-5 -69 -75.5 -117t-225.5 -58l-1 -2h-44h-35l-1 2q-117 5 -180.5 28t-89 66.5t-25.5 117.5q0 39 10.5 81.5t28.5 80.5l86 -27q-17 -66 -17 -106q0 -39 19 -61.5t69.5 -33.5t147.5 -13
q143 3 195 27t52 62q0 24 -17.5 56.5t-56.5 79.5l-69 85l25 115l405 226l-7 -130l-311 -172l175 -218q41 -51 70 -74.5t63.5 -31.5t97.5 -8zM335.5 -175q-17.5 18 -17.5 43t17.5 42.5t42.5 17.5t42.5 -17.5t17.5 -42.5q0 -26 -17.5 -43.5t-42.5 -17.5t-42.5 18z
M336.5 -331.5q-17.5 17.5 -17.5 42.5t17.5 43t42.5 18t42.5 -18t17.5 -43t-17.5 -42.5t-42.5 -17.5t-42.5 17.5z" />
    <glyph glyph-name="uniFB99" unicode="&#x6b3;" horiz-adv-x="540" arabic-form="medial" 
d="M453 811l-395 -220l22 94l378 214zM560 65l-20 -65q-92 0 -154 35t-124 125q-6 -70 -73 -115t-189 -45l-20 62l31 73q92 0 128.5 18t36.5 54q0 24 -17.5 56.5t-56.5 79.5l-70 85l26 115l404 226l-6 -126l-314 -172l159 -199q47 -59 79 -86.5t70 -39t101 -11.5z
M245.5 -175q-17.5 18 -17.5 43t17.5 42.5t42.5 17.5t42.5 -17.5t17.5 -42.5q0 -26 -17.5 -43.5t-42.5 -17.5t-42.5 18zM246.5 -331.5q-17.5 17.5 -17.5 42.5t17.5 43t42.5 18t42.5 -18t17.5 -43t-17.5 -42.5t-42.5 -17.5t-42.5 17.5z" />
    <glyph glyph-name="uniFB98" unicode="&#x6b3;" horiz-adv-x="463" arabic-form="initial" 
d="M422 811l-395 -220l23 94l378 214zM23 543l405 226l-7 -130l-281 -155q95 -48 145 -90.5t67.5 -83t17.5 -92.5q0 -101 -89.5 -159.5t-280.5 -58.5l-20 62l31 73q102 0 158 11t77.5 32t21.5 53q0 25 -18 48.5t-77 58t-176 86.5zM79.5 -175q-17.5 18 -17.5 43t17.5 42.5
t42.5 17.5t42.5 -17.5t17.5 -42.5q0 -26 -17.5 -43.5t-42.5 -17.5t-42.5 18zM80.5 -331.5q-17.5 17.5 -17.5 42.5t17.5 43t42.5 18t42.5 -18t17.5 -43t-17.5 -42.5t-42.5 -17.5t-42.5 17.5z" />
    <glyph glyph-name="uniFEDE" unicode="&#x644;" horiz-adv-x="714" arabic-form="final" 
d="M714 0q-50 0 -85 27q-18 -129 -96 -187.5t-221 -58.5q-138 0 -205 67t-67 190q0 103 54 204l86 -25q-27 -74 -27 -157q0 -68 41 -106t130 -38q73 0 116 18.5t62.5 60t19.5 112.5v655l112 14v-559q0 -49 21 -65.5t71 -16.5l8 -71z" />
    <glyph glyph-name="uniFEE0" unicode="&#x644;" horiz-adv-x="264" arabic-form="medial" 
d="M284 62l-20 -62q-87 0 -131 59q-24 -33 -56.5 -46t-76.5 -13l-20 62l31 73q31 0 44.5 7.5t17.5 24t4 50.5v545l112 15v-559q0 -47 19 -65t68 -18z" />
    <glyph glyph-name="uniFEDF" unicode="&#x644;" horiz-adv-x="259" arabic-form="initial" 
d="M-20 62l31 73q42 0 59.5 20t17.5 75v532l113 14v-547q0 -83 -19 -133t-62.5 -73t-119.5 -23z" />
    <glyph glyph-name="uni06B5.init" unicode="&#x6b5;" horiz-adv-x="259" 
d="M-20 62l31 73q42 0 59.5 20t17.5 75v532l113 14v-547q0 -83 -19 -133t-62.5 -73t-119.5 -23zM145 901l48 81l64 -27l-81 -142h-64l-79 142l64 27z" />
    <glyph glyph-name="uni06B5.medi" unicode="&#x6b5;" horiz-adv-x="264" 
d="M284 62l-20 -62q-87 0 -131 59q-24 -33 -56.5 -46t-76.5 -13l-20 62l31 73q31 0 44.5 7.5t17.5 24t4 50.5v545l112 15v-559q0 -47 19 -65t68 -18zM133 898l48 81l64 -27l-81 -142h-64l-79 142l64 27z" />
    <glyph glyph-name="uni06B5.fina" unicode="&#x6b5;" horiz-adv-x="714" 
d="M714 0q-50 0 -85 27q-18 -129 -96 -187.5t-221 -58.5q-138 0 -205 67t-67 190q0 103 54 204l86 -25q-27 -74 -27 -157q0 -68 41 -106t130 -38q73 0 116 18.5t62.5 60t19.5 112.5v655l112 14v-559q0 -49 21 -65.5t71 -16.5l8 -71zM578 898l48 81l64 -27l-81 -142h-64
l-79 142l64 27z" />
    <glyph glyph-name="uni06B6.init" unicode="&#x6b6;" horiz-adv-x="259" 
d="M-20 62l31 73q42 0 59.5 20t17.5 75v532l113 14v-547q0 -83 -19 -133t-62.5 -73t-119.5 -23zM96.5 858q-18.5 19 -18.5 46q0 28 18.5 47t46.5 19t46.5 -19t18.5 -47q0 -27 -18.5 -46t-46.5 -19t-46.5 19z" />
    <glyph glyph-name="uni06B6.medi" unicode="&#x6b6;" horiz-adv-x="264" 
d="M284 62l-20 -62q-87 0 -131 59q-24 -33 -56.5 -46t-76.5 -13l-20 62l31 73q31 0 44.5 7.5t17.5 24t4 50.5v545l112 15v-559q0 -47 19 -65t68 -18zM84.5 855q-18.5 19 -18.5 46q0 28 18.5 47t46.5 19t46.5 -19t18.5 -47q0 -27 -18.5 -46t-46.5 -19t-46.5 19z" />
    <glyph glyph-name="uni06B6.fina" unicode="&#x6b6;" horiz-adv-x="714" 
d="M714 0q-50 0 -85 27q-18 -129 -96 -187.5t-221 -58.5q-138 0 -205 67t-67 190q0 103 54 204l86 -25q-27 -74 -27 -157q0 -68 41 -106t130 -38q73 0 116 18.5t62.5 60t19.5 112.5v655l112 14v-559q0 -49 21 -65.5t71 -16.5l8 -71zM529.5 855q-18.5 19 -18.5 46
q0 28 18.5 47t46.5 19t46.5 -19t18.5 -47q0 -27 -18.5 -46t-46.5 -19t-46.5 19z" />
    <glyph glyph-name="uni06B7.init" unicode="&#x6b7;" horiz-adv-x="259" 
d="M-20 62l31 73q42 0 59.5 20t17.5 75v532l113 14v-547q0 -83 -19 -133t-62.5 -73t-119.5 -23zM105 990q-17 17 -17 41t17 41t40 17t40 -17t17 -41t-17 -41t-40 -17t-40 17zM16 859q-17 17 -17 40q0 25 17 42t42 17q23 0 40 -17.5t17 -41.5q0 -23 -17 -40t-40 -17
q-25 0 -42 17zM192 859q-17 17 -17 40q0 24 17 41.5t40 17.5q25 0 42 -17t17 -42q0 -23 -17 -40t-42 -17q-23 0 -40 17z" />
    <glyph glyph-name="uni06B7.medi" unicode="&#x6b7;" horiz-adv-x="264" 
d="M284 62l-20 -62q-87 0 -131 59q-24 -33 -56.5 -46t-76.5 -13l-20 62l31 73q31 0 44.5 7.5t17.5 24t4 50.5v545l112 15v-559q0 -47 19 -65t68 -18zM93 987q-17 17 -17 41t17 41t40 17t40 -17t17 -41t-17 -41t-40 -17t-40 17zM4 856q-17 17 -17 40q0 25 17 42t42 17
q23 0 40 -17.5t17 -41.5q0 -23 -17 -40t-40 -17q-25 0 -42 17zM180 856q-17 17 -17 40q0 24 17 41.5t40 17.5q25 0 42 -17t17 -42q0 -23 -17 -40t-42 -17q-23 0 -40 17z" />
    <glyph glyph-name="uni06B7.fina" unicode="&#x6b7;" horiz-adv-x="714" 
d="M714 0q-50 0 -85 27q-18 -129 -96 -187.5t-221 -58.5q-138 0 -205 67t-67 190q0 103 54 204l86 -25q-27 -74 -27 -157q0 -68 41 -106t130 -38q73 0 116 18.5t62.5 60t19.5 112.5v655l112 14v-559q0 -49 21 -65.5t71 -16.5l8 -71zM538 987q-17 17 -17 41t17 41t40 17
t40 -17t17 -41t-17 -41t-40 -17t-40 17zM449 856q-17 17 -17 40q0 25 17 42t42 17q23 0 40 -17.5t17 -41.5q0 -23 -17 -40t-40 -17q-25 0 -42 17zM625 856q-17 17 -17 40q0 24 17 41.5t40 17.5q25 0 42 -17t17 -42q0 -23 -17 -40t-42 -17q-23 0 -40 17z" />
    <glyph glyph-name="uni06B8.init" unicode="&#x6b8;" horiz-adv-x="259" 
d="M-20 62l31 73q42 0 59.5 20t17.5 75v532l113 14v-547q0 -83 -19 -133t-62.5 -73t-119.5 -23zM96 -106q17 -17 17 -40q0 -24 -17 -41t-40 -17q-25 0 -42 16.5t-17 41.5q0 23 17 40t42 17q23 0 40 -17zM272 -106q17 -17 17 -40q0 -25 -17 -41.5t-42 -16.5q-23 0 -40 17
t-17 41q0 23 17 40t40 17q25 0 42 -17zM183 -237q17 -17 17 -41t-17 -40.5t-40 -16.5t-40 16.5t-17 40.5t17 41t40 17t40 -17z" />
    <glyph glyph-name="uni06B8.medi" unicode="&#x6b8;" horiz-adv-x="264" 
d="M284 62l-20 -62q-87 0 -131 59q-24 -33 -56.5 -46t-76.5 -13l-20 62l31 73q31 0 44.5 7.5t17.5 24t4 50.5v545l112 15v-559q0 -47 19 -65t68 -18zM85 -106q17 -17 17 -40q0 -24 -17 -41t-40 -17q-25 0 -42 16.5t-17 41.5q0 23 17 40t42 17q23 0 40 -17zM261 -106
q17 -17 17 -40q0 -25 -17 -41.5t-42 -16.5q-23 0 -40 17t-17 41q0 23 17 40t40 17q25 0 42 -17zM172 -237q17 -17 17 -41t-17 -40.5t-40 -16.5t-40 16.5t-17 40.5t17 41t40 17t40 -17z" />
    <glyph glyph-name="uni06B8.fina" unicode="&#x6b8;" horiz-adv-x="714" 
d="M714 0q-50 0 -85 27q-18 -129 -96 -187.5t-221 -58.5q-138 0 -205 67t-67 190q0 103 54 204l86 -25q-27 -74 -27 -157q0 -68 41 -106t130 -38q73 0 116 18.5t62.5 60t19.5 112.5v655l112 14v-559q0 -49 21 -65.5t71 -16.5l8 -71zM266 -322q17 -17 17 -40q0 -24 -17 -41
t-40 -17q-25 0 -42 16.5t-17 41.5q0 23 17 40t42 17q23 0 40 -17zM442 -322q17 -17 17 -40q0 -25 -17 -41.5t-42 -16.5q-23 0 -40 17t-17 41q0 23 17 40t40 17q25 0 42 -17zM353 -453q17 -17 17 -41t-17 -40.5t-40 -16.5t-40 16.5t-17 40.5t17 41t40 17t40 -17z" />
    <glyph glyph-name="uniFEE2" unicode="&#x645;" horiz-adv-x="725" arabic-form="final" 
d="M745 64l-20 -64q-41 0 -73 15t-51 42q-39 -74 -116 -74q-52 0 -98.5 21.5t-102.5 57.5q-35 21 -50 29t-27 8q-31 0 -40.5 -28t-9.5 -73q0 -99 47 -330l-129 -19q-17 106 -26 182t-9 155q0 115 33 187t108 72q20 0 41 -9q55 114 109 164t128 50q47 0 86.5 -28.5t63.5 -81
t25 -122.5q0 -49 23.5 -66t78.5 -17zM515 141.5q19 26.5 19 73.5q0 50 -25 76.5t-65 26.5q-37 0 -67.5 -31.5t-67.5 -103.5q49 -33 83 -50.5t71 -17.5q33 0 52 26.5z" />
    <glyph glyph-name="uniFEE4" unicode="&#x645;" horiz-adv-x="628" arabic-form="medial" 
d="M648 64l-20 -64q-41 0 -72.5 15t-50.5 41q-19 -35 -48.5 -54t-67.5 -19q-55 0 -111.5 25t-117.5 71q-29 -44 -64 -61.5t-76 -17.5h-20l-20 61l31 74h15q29 0 50 19t49 79q38 80 73 127t73.5 68.5t88.5 21.5q49 0 89 -29t63.5 -81.5t24.5 -121.5q0 -49 23.5 -66t78.5 -17z
M418.5 142.5q18.5 27.5 18.5 71.5q0 50 -24.5 77t-64.5 27q-39 0 -69.5 -29t-68.5 -109q98 -65 159 -65q31 0 49.5 27.5z" />
    <glyph glyph-name="uniFEE3" unicode="&#x645;" horiz-adv-x="587" arabic-form="initial" 
d="M450.5 420q40.5 -30 63.5 -84.5t23 -125.5q0 -106 -39 -166.5t-109 -60.5q-55 0 -111.5 25t-117.5 71q-29 -44 -64 -61.5t-76 -17.5h-20l-20 61l31 74h15q29 0 50 19t49 79q38 80 73 127t73.5 68.5t88.5 21.5t90.5 -30zM418.5 142.5q18.5 27.5 18.5 71.5q0 50 -24.5 77
t-64.5 27q-39 0 -69.5 -29t-68.5 -109q98 -65 159 -65q31 0 49.5 27.5z" />
    <glyph glyph-name="uniFEE6" unicode="&#x646;" horiz-adv-x="729" arabic-form="final" 
d="M729 0q-56 0 -92 30q-4 -111 -44 -174.5t-109.5 -89t-171.5 -25.5q-138 0 -205 67t-67 190q0 103 54 204l86 -26q-27 -74 -27 -156q0 -144 171 -144q109 0 156 39.5t47 131.5q0 58 -16 115t-49 125l124 49q13 -42 36 -106q21 -58 47.5 -76.5t70.5 -18.5l9 -73zM274.5 352
q-18.5 19 -18.5 46q0 28 18.5 47t46.5 19t46.5 -19t18.5 -47q0 -27 -18.5 -46t-46.5 -19t-46.5 19z" />
    <glyph glyph-name="uniFEE8" unicode="&#x646;" horiz-adv-x="335" arabic-form="medial" 
d="M355 62l-20 -62q-63 0 -102.5 15t-64.5 53q-25 -38 -64 -53t-104 -15l-20 62l32 73q49 0 69.5 8.5t25.5 26.5t5 60v108h112v-107q0 -40 8.5 -59.5t34 -28t79.5 -8.5zM120.5 432q-18.5 19 -18.5 46q0 28 18.5 47t46.5 19t46.5 -19t18.5 -47q0 -27 -18.5 -46t-46.5 -19
t-46.5 19z" />
    <glyph glyph-name="uniFEE7" unicode="&#x646;" horiz-adv-x="312" arabic-form="initial" 
d="M98.5 141q28.5 6 39 20t10.5 42q0 53 -47 179l118 38q21 -60 32 -122.5t11 -109.5q0 -77 -24.5 -117t-80 -55.5t-157.5 -15.5l-20 62l31 73q59 0 87.5 6zM78.5 502q-18.5 19 -18.5 46q0 28 18.5 47t46.5 19t46.5 -19t18.5 -47q0 -27 -18.5 -46t-46.5 -19t-46.5 19z" />
    <glyph glyph-name="uni06B9.init" unicode="&#x6b9;" horiz-adv-x="312" 
d="M98.5 141q28.5 6 39 20t10.5 42q0 53 -47 179l118 38q21 -60 32 -122.5t11 -109.5q0 -77 -24.5 -117t-80 -55.5t-157.5 -15.5l-20 62l31 73q59 0 87.5 6zM100.5 -198q-18.5 19 -18.5 46q0 28 18.5 47t46.5 19t46.5 -19t18.5 -47q0 -27 -18.5 -46t-46.5 -19t-46.5 19z
M78.5 502q-18.5 19 -18.5 46q0 28 18.5 47t46.5 19t46.5 -19t18.5 -47q0 -27 -18.5 -46t-46.5 -19t-46.5 19z" />
    <glyph glyph-name="uni06B9.medi" unicode="&#x6b9;" horiz-adv-x="335" 
d="M355 62l-20 -62q-63 0 -102.5 15t-64.5 53q-25 -38 -64 -53t-104 -15l-20 62l32 73q49 0 69.5 8.5t25.5 26.5t5 60v108h112v-107q0 -40 8.5 -59.5t34 -28t79.5 -8.5zM120.5 -198q-18.5 19 -18.5 46q0 28 18.5 47t46.5 19t46.5 -19t18.5 -47q0 -27 -18.5 -46t-46.5 -19
t-46.5 19zM120.5 432q-18.5 19 -18.5 46q0 28 18.5 47t46.5 19t46.5 -19t18.5 -47q0 -27 -18.5 -46t-46.5 -19t-46.5 19z" />
    <glyph glyph-name="uni06B9.fina" unicode="&#x6b9;" horiz-adv-x="729" 
d="M729 0q-56 0 -92 30q-4 -111 -44 -174.5t-109.5 -89t-171.5 -25.5q-138 0 -205 67t-67 190q0 103 54 204l86 -26q-27 -74 -27 -156q0 -144 171 -144q109 0 156 39.5t47 131.5q0 58 -16 115t-49 125l124 49q13 -42 36 -106q21 -58 47.5 -76.5t70.5 -18.5l9 -73z
M275.5 -445q-18.5 19 -18.5 46q0 28 18.5 47t46.5 19t46.5 -19t18.5 -47q0 -27 -18.5 -46t-46.5 -19t-46.5 19zM274.5 352q-18.5 19 -18.5 46q0 28 18.5 47t46.5 19t46.5 -19t18.5 -47q0 -27 -18.5 -46t-46.5 -19t-46.5 19z" />
    <glyph glyph-name="uniFB9F" unicode="&#x6ba;" horiz-adv-x="729" arabic-form="final" 
d="M729 0q-56 0 -92 30q-4 -111 -44 -174.5t-109.5 -89t-171.5 -25.5q-138 0 -205 67t-67 190q0 103 54 204l86 -26q-27 -74 -27 -156q0 -144 171 -144q109 0 156 39.5t47 131.5q0 58 -16 115t-49 125l124 49q13 -42 36 -106q21 -58 47.5 -76.5t70.5 -18.5l9 -73z" />
    <glyph glyph-name="uniFBA1" unicode="&#x6bb;" horiz-adv-x="729" arabic-form="final" 
d="M729 0q-56 0 -92 30q-4 -111 -44 -174.5t-109.5 -89t-171.5 -25.5q-138 0 -205 67t-67 190q0 103 54 204l86 -26q-27 -74 -27 -156q0 -144 171 -144q109 0 156 39.5t47 131.5q0 58 -16 115t-49 125l124 49q13 -42 36 -106q21 -58 47.5 -76.5t70.5 -18.5l9 -73zM428 490
q21 -26 21 -66q0 -32 -24.5 -60t-76.5 -28h-155l7 62h33v152h61v-70q19 20 37 28t38 8q38 0 59 -26zM379 405q12 7 12 22q0 26 -29 26q-40 0 -84 -55h60q29 0 41 7z" />
    <glyph glyph-name="uniFBA3" unicode="&#x6bb;" horiz-adv-x="335" arabic-form="medial" 
d="M355 62l-20 -62q-63 0 -102.5 15t-64.5 53q-25 -38 -64 -53t-104 -15l-20 62l32 73q49 0 69.5 8.5t25.5 26.5t5 60v108h112v-107q0 -40 8.5 -59.5t34 -28t79.5 -8.5zM273 570q21 -26 21 -66q0 -32 -24.5 -60t-76.5 -28h-155l7 62h33v152h61v-70q19 20 37 28t38 8
q38 0 59 -26zM224 485q12 7 12 22q0 26 -29 26q-40 0 -84 -55h60q29 0 41 7z" />
    <glyph glyph-name="uniFBA2" unicode="&#x6bb;" horiz-adv-x="312" arabic-form="initial" 
d="M98.5 141q28.5 6 39 20t10.5 42q0 53 -47 179l118 38q21 -60 32 -122.5t11 -109.5q0 -77 -24.5 -117t-80 -55.5t-157.5 -15.5l-20 62l31 73q59 0 87.5 6zM232 640q21 -26 21 -66q0 -32 -24.5 -60t-76.5 -28h-155l7 62h33v152h61v-70q19 20 37 28t38 8q38 0 59 -26z
M183 555q12 7 12 22q0 26 -29 26q-40 0 -84 -55h60q29 0 41 7z" />
    <glyph glyph-name="uni06BC.init" unicode="&#x6bc;" horiz-adv-x="312" 
d="M78.5 502q-18.5 19 -18.5 47q0 27 18.5 46t46.5 19t46.5 -19t18.5 -46q0 -28 -18.5 -47t-46.5 -19t-46.5 19zM249 94.5q-13 -35.5 -43 -56.5q23 -26 23 -63q0 -40 -26.5 -65.5t-66.5 -25.5t-67 26t-27 65q0 14 3 26q-14 -1 -45 -1l-20 62l31 73q59 0 87.5 6t39 20
t10.5 42q0 53 -47 179l118 38q21 -60 32 -122.5t11 -109.5q0 -58 -13 -93.5zM135 10l-14 -3q-22 -8 -22 -32q0 -14 10 -24t27 -10t27 10t10 24q0 16 -10 25.5t-27 9.5h-1z" />
    <glyph glyph-name="uni06BC.medi" unicode="&#x6bc;" horiz-adv-x="335" 
d="M120 432q-19 19 -19 46q0 28 19 47t47 19q27 0 46 -19t19 -47q0 -27 -19 -46t-46 -19q-28 0 -47 19zM232.5 15q-39.5 15 -64.5 53q-3 -6 -8 -11q21 -12 33 -32.5t12 -46.5q0 -40 -26.5 -65.5t-67.5 -25.5q-39 0 -66.5 26t-27.5 65q0 11 3 22h-20l-20 62l32 73
q49 0 69.5 8.5t25.5 26.5t5 60v108h112v-107q0 -40 8.5 -59.5t34 -28t79.5 -8.5l9 -73l-20 -62q-63 0 -102.5 15zM138 -46q10 10 10 24q0 16 -10 25.5t-27 9.5t-27 -9.5t-10 -25.5q0 -14 10 -24t27 -10t27 10z" />
    <glyph glyph-name="uni06BC.fina" unicode="&#x6bc;" horiz-adv-x="729" 
d="M275 352q-19 19 -19 47q0 27 19 46t46 19q28 0 47 -19t19 -46q0 -28 -19 -47t-47 -19q-27 0 -46 19zM729 0q-56 0 -92 30q-6 -139 -66.5 -204.5t-173.5 -79.5q6 -15 6 -34q0 -40 -26.5 -65.5t-67.5 -25.5q-39 0 -66.5 26t-27.5 65q0 19 8 38q-92 20 -137.5 83.5
t-45.5 164.5q0 103 54 204l86 -26q-27 -74 -27 -156q0 -144 171 -144q109 0 156 39.5t47 131.5q0 58 -16 115t-49 125l124 49q13 -42 36 -106q21 -58 47.5 -76.5t70.5 -18.5l9 -73zM329 -259h-17h-22q-17 -8 -17 -29q0 -14 9.5 -24t26.5 -10t27 10t10 24q0 20 -17 29z" />
    <glyph glyph-name="uni06BD.init" unicode="&#x6bd;" horiz-adv-x="312" 
d="M98.5 141q28.5 6 39 20t10.5 42q0 53 -47 179l118 38q21 -60 32 -122.5t11 -109.5q0 -77 -24.5 -117t-80 -55.5t-157.5 -15.5l-20 62l31 73q59 0 87.5 6zM87 634q-17 17 -17 41t17 41t40 17t40 -17t17 -41t-17 -41t-40 -17t-40 17zM-2 503q-17 17 -17 40q0 25 17 42
t42 17q23 0 40 -17.5t17 -41.5q0 -23 -17 -40t-40 -17q-25 0 -42 17zM174 503q-17 17 -17 40q0 24 17 41.5t40 17.5q25 0 42 -17t17 -42q0 -23 -17 -40t-42 -17q-23 0 -40 17z" />
    <glyph glyph-name="uni06BD.medi" unicode="&#x6bd;" horiz-adv-x="335" 
d="M355 62l-20 -62q-63 0 -102.5 15t-64.5 53q-25 -38 -64 -53t-104 -15l-20 62l32 73q49 0 69.5 8.5t25.5 26.5t5 60v108h112v-107q0 -40 8.5 -59.5t34 -28t79.5 -8.5zM128 564q-17 17 -17 41t17 41t40 17t40 -17t17 -41t-17 -41t-40 -17t-40 17zM39 433q-17 17 -17 40
q0 25 17 42t42 17q23 0 40 -17.5t17 -41.5q0 -23 -17 -40t-40 -17q-25 0 -42 17zM215 433q-17 17 -17 40q0 24 17 41.5t40 17.5q25 0 42 -17t17 -42q0 -23 -17 -40t-42 -17q-23 0 -40 17z" />
    <glyph glyph-name="uni06BD.fina" unicode="&#x6bd;" horiz-adv-x="729" 
d="M729 0q-56 0 -92 30q-4 -111 -44 -174.5t-109.5 -89t-171.5 -25.5q-138 0 -205 67t-67 190q0 103 54 204l86 -26q-27 -74 -27 -156q0 -144 171 -144q109 0 156 39.5t47 131.5q0 58 -16 115t-49 125l124 49q13 -42 36 -106q21 -58 47.5 -76.5t70.5 -18.5l9 -73zM283 484
q-17 17 -17 41t17 41t40 17t40 -17t17 -41t-17 -41t-40 -17t-40 17zM194 353q-17 17 -17 40q0 25 17 42t42 17q23 0 40 -17.5t17 -41.5q0 -23 -17 -40t-40 -17q-25 0 -42 17zM370 353q-17 17 -17 40q0 24 17 41.5t40 17.5q25 0 42 -17t17 -42q0 -23 -17 -40t-42 -17
q-23 0 -40 17z" />
    <glyph glyph-name="uniFEEA" unicode="&#x647;" horiz-adv-x="520" arabic-form="final" 
d="M540 61l-20 -61h-32q-113 0 -151 91q-25 -31 -64.5 -48t-83.5 -17q-76 0 -121.5 43.5t-45.5 114.5q0 58 36.5 110.5t105 88t158.5 42.5v86l113 14v-301q0 -50 15.5 -69.5t50.5 -19.5h30zM149.5 161.5q19.5 -15.5 59.5 -15.5q33 0 62 12t51 31v120q-61 -2 -104.5 -17.5
t-65.5 -38.5t-22 -49q0 -27 19.5 -42.5z" />
    <glyph glyph-name="uniFEEC" unicode="&#x647;" horiz-adv-x="505" arabic-form="medial" 
d="M505 0h-100q72 -48 72 -131q0 -70 -44 -109t-111 -39q-63 0 -118 35t-91 98.5t-44 145.5h-69l-20 61l31 74h59q9 94 46 170.5t92.5 120.5t116.5 44q72 0 113 -44.5t41 -119.5q0 -48 -23.5 -94.5t-66.5 -76.5h127l9 -73zM248.5 315.5q-30.5 -23.5 -54 -69.5t-33.5 -111h28
q52 0 94.5 18.5t66.5 50t24 69.5q0 31 -16 48.5t-48 17.5q-31 0 -61.5 -23.5zM349 -134q17 16 17 41q0 42 -36.5 67.5t-100.5 25.5h-69q12 -73 51.5 -111.5t89.5 -38.5q31 0 48 16z" />
    <glyph glyph-name="uniFEEB" unicode="&#x647;" horiz-adv-x="649" arabic-form="initial" 
d="M443 394.5q90 -64.5 122.5 -112.5t32.5 -109q0 -48 -24 -92t-64 -71t-86 -27q-110 0 -199 47q-79 -30 -176 -30h-49l-20 60l31 75h73h22q-43 66 -43 139q0 51 22 93t60 66l-56 32l68 112q196 -118 286 -182.5zM168 210.5q21 -30.5 59 -53.5q91 35 91 115q0 41 -25.5 67
t-62.5 26q-34 0 -58.5 -25t-24.5 -65q0 -34 21 -64.5zM480.5 123q19.5 15 19.5 41q0 23 -20.5 48t-77.5 64q-2 -94 -57 -161q35 -7 79 -7q37 0 56.5 15z" />
    <glyph glyph-name="uniFBA5" unicode="&#x6c0;" horiz-adv-x="520" arabic-form="final" 
d="M540 61l-20 -61h-32q-113 0 -151 91q-25 -31 -64.5 -48t-83.5 -17q-76 0 -121.5 43.5t-45.5 114.5q0 58 36.5 110.5t105 88t158.5 42.5v86l113 14v-301q0 -50 15.5 -69.5t50.5 -19.5h30zM149.5 161.5q19.5 -15.5 59.5 -15.5q33 0 62 12t51 31v120q-61 -2 -104.5 -17.5
t-65.5 -38.5t-22 -49q0 -27 19.5 -42.5zM491 602l-224 -36l-8 66l62 10q-36 33 -36 66q0 39 27.5 64.5t79.5 25.5q41 0 85 -26l-40 -62q-24 15 -45 15q-16 0 -24 -8.5t-8 -18.5q0 -19 27 -45l93 16z" />
    <glyph glyph-name="uniFBA7" unicode="&#x6c1;" horiz-adv-x="603" arabic-form="final" 
d="M22 -32q41 198 105.5 281t154.5 83q41 0 69.5 -12.5t45.5 -31t40 -50.5q24 -34 43.5 -54.5t52 -34.5t81.5 -14l9 -75l-20 -60q-78 0 -129.5 21.5t-78.5 49.5t-54 70q-20 31 -32.5 43.5t-31.5 12.5q-32 0 -55 -26.5t-41 -80t-40 -146.5z" />
    <glyph glyph-name="uniFBA9" unicode="&#x6c1;" horiz-adv-x="605" arabic-form="medial" 
d="M625 62l-20 -62h-35q-155 0 -155 -141q0 -57 21 -142l-101 -34q-75 86 -113.5 180.5t-41.5 192.5q-27 -29 -62.5 -42.5t-83.5 -13.5h-34l-20 62l31 73h36q44 0 73.5 20t52 62.5t47.5 119.5l8 24l109 -30q-47 -159 -47 -241q0 -54 7 -93.5t28 -92.5q1 112 65 171.5
t194 59.5h32z" />
    <glyph glyph-name="uniFBA8" unicode="&#x6c1;" horiz-adv-x="312" arabic-form="initial" 
d="M98.5 141q28.5 6 39 20t10.5 42q0 53 -47 179l118 38q21 -60 32 -122.5t11 -109.5q0 -77 -24.5 -117t-80 -55.5t-157.5 -15.5l-20 62l31 73q59 0 87.5 6zM88 -251q-20 19 -20 53q0 32 23 80l36 79h45l-15 -100q49 -12 49 -66q0 -28 -18.5 -46.5t-47.5 -18.5q-32 0 -52 19
z" />
    <glyph glyph-name="uni06C2.fina" unicode="&#x6c2;" horiz-adv-x="603" 
d="M22 -32q41 198 105.5 281t154.5 83q41 0 69.5 -12.5t45.5 -31t40 -50.5q24 -34 43.5 -54.5t52 -34.5t81.5 -14l9 -75l-20 -60q-78 0 -129.5 21.5t-78.5 49.5t-54 70q-20 31 -32.5 43.5t-31.5 12.5q-32 0 -55 -26.5t-41 -80t-40 -146.5zM394 409l-224 -36l-8 66l62 10
q-36 33 -36 66q0 39 27.5 64.5t79.5 25.5q41 0 85 -26l-40 -62q-24 15 -45 15q-16 0 -24 -8.5t-8 -18.5q0 -19 27 -45l93 16z" />
    <glyph glyph-name="uniFBAB" unicode="&#x6be;" horiz-adv-x="596" arabic-form="final" 
d="M596 0h-100q72 -48 72 -131q0 -70 -44 -109t-111 -39q-63 0 -118 35t-91 99t-44 146q-47 2 -84 12t-60 25l53 119q37 -18 92 -21q9 93 46 169.5t92 120.5t116 44q73 0 114 -44.5t41 -119.5q0 -48 -24 -94.5t-67 -76.5h128l9 -73zM339.5 315.5q-30.5 -23.5 -54 -69.5
t-33.5 -111h28q51 0 93.5 18.5t67 50t24.5 69.5q0 31 -16.5 48.5t-47.5 17.5t-61.5 -23.5zM439 -134q17 16 17 41q0 42 -36.5 67.5t-100.5 25.5h-68q12 -73 51.5 -111.5t89.5 -38.5q30 0 47 16z" />
    <glyph glyph-name="uniFBAD" unicode="&#x6be;" horiz-adv-x="505" arabic-form="medial" 
d="M505 0h-100q72 -48 72 -131q0 -70 -44 -109t-111 -39q-63 0 -118 35t-91 98.5t-44 145.5h-69l-20 61l31 74h59q9 94 46 170.5t92.5 120.5t116.5 44q72 0 113 -44.5t41 -119.5q0 -48 -23.5 -94.5t-66.5 -76.5h127l9 -73zM248.5 315.5q-30.5 -23.5 -54 -69.5t-33.5 -111h28
q52 0 94.5 18.5t66.5 50t24 69.5q0 31 -16 48.5t-48 17.5q-31 0 -61.5 -23.5zM349 -134q17 16 17 41q0 42 -36.5 67.5t-100.5 25.5h-69q12 -73 51.5 -111.5t89.5 -38.5q31 0 48 16z" />
    <glyph glyph-name="uniFBAC" unicode="&#x6be;" horiz-adv-x="649" arabic-form="initial" 
d="M443 394.5q90 -64.5 122.5 -112.5t32.5 -109q0 -48 -24 -92t-64 -71t-86 -27q-110 0 -199 47q-79 -30 -176 -30h-49l-20 60l31 75h73h22q-43 66 -43 139q0 51 22 93t60 66l-56 32l68 112q196 -118 286 -182.5zM168 210.5q21 -30.5 59 -53.5q91 35 91 115q0 41 -25.5 67
t-62.5 26q-34 0 -58.5 -25t-24.5 -65q0 -34 21 -64.5zM480.5 123q19.5 15 19.5 41q0 23 -20.5 48t-77.5 64q-2 -94 -57 -161q35 -7 79 -7q37 0 56.5 15z" />
    <glyph glyph-name="uni06FF.init" unicode="&#x6ff;" horiz-adv-x="649" 
d="M443 394.5q90 -64.5 122.5 -112.5t32.5 -109q0 -48 -24 -92t-64 -71t-86 -27q-110 0 -199 47q-79 -30 -176 -30h-49l-20 60l31 75h73h22q-43 66 -43 139q0 51 22 93t60 66l-56 32l68 112q196 -118 286 -182.5zM168 210.5q21 -30.5 59 -53.5q91 35 91 115q0 41 -25.5 67
t-62.5 26q-34 0 -58.5 -25t-24.5 -65q0 -34 21 -64.5zM480.5 123q19.5 15 19.5 41q0 23 -20.5 48t-77.5 64q-2 -94 -57 -161q35 -7 79 -7q37 0 56.5 15zM276 595l79 142h64l81 -142l-64 -26l-48 80l-48 -80z" />
    <glyph glyph-name="uni06FF.medi" unicode="&#x6ff;" horiz-adv-x="505" 
d="M505 0h-100q72 -48 72 -131q0 -70 -44 -109t-111 -39q-63 0 -118 35t-91 98.5t-44 145.5h-69l-20 61l31 74h59q9 94 46 170.5t92.5 120.5t116.5 44q72 0 113 -44.5t41 -119.5q0 -48 -23.5 -94.5t-66.5 -76.5h127l9 -73zM248.5 315.5q-30.5 -23.5 -54 -69.5t-33.5 -111h28
q52 0 94.5 18.5t66.5 50t24 69.5q0 31 -16 48.5t-48 17.5q-31 0 -61.5 -23.5zM349 -134q17 16 17 41q0 42 -36.5 67.5t-100.5 25.5h-69q12 -73 51.5 -111.5t89.5 -38.5q31 0 48 16zM213 564l79 142h64l81 -142l-64 -26l-48 80l-48 -80z" />
    <glyph glyph-name="uni06FF.fina" unicode="&#x6ff;" horiz-adv-x="596" 
d="M596 0h-100q72 -48 72 -131q0 -70 -44 -109t-111 -39q-63 0 -118 35t-91 99t-44 146q-47 2 -84 12t-60 25l53 119q37 -18 92 -21q9 93 46 169.5t92 120.5t116 44q73 0 114 -44.5t41 -119.5q0 -48 -24 -94.5t-67 -76.5h128l9 -73zM339.5 315.5q-30.5 -23.5 -54 -69.5
t-33.5 -111h28q51 0 93.5 18.5t67 50t24.5 69.5q0 31 -16.5 48.5t-47.5 17.5t-61.5 -23.5zM439 -134q17 16 17 41q0 42 -36.5 67.5t-100.5 25.5h-68q12 -73 51.5 -111.5t89.5 -38.5q30 0 47 16zM303 564l79 142h64l81 -142l-64 -26l-48 80l-48 -80z" />
    <glyph glyph-name="uniFE94" unicode="&#x629;" horiz-adv-x="520" arabic-form="final" 
d="M540 61l-20 -61h-32q-113 0 -151 91q-25 -31 -64.5 -48t-83.5 -17q-76 0 -121.5 43.5t-45.5 114.5q0 58 36.5 110.5t105 88t158.5 42.5v86l113 14v-301q0 -50 15.5 -69.5t50.5 -19.5h30zM149.5 161.5q19.5 -15.5 59.5 -15.5q33 0 62 12t51 31v120q-61 -2 -104.5 -17.5
t-65.5 -38.5t-22 -49q0 -27 19.5 -42.5zM254 623q-18 18 -18 43t18 42.5t42 17.5q25 0 43 -17.5t18 -42.5t-18 -43t-43 -18q-24 0 -42 18zM416.5 623q-17.5 18 -17.5 43t17.5 42.5t42.5 17.5t42.5 -17.5t17.5 -42.5t-17.5 -43t-42.5 -18t-42.5 18z" />
    <glyph glyph-name="uni06C3.fina" unicode="&#x6c3;" horiz-adv-x="603" 
d="M22 -32q41 198 105.5 281t154.5 83q41 0 69.5 -12.5t45.5 -31t40 -50.5q24 -34 43.5 -54.5t52 -34.5t81.5 -14l9 -75l-20 -60q-78 0 -129.5 21.5t-78.5 49.5t-54 70q-20 31 -32.5 43.5t-31.5 12.5q-32 0 -55 -26.5t-41 -80t-40 -146.5zM157 430q-18 18 -18 43t18 42.5
t42 17.5q25 0 43 -17.5t18 -42.5t-18 -43t-43 -18q-24 0 -42 18zM319.5 430q-17.5 18 -17.5 43t17.5 42.5t42.5 17.5t42.5 -17.5t17.5 -42.5t-17.5 -43t-42.5 -18t-42.5 18z" />
    <glyph glyph-name="uniFEEE" unicode="&#x648;" horiz-adv-x="547" arabic-form="final" 
d="M547 0h-92q-25 -110 -112.5 -173.5t-259.5 -104.5l-43 124q133 29 207.5 67t103.5 87h-61q-105 0 -162.5 51.5t-57.5 137.5q0 60 26 109t70 77t96 28q53 0 98 -30t73 -90.5t32 -147.5h93l9 -74zM369 128q-12 154 -111 154q-40 0 -66 -23t-26 -59q0 -39 29 -57.5t91 -18.5
q48 0 83 4z" />
    <glyph glyph-name="uni06C4.fina" unicode="&#x6c4;" horiz-adv-x="547" 
d="M547 0h-92q-25 -110 -112.5 -173.5t-259.5 -104.5l-43 124l27 6q-18 23 -18 53q0 36 25 59.5t60 23.5t59.5 -23.5t24.5 -59.5v-5q99 42 133 100h-61q-105 0 -162.5 51.5t-57.5 137.5q0 60 26 109t70 77t96 28q53 0 98 -30t73 -90.5t32 -147.5h93l9 -74zM369 128
q-12 154 -111 154q-40 0 -66 -23t-26 -59q0 -39 29 -57.5t91 -18.5q48 0 83 4zM110 -72.5q-9 -8.5 -9 -22.5q0 -13 9 -22t24 -9t24 9t9 22q0 14 -9 22.5t-24 8.5t-24 -8.5z" />
    <glyph glyph-name="uni06CA.fina" unicode="&#x6ca;" horiz-adv-x="547" 
d="M547 0h-92q-25 -110 -112.5 -173.5t-259.5 -104.5l-43 124q133 29 207.5 67t103.5 87h-61q-105 0 -162.5 51.5t-57.5 137.5q0 60 26 109t70 77t96 28q53 0 98 -30t73 -90.5t32 -147.5h93l9 -74zM369 128q-12 154 -111 154q-40 0 -66 -23t-26 -59q0 -39 29 -57.5t91 -18.5
q48 0 83 4zM140 502q-18 18 -18 43t18 42.5t42 17.5q25 0 43 -17.5t18 -42.5t-18 -43t-43 -18q-24 0 -42 18zM302.5 502q-17.5 18 -17.5 43t17.5 42.5t42.5 17.5t42.5 -17.5t17.5 -42.5t-17.5 -43t-42.5 -18t-42.5 18z" />
    <glyph glyph-name="uni06CF.fina" unicode="&#x6cf;" horiz-adv-x="547" 
d="M547 0h-92q-25 -110 -112.5 -173.5t-259.5 -104.5l-43 124q133 29 207.5 67t103.5 87h-61q-105 0 -162.5 51.5t-57.5 137.5q0 60 26 109t70 77t96 28q53 0 98 -30t73 -90.5t32 -147.5h93l9 -74zM369 128q-12 154 -111 154q-40 0 -66 -23t-26 -59q0 -39 29 -57.5t91 -18.5
q48 0 83 4zM215.5 490q-18.5 19 -18.5 46q0 28 18.5 47t46.5 19t46.5 -19t18.5 -47q0 -27 -18.5 -46t-46.5 -19t-46.5 19z" />
    <glyph glyph-name="uniFE86" unicode="&#x624;" horiz-adv-x="547" arabic-form="final" 
d="M547 0h-92q-25 -110 -112.5 -173.5t-259.5 -104.5l-43 124q133 29 207.5 67t103.5 87h-61q-105 0 -162.5 51.5t-57.5 137.5q0 60 26 109t70 77t96 28q53 0 98 -30t73 -90.5t32 -147.5h93l9 -74zM369 128q-12 154 -111 154q-40 0 -66 -23t-26 -59q0 -39 29 -57.5t91 -18.5
q48 0 83 4zM377 481l-224 -36l-8 66l62 10q-36 33 -36 66q0 39 27.5 64.5t79.5 25.5q41 0 85 -26l-40 -62q-24 15 -45 15q-16 0 -24 -8.5t-8 -18.5q0 -19 27 -45l93 16z" />
    <glyph glyph-name="uniFBE1" unicode="&#x6c5;" horiz-adv-x="547" arabic-form="final" 
d="M547 0h-92q-25 -110 -112.5 -173.5t-259.5 -104.5l-43 124q106 24 174 52l-144 3l-35 59l270 -11q29 23 46 51h-61q-105 0 -162.5 51.5t-57.5 137.5q0 60 26 109t70 77t96 28q53 0 98 -30t73 -90.5t32 -147.5h93l9 -74zM369 128q-12 154 -111 154q-40 0 -66 -23t-26 -59
q0 -39 29 -57.5t91 -18.5q48 0 83 4z" />
    <glyph glyph-name="uniFBDA" unicode="&#x6c6;" horiz-adv-x="547" arabic-form="final" 
d="M547 0h-92q-25 -110 -112.5 -173.5t-259.5 -104.5l-43 124q133 29 207.5 67t103.5 87h-61q-105 0 -162.5 51.5t-57.5 137.5q0 60 26 109t70 77t96 28q53 0 98 -30t73 -90.5t32 -147.5h93l9 -74zM369 128q-12 154 -111 154q-40 0 -66 -23t-26 -59q0 -39 29 -57.5t91 -18.5
q48 0 83 4zM264 533l48 81l64 -27l-81 -142h-64l-79 142l64 27z" />
    <glyph glyph-name="uniFBD8" unicode="&#x6c7;" horiz-adv-x="547" arabic-form="final" 
d="M547 0h-92q-25 -110 -112.5 -173.5t-259.5 -104.5l-43 124q133 29 207.5 67t103.5 87h-61q-105 0 -162.5 51.5t-57.5 137.5q0 60 26 109t70 77t96 28q53 0 98 -30t73 -90.5t32 -147.5h93l9 -74zM369 128q-12 154 -111 154q-40 0 -66 -23t-26 -59q0 -39 29 -57.5t91 -18.5
q48 0 83 4zM339.5 664.5q21.5 -24.5 21.5 -60.5q0 -48 -37.5 -94t-124.5 -76l-30 60q43 13 75 32q-29 14 -43 34.5t-14 42.5q0 39 27 62.5t63 23.5q41 0 62.5 -24.5zM259 615.5q-7 -6.5 -7 -19.5q0 -22 32 -37q15 18 15 36q0 12 -6.5 19.5t-16.5 7.5t-17 -6.5z" />
    <glyph glyph-name="uniFBDC" unicode="&#x6c8;" horiz-adv-x="547" arabic-form="final" 
d="M547 0h-92q-25 -110 -112.5 -173.5t-259.5 -104.5l-43 124q133 29 207.5 67t103.5 87h-61q-105 0 -162.5 51.5t-57.5 137.5q0 60 26 109t70 77t96 28q53 0 98 -30t73 -90.5t32 -147.5h93l9 -74zM369 128q-12 154 -111 154q-40 0 -66 -23t-26 -59q0 -39 29 -57.5t91 -18.5
q48 0 83 4zM300 642v-188h-73v179z" />
    <glyph glyph-name="uniFBE3" unicode="&#x6c9;" horiz-adv-x="547" arabic-form="final" 
d="M547 0h-92q-25 -110 -112.5 -173.5t-259.5 -104.5l-43 124q133 29 207.5 67t103.5 87h-61q-105 0 -162.5 51.5t-57.5 137.5q0 60 26 109t70 77t96 28q53 0 98 -30t73 -90.5t32 -147.5h93l9 -74zM369 128q-12 154 -111 154q-40 0 -66 -23t-26 -59q0 -39 29 -57.5t91 -18.5
q48 0 83 4zM152 498l79 142h64l81 -142l-64 -26l-48 80l-48 -80z" />
    <glyph glyph-name="uniFBDF" unicode="&#x6cb;" horiz-adv-x="547" arabic-form="final" 
d="M547 0h-92q-25 -110 -112.5 -173.5t-259.5 -104.5l-43 124q133 29 207.5 67t103.5 87h-61q-105 0 -162.5 51.5t-57.5 137.5q0 60 26 109t70 77t96 28q53 0 98 -30t73 -90.5t32 -147.5h93l9 -74zM369 128q-12 154 -111 154q-40 0 -66 -23t-26 -59q0 -39 29 -57.5t91 -18.5
q48 0 83 4zM224 622q-17 17 -17 41t17 41t40 17t40 -17t17 -41t-17 -41t-40 -17t-40 17zM135 491q-17 17 -17 40q0 25 17 42t42 17q23 0 40 -17.5t17 -41.5q0 -23 -17 -40t-40 -17q-25 0 -42 17zM311 491q-17 17 -17 40q0 24 17 41.5t40 17.5q25 0 42 -17t17 -42
q0 -23 -17 -40t-42 -17q-23 0 -40 17z" />
    <glyph glyph-name="uniFEF0" unicode="&#x649;" horiz-adv-x="723" arabic-form="final" 
d="M723 0q-31 0 -68 13q7 -19 7 -33q0 -54 -39 -99t-117.5 -72.5t-193.5 -27.5q-138 0 -205 67t-67 190q0 103 54 204l86 -25q-27 -74 -27 -157q0 -68 41 -106t130 -38q71 0 124.5 12.5t82.5 31t29 37.5q0 25 -34.5 43t-121.5 40l54 117q5 -1 76 -22q75 -21 117 -30.5
t83 -9.5l9 -73z" />
    <glyph glyph-name="uniFEF2" unicode="&#x64a;" horiz-adv-x="723" arabic-form="final" 
d="M723 0q-31 0 -68 13q7 -19 7 -33q0 -54 -39 -99t-117.5 -72.5t-193.5 -27.5q-138 0 -205 67t-67 190q0 103 54 204l86 -25q-27 -74 -27 -157q0 -68 41 -106t130 -38q71 0 124.5 12.5t82.5 31t29 37.5q0 25 -34.5 43t-121.5 40l54 117q5 -1 76 -22q75 -21 117 -30.5
t83 -9.5l9 -73zM193 -396.5q-18 17.5 -18 42.5t18 42.5t42 17.5q25 0 43 -17.5t18 -42.5t-18 -42.5t-43 -17.5q-24 0 -42 17.5zM355.5 -396.5q-17.5 17.5 -17.5 42.5t17.5 42.5t42.5 17.5t42.5 -17.5t17.5 -42.5t-17.5 -42.5t-42.5 -17.5t-42.5 17.5z" />
    <glyph glyph-name="uniFEF4" unicode="&#x64a;" horiz-adv-x="335" arabic-form="medial" 
d="M355 62l-20 -62q-63 0 -102.5 15t-64.5 53q-25 -38 -64 -53t-104 -15l-20 62l32 73q49 0 69.5 8.5t25.5 26.5t5 60v108h112v-107q0 -40 8.5 -59.5t34 -28t79.5 -8.5zM43 -185.5q-18 17.5 -18 42.5t18 42.5t42 17.5q25 0 43 -17.5t18 -42.5t-18 -42.5t-43 -17.5
q-24 0 -42 17.5zM205.5 -185.5q-17.5 17.5 -17.5 42.5t17.5 42.5t42.5 17.5t42.5 -17.5t17.5 -42.5t-17.5 -42.5t-42.5 -17.5t-42.5 17.5z" />
    <glyph glyph-name="uniFEF3" unicode="&#x64a;" horiz-adv-x="312" arabic-form="initial" 
d="M98.5 141q28.5 6 39 20t10.5 42q0 53 -47 179l118 38q21 -60 32 -122.5t11 -109.5q0 -77 -24.5 -117t-80 -55.5t-157.5 -15.5l-20 62l31 73q59 0 87.5 6zM23 -185.5q-18 17.5 -18 42.5t18 42.5t42 17.5q25 0 43 -17.5t18 -42.5t-18 -42.5t-43 -17.5q-24 0 -42 17.5z
M185.5 -185.5q-17.5 17.5 -17.5 42.5t17.5 42.5t42.5 17.5t42.5 -17.5t17.5 -42.5t-17.5 -42.5t-42.5 -17.5t-42.5 17.5z" />
    <glyph glyph-name="uniFE8A" unicode="&#x626;" horiz-adv-x="723" arabic-form="final" 
d="M723 0q-31 0 -68 13q7 -19 7 -33q0 -54 -39 -99t-117.5 -72.5t-193.5 -27.5q-138 0 -205 67t-67 190q0 103 54 204l86 -25q-27 -74 -27 -157q0 -68 41 -106t130 -38q71 0 124.5 12.5t82.5 31t29 37.5q0 25 -34.5 43t-121.5 40l54 117q5 -1 76 -22q75 -21 117 -30.5
t83 -9.5l9 -73zM265 334l-224 -36l-8 66l62 10q-36 33 -36 66q0 39 27.5 64.5t79.5 25.5q41 0 85 -26l-40 -62q-24 15 -45 15q-16 0 -24 -8.5t-8 -18.5q0 -19 27 -45l93 16z" />
    <glyph glyph-name="uniFE8C" unicode="&#x626;" horiz-adv-x="335" arabic-form="medial" 
d="M355 62l-20 -62q-63 0 -102.5 15t-64.5 53q-25 -38 -64 -53t-104 -15l-20 62l32 73q49 0 69.5 8.5t25.5 26.5t5 60v108h112v-107q0 -40 8.5 -59.5t34 -28t79.5 -8.5zM281 423l-224 -36l-8 66l62 10q-36 33 -36 66q0 39 27.5 64.5t79.5 25.5q41 0 85 -26l-40 -62
q-24 15 -45 15q-16 0 -24 -8.5t-8 -18.5q0 -19 27 -45l93 16z" />
    <glyph glyph-name="uniFE8B" unicode="&#x626;" horiz-adv-x="312" arabic-form="initial" 
d="M98.5 141q28.5 6 39 20t10.5 42q0 53 -47 179l118 38q21 -60 32 -122.5t11 -109.5q0 -77 -24.5 -117t-80 -55.5t-157.5 -15.5l-20 62l31 73q59 0 87.5 6zM240 493l-224 -36l-8 66l62 10q-36 33 -36 66q0 39 27.5 64.5t79.5 25.5q41 0 85 -26l-40 -62q-24 15 -45 15
q-16 0 -24 -8.5t-8 -18.5q0 -19 27 -45l93 16z" />
    <glyph glyph-name="uni06CE.init" unicode="&#x6ce;" horiz-adv-x="312" 
d="M98.5 141q28.5 6 39 20t10.5 42q0 53 -47 179l118 38q21 -60 32 -122.5t11 -109.5q0 -77 -24.5 -117t-80 -55.5t-157.5 -15.5l-20 62l31 73q59 0 87.5 6zM23 -185.5q-18 17.5 -18 42.5t18 42.5t42 17.5q25 0 43 -17.5t18 -42.5t-18 -42.5t-43 -17.5q-24 0 -42 17.5z
M185.5 -185.5q-17.5 17.5 -17.5 42.5t17.5 42.5t42.5 17.5t42.5 -17.5t17.5 -42.5t-17.5 -42.5t-42.5 -17.5t-42.5 17.5zM127 545l48 81l64 -27l-81 -142h-64l-79 142l64 27z" />
    <glyph glyph-name="uni06CE.medi" unicode="&#x6ce;" horiz-adv-x="335" 
d="M355 62l-20 -62q-63 0 -102.5 15t-64.5 53q-25 -38 -64 -53t-104 -15l-20 62l32 73q49 0 69.5 8.5t25.5 26.5t5 60v108h112v-107q0 -40 8.5 -59.5t34 -28t79.5 -8.5zM43 -185.5q-18 17.5 -18 42.5t18 42.5t42 17.5q25 0 43 -17.5t18 -42.5t-18 -42.5t-43 -17.5
q-24 0 -42 17.5zM205.5 -185.5q-17.5 17.5 -17.5 42.5t17.5 42.5t42.5 17.5t42.5 -17.5t17.5 -42.5t-17.5 -42.5t-42.5 -17.5t-42.5 17.5zM168 475l48 81l64 -27l-81 -142h-64l-79 142l64 27z" />
    <glyph glyph-name="uni06CE.fina" unicode="&#x6ce;" horiz-adv-x="723" 
d="M723 0q-31 0 -68 13q7 -19 7 -33q0 -54 -39 -99t-117.5 -72.5t-193.5 -27.5q-138 0 -205 67t-67 190q0 103 54 204l86 -25q-27 -74 -27 -157q0 -68 41 -106t130 -38q71 0 124.5 12.5t82.5 31t29 37.5q0 25 -34.5 43t-121.5 40l54 117q5 -1 76 -22q75 -21 117 -30.5
t83 -9.5l9 -73zM152 386l48 81l64 -27l-81 -142h-64l-79 142l64 27z" />
    <glyph glyph-name="uniFBFD" unicode="&#x6cc;" horiz-adv-x="723" arabic-form="final" 
d="M723 0q-31 0 -68 13q7 -19 7 -33q0 -54 -39 -99t-117.5 -72.5t-193.5 -27.5q-138 0 -205 67t-67 190q0 103 54 204l86 -25q-27 -74 -27 -157q0 -68 41 -106t130 -38q71 0 124.5 12.5t82.5 31t29 37.5q0 25 -34.5 43t-121.5 40l54 117q5 -1 76 -22q75 -21 117 -30.5
t83 -9.5l9 -73z" />
    <glyph glyph-name="uniFBFF" unicode="&#x6cc;" horiz-adv-x="335" arabic-form="medial" 
d="M355 62l-20 -62q-63 0 -102.5 15t-64.5 53q-25 -38 -64 -53t-104 -15l-20 62l32 73q49 0 69.5 8.5t25.5 26.5t5 60v108h112v-107q0 -40 8.5 -59.5t34 -28t79.5 -8.5zM43 -185.5q-18 17.5 -18 42.5t18 42.5t42 17.5q25 0 43 -17.5t18 -42.5t-18 -42.5t-43 -17.5
q-24 0 -42 17.5zM205.5 -185.5q-17.5 17.5 -17.5 42.5t17.5 42.5t42.5 17.5t42.5 -17.5t17.5 -42.5t-17.5 -42.5t-42.5 -17.5t-42.5 17.5z" />
    <glyph glyph-name="uniFBFE" unicode="&#x6cc;" horiz-adv-x="312" arabic-form="initial" 
d="M98.5 141q28.5 6 39 20t10.5 42q0 53 -47 179l118 38q21 -60 32 -122.5t11 -109.5q0 -77 -24.5 -117t-80 -55.5t-157.5 -15.5l-20 62l31 73q59 0 87.5 6zM23 -185.5q-18 17.5 -18 42.5t18 42.5t42 17.5q25 0 43 -17.5t18 -42.5t-18 -42.5t-43 -17.5q-24 0 -42 17.5z
M185.5 -185.5q-17.5 17.5 -17.5 42.5t17.5 42.5t42.5 17.5t42.5 -17.5t17.5 -42.5t-17.5 -42.5t-42.5 -17.5t-42.5 17.5z" />
    <glyph glyph-name="uni06CD.fina" unicode="&#x6cd;" horiz-adv-x="777" 
d="M777 0q-30 0 -67 13q7 -19 7 -33q0 -54 -39 -99t-117.5 -72.5t-193.5 -27.5q-138 0 -205.5 67t-67.5 190q0 37 9 84q-45 -13 -92 -18l-15 59q80 26 152 79l87 -25q-28 -71 -28 -157q0 -68 41 -106t130 -38q71 0 125 12.5t83 31t29 37.5q0 25 -35 43t-122 40l54 117
q4 -1 79 -22q67 -20 111.5 -30t85.5 -10l9 -73z" />
    <glyph glyph-name="uniFBE5" unicode="&#x6d0;" horiz-adv-x="723" arabic-form="final" 
d="M723 0q-31 0 -68 13q7 -19 7 -33q0 -54 -39 -99t-117.5 -72.5t-193.5 -27.5q-138 0 -205 67t-67 190q0 103 54 204l86 -25q-27 -74 -27 -157q0 -68 41 -106t130 -38q71 0 124.5 12.5t82.5 31t29 37.5q0 25 -34.5 43t-121.5 40l54 117q5 -1 76 -22q75 -21 117 -30.5
t83 -9.5l9 -73zM274.5 -386q-17.5 18 -17.5 43t17.5 42.5t42.5 17.5t42.5 -17.5t17.5 -42.5q0 -26 -17.5 -43.5t-42.5 -17.5t-42.5 18zM275.5 -542.5q-17.5 17.5 -17.5 42.5t17.5 43t42.5 18t42.5 -18t17.5 -43t-17.5 -42.5t-42.5 -17.5t-42.5 17.5z" />
    <glyph glyph-name="uniFBE7" unicode="&#x6d0;" horiz-adv-x="335" arabic-form="medial" 
d="M355 62l-20 -62q-63 0 -102.5 15t-64.5 53q-25 -38 -64 -53t-104 -15l-20 62l32 73q49 0 69.5 8.5t25.5 26.5t5 60v108h112v-107q0 -40 8.5 -59.5t34 -28t79.5 -8.5zM124.5 -175q-17.5 18 -17.5 43t17.5 42.5t42.5 17.5t42.5 -17.5t17.5 -42.5q0 -26 -17.5 -43.5
t-42.5 -17.5t-42.5 18zM125.5 -331.5q-17.5 17.5 -17.5 42.5t17.5 43t42.5 18t42.5 -18t17.5 -43t-17.5 -42.5t-42.5 -17.5t-42.5 17.5z" />
    <glyph glyph-name="uniFBE6" unicode="&#x6d0;" horiz-adv-x="312" arabic-form="initial" 
d="M98.5 141q28.5 6 39 20t10.5 42q0 53 -47 179l118 38q21 -60 32 -122.5t11 -109.5q0 -77 -24.5 -117t-80 -55.5t-157.5 -15.5l-20 62l31 73q59 0 87.5 6zM104.5 -175q-17.5 18 -17.5 43t17.5 42.5t42.5 17.5t42.5 -17.5t17.5 -42.5q0 -26 -17.5 -43.5t-42.5 -17.5
t-42.5 18zM105.5 -331.5q-17.5 17.5 -17.5 42.5t17.5 43t42.5 18t42.5 -18t17.5 -43t-17.5 -42.5t-42.5 -17.5t-42.5 17.5z" />
    <glyph glyph-name="uni06D1.init" unicode="&#x6d1;" horiz-adv-x="312" 
d="M98.5 141q28.5 6 39 20t10.5 42q0 53 -47 179l118 38q21 -60 32 -122.5t11 -109.5q0 -77 -24.5 -117t-80 -55.5t-157.5 -15.5l-20 62l31 73q59 0 87.5 6zM100 -106q17 -17 17 -40q0 -24 -17 -41t-40 -17q-25 0 -42 16.5t-17 41.5q0 23 17 40t42 17q23 0 40 -17zM276 -106
q17 -17 17 -40q0 -25 -17 -41.5t-42 -16.5q-23 0 -40 17t-17 41q0 23 17 40t40 17q25 0 42 -17zM187 -237q17 -17 17 -41t-17 -40.5t-40 -16.5t-40 16.5t-17 40.5t17 41t40 17t40 -17z" />
    <glyph glyph-name="uni06D1.medi" unicode="&#x6d1;" horiz-adv-x="335" 
d="M355 62l-20 -62q-63 0 -102.5 15t-64.5 53q-25 -38 -64 -53t-104 -15l-20 62l32 73q49 0 69.5 8.5t25.5 26.5t5 60v108h112v-107q0 -40 8.5 -59.5t34 -28t79.5 -8.5zM120 -106q17 -17 17 -40q0 -24 -17 -41t-40 -17q-25 0 -42 16.5t-17 41.5q0 23 17 40t42 17
q23 0 40 -17zM296 -106q17 -17 17 -40q0 -25 -17 -41.5t-42 -16.5q-23 0 -40 17t-17 41q0 23 17 40t40 17q25 0 42 -17zM207 -237q17 -17 17 -41t-17 -40.5t-40 -16.5t-40 16.5t-17 40.5t17 41t40 17t40 -17z" />
    <glyph glyph-name="uni06D1.fina" unicode="&#x6d1;" horiz-adv-x="723" 
d="M723 0q-31 0 -68 13q7 -19 7 -33q0 -54 -39 -99t-117.5 -72.5t-193.5 -27.5q-138 0 -205 67t-67 190q0 103 54 204l86 -25q-27 -74 -27 -157q0 -68 41 -106t130 -38q71 0 124.5 12.5t82.5 31t29 37.5q0 25 -34.5 43t-121.5 40l54 117q5 -1 76 -22q75 -21 117 -30.5
t83 -9.5l9 -73zM270 -317q17 -17 17 -40q0 -24 -17 -41t-40 -17q-25 0 -42 16.5t-17 41.5q0 23 17 40t42 17q23 0 40 -17zM446 -317q17 -17 17 -40q0 -25 -17 -41.5t-42 -16.5q-23 0 -40 17t-17 41q0 23 17 40t40 17q25 0 42 -17zM357 -448q17 -17 17 -41t-17 -40.5
t-40 -16.5t-40 16.5t-17 40.5t17 41t40 17t40 -17z" />
    <glyph glyph-name="uniFBAF" unicode="&#x6d2;" horiz-adv-x="787" arabic-form="final" 
d="M229 -292q-70 0 -116.5 22t-68.5 57.5t-22 75.5q0 69 40.5 131.5t122 102t197.5 39.5h416l9 -74l-20 -62h-428q-78 0 -131 -16t-79 -42.5t-26 -57.5q0 -21 14.5 -32t50.5 -11h588l-42 -133h-505z" />
    <glyph glyph-name="uniFBB1" unicode="&#x6d3;" horiz-adv-x="787" arabic-form="final" 
d="M229 -292q-70 0 -116.5 22t-68.5 57.5t-22 75.5q0 69 40.5 131.5t122 102t197.5 39.5h416l9 -74l-20 -62h-428q-78 0 -131 -16t-79 -42.5t-26 -57.5q0 -21 14.5 -32t50.5 -11h588l-42 -133h-505zM373 248l-224 -36l-8 66l62 10q-36 33 -36 66q0 39 27.5 64.5t79.5 25.5
q41 0 85 -26l-40 -62q-24 15 -45 15q-16 0 -24 -8.5t-8 -18.5q0 -19 27 -45l93 16z" />
    <glyph glyph-name="uni0676.fina" unicode="&#x676;" horiz-adv-x="547" 
d="M452 535l-224 -36l-8 66l62 10q-36 33 -36 66q0 39 27.5 64.5t79.5 25.5q41 0 85 -26l-40 -62q-24 15 -45 15q-16 0 -24 -8.5t-8 -18.5q0 -19 27 -45l93 16zM547 0h-92q-25 -110 -112.5 -173.5t-259.5 -104.5l-43 124q133 29 207.5 67t103.5 87h-61q-105 0 -162.5 51.5
t-57.5 137.5q0 60 26 109t70 77t96 28q53 0 98 -30t73 -90.5t32 -147.5h93l9 -74zM369 128q-12 154 -111 154q-40 0 -66 -23t-26 -59q0 -39 29 -57.5t91 -18.5q48 0 83 4z" />
    <glyph glyph-name="uni0677.fina" unicode="&#x677;" horiz-adv-x="547" 
d="M547 0h-92q-25 -110 -112.5 -173.5t-259.5 -104.5l-43 124q133 29 207.5 67t103.5 87h-61q-105 0 -162.5 51.5t-57.5 137.5q0 60 26 109t70 77t96 28q53 0 98 -30t73 -90.5t32 -147.5h93l9 -74zM369 128q-12 154 -111 154q-40 0 -66 -23t-26 -59q0 -39 29 -57.5t91 -18.5
q48 0 83 4zM377 481l-224 -36l-8 66l62 10q-36 33 -36 66q0 39 27.5 64.5t79.5 25.5q41 0 85 -26l-40 -62q-24 15 -45 15q-16 0 -24 -8.5t-8 -18.5q0 -19 27 -45l93 16zM336.5 932.5q21.5 -24.5 21.5 -60.5q0 -48 -37.5 -94t-124.5 -76l-30 60q43 13 75 32q-29 14 -43 34.5
t-14 42.5q0 39 27 62.5t63 23.5q41 0 62.5 -24.5zM256 883.5q-7 -6.5 -7 -19.5q0 -22 32 -37q15 18 15 36q0 12 -6.5 19.5t-16.5 7.5t-17 -6.5z" />
    <glyph glyph-name="uni0678.init" unicode="&#x678;" horiz-adv-x="312" 
d="M266 575l-224 -36l-8 66l62 10q-36 33 -36 66q0 39 27.5 64.5t79.5 25.5q41 0 85 -26l-40 -62q-24 15 -45 15q-16 0 -24 -8.5t-8 -18.5q0 -19 27 -45l93 16zM98.5 141q28.5 6 39 20t10.5 42q0 53 -47 179l118 38q21 -60 32 -122.5t11 -109.5q0 -77 -24.5 -117t-80 -55.5
t-157.5 -15.5l-20 62l31 73q59 0 87.5 6z" />
    <glyph glyph-name="uni0678.medi" unicode="&#x678;" horiz-adv-x="335" 
d="M72 535l62 10q-37 33 -37 66q0 38 28 64t79 26q40 0 86 -26l-41 -62q-23 15 -45 15q-16 0 -23.5 -8t-7.5 -19q0 -21 27 -45l93 16l11 -67l-224 -36zM355 62l-20 -62q-63 0 -102.5 15t-64.5 53q-25 -38 -64 -53t-104 -15l-20 62l32 73q49 0 69.5 8.5t25.5 26.5t5 60v108
h112v-107q0 -40 8.5 -59.5t34 -28t79.5 -8.5z" />
    <glyph glyph-name="uni0678.fina" unicode="&#x678;" horiz-adv-x="723" 
d="M723 0q-31 0 -68 13q7 -19 7 -33q0 -54 -39 -99t-117.5 -72.5t-193.5 -27.5q-138 0 -205 67t-67 190q0 103 54 204l86 -25q-27 -74 -27 -157q0 -68 41 -106t130 -38q71 0 124.5 12.5t82.5 31t29 37.5q0 25 -34.5 43t-121.5 40l54 117q5 -1 76 -22q75 -21 117 -30.5
t83 -9.5l9 -73zM645 300l-224 -36l-8 66l62 10q-36 33 -36 66q0 39 27.5 64.5t79.5 25.5q41 0 85 -26l-40 -62q-24 15 -45 15q-16 0 -24 -8.5t-8 -18.5q0 -19 27 -45l93 16z" />
    <glyph glyph-name="uni06D5.fina" unicode="&#x6d5;" horiz-adv-x="520" 
d="M540 61l-20 -61h-32q-113 0 -151 91q-25 -31 -64.5 -48t-83.5 -17q-76 0 -121.5 43.5t-45.5 114.5q0 58 36.5 110.5t105 88t158.5 42.5v86l113 14v-301q0 -50 15.5 -69.5t50.5 -19.5h30zM149.5 161.5q19.5 -15.5 59.5 -15.5q33 0 62 12t51 31v120q-61 -2 -104.5 -17.5
t-65.5 -38.5t-22 -49q0 -27 19.5 -42.5z" />
    <glyph glyph-name="uniFE70" unicode="&#xfe70;" horiz-adv-x="600" arabic-form="isolated" 
d="M28 755l226 43l-2 -69l-226 -43zM28 654l226 43l-2 -69l-226 -43z" />
    <glyph glyph-name="uniFE72" unicode="&#xfe72;" horiz-adv-x="600" arabic-form="isolated" 
d="M302 810.5q21 -24.5 21 -60.5q0 -45 -35.5 -93.5t-104.5 -80.5l-55 25q0 20 -4 30.5t-14 10.5q-7 0 -14.5 -4.5t-17.5 -15.5l-34 40q35 44 70 44q26 0 41.5 -17t20.5 -46q19 10 38 25q-63 31 -63 82q0 39 27 62t63 23q40 0 61 -24.5zM222 761.5q-7 -6.5 -7 -20.5
q0 -22 33 -38q14 20 14 38q0 12 -6 19.5t-16 7.5q-11 0 -18 -6.5z" />
    <glyph glyph-name="uniFE74" unicode="&#xfe74;" horiz-adv-x="600" arabic-form="isolated" 
d="M31 -97l226 43l-2 -69l-226 -43zM32 -195l226 43l-2 -69l-226 -43z" />
    <glyph glyph-name="uniFE76" unicode="&#xfe76;" horiz-adv-x="600" arabic-form="isolated" 
d="M29 647l226 43l-2 -69l-226 -43z" />
    <glyph glyph-name="uniFE78" unicode="&#xfe78;" horiz-adv-x="600" arabic-form="isolated" 
d="M174.5 799.5q21.5 -24.5 21.5 -60.5q0 -48 -37.5 -94t-124.5 -76l-30 60q43 13 75 32q-29 14 -43 34.5t-14 42.5q0 39 27 62.5t63 23.5q41 0 62.5 -24.5zM94 750.5q-7 -6.5 -7 -19.5q0 -22 32 -37q15 18 15 36q0 12 -6.5 19.5t-16.5 7.5t-17 -6.5z" />
    <glyph glyph-name="uniFE7C" unicode="&#xfe7c;" horiz-adv-x="600" arabic-form="isolated" 
d="M270 744.5q6 -25.5 6 -44.5q0 -38 -21 -60t-57 -22q-39 0 -56 28q-20 -31 -60 -31q-28 0 -50.5 20t-22.5 58q0 34 18 72l55 -14q-6 -22 -6 -41q0 -26 17 -26q9 0 15 7.5t6 23.5v31h57v-33q0 -25 19 -25t19 30q0 25 -11 53l57 19q9 -20 15 -45.5z" />
    <glyph glyph-name="uniFC61" unicode="&#xfc61;" arabic-form="isolated" 
d="M270 744.5q6 -25.5 6 -44.5q0 -38 -21 -60t-57 -22q-39 0 -56 28q-20 -31 -60 -31q-28 0 -50.5 20t-22.5 58q0 34 18 72l55 -14q-6 -22 -6 -41q0 -26 17 -26q9 0 15 7.5t6 23.5v31h57v-33q0 -25 19 -25t19 30q0 25 -11 53l57 19q9 -20 15 -45.5zM217.5 1017.5
q21.5 -24.5 21.5 -60.5q0 -48 -37.5 -94t-124.5 -76l-30 60q43 13 75 32q-29 14 -43 34.5t-14 42.5q0 39 27 62.5t63 23.5q41 0 62.5 -24.5zM137 968.5q-7 -6.5 -7 -19.5q0 -22 32 -37q15 18 15 36q0 12 -6.5 19.5t-16.5 7.5t-17 -6.5z" />
    <glyph glyph-name="uniFC63" unicode="&#xfc63;" arabic-form="isolated" 
d="M270 744.5q6 -25.5 6 -44.5q0 -38 -21 -60t-57 -22q-39 0 -56 28q-20 -31 -60 -31q-28 0 -50.5 20t-22.5 58q0 34 18 72l55 -14q-6 -22 -6 -41q0 -26 17 -26q9 0 15 7.5t6 23.5v31h57v-33q0 -25 19 -25t19 30q0 25 -11 53l57 19q9 -20 15 -45.5zM178 995v-188h-73v179z
" />
    <glyph glyph-name="uniFE7E" unicode="&#xfe7e;" horiz-adv-x="600" arabic-form="isolated" 
d="M170 603q-29 -27 -70 -27t-70 27t-29 70t29 70t70 27t70 -27t29 -70t-29 -70zM128.5 700q-10.5 10 -28.5 10t-28.5 -10t-10.5 -27t10.5 -27t28.5 -10t28.5 10t10.5 27t-10.5 27z" />
    <glyph glyph-name=".notdef" horiz-adv-x="666" 
d="M543 -350h-420v1400h420v-1400zM178 998v-1296h311v1296h-311zM409.5 419q25.5 -32 25.5 -83q0 -53 -22.5 -82t-72.5 -36v-45q0 -11 -7.5 -17.5t-17.5 -6.5t-17.5 6.5t-7.5 17.5v84q53 3 72 19.5t19 57.5q0 33 -13 51t-48 18q-29 0 -52 -11q-8 -3 -13 -3q-11 0 -17.5 6.5
t-6.5 16.5q0 19 29.5 29t63.5 10q60 0 85.5 -32zM340 110q10 -10 10 -25q0 -16 -10 -26.5t-25 -10.5t-25 10.5t-10 26.5q0 15 10 25t25 10t25 -10z" />
    <glyph glyph-name="NULL" 
 />
    <glyph glyph-name="nonmarkingreturn" unicode="&#xd;" horiz-adv-x="244" 
 />
    <glyph glyph-name="space" unicode=" " horiz-adv-x="244" 
 />
    <glyph glyph-name="A" unicode="A" horiz-adv-x="586" 
d="M400 155h-217l-39 -155h-153l213 692h179l212 -692h-156zM372 264l-81 319l-80 -319h161z" />
    <glyph glyph-name="Aacute" unicode="&#xc1;" horiz-adv-x="586" 
d="M400 155h-217l-39 -155h-153l213 692h179l212 -692h-156zM372 264l-81 319l-80 -319h161zM429 837l-234 -85l-36 73l216 120z" />
    <glyph glyph-name="Aacute.loclHUN" horiz-adv-x="586" 
d="M400 155h-217l-39 -155h-153l213 692h179l212 -692h-156zM372 264l-81 319l-80 -319h161zM431 894l-140 -154l-65 37l99 178z" />
    <glyph glyph-name="Abreve" unicode="&#x102;" horiz-adv-x="586" 
d="M400 155h-217l-39 -155h-153l213 692h179l212 -692h-156zM372 264l-81 319l-80 -319h161zM177 796q-45 44 -51 109l81 15q10 -31 31 -49t55 -18q33 0 55 18t32 49l81 -15q-6 -65 -51.5 -109t-116.5 -44t-116 44z" />
    <glyph glyph-name="uni1EAE" unicode="&#x1eae;" horiz-adv-x="586" 
d="M400 155h-217l-39 -155h-153l213 692h179l212 -692h-156zM372 264l-81 319l-80 -319h161zM177 781q-45 44 -51 109l81 15q10 -31 31 -49t55 -18q33 0 55 18t32 49l81 -15q-6 -65 -51.5 -109t-116.5 -44t-116 44zM448 1030l-152 -137l-55 49l128 164z" />
    <glyph glyph-name="uni1EB6" unicode="&#x1eb6;" horiz-adv-x="586" 
d="M400 155h-217l-39 -155h-153l213 692h179l212 -692h-156zM372 264l-81 319l-80 -319h161zM177 796q-45 44 -51 109l81 15q10 -31 31 -49t55 -18q33 0 55 18t32 49l81 -15q-6 -65 -51.5 -109t-116.5 -44t-116 44zM231 -206q-24 24 -24 60q0 35 24.5 58.5t62.5 23.5
q37 0 61.5 -23.5t24.5 -58.5q0 -36 -24.5 -60t-61.5 -24q-39 0 -63 24z" />
    <glyph glyph-name="uni1EB0" unicode="&#x1eb0;" horiz-adv-x="586" 
d="M400 155h-217l-39 -155h-153l213 692h179l212 -692h-156zM372 264l-81 319l-80 -319h161zM177 781q-45 44 -51 109l81 15q10 -31 31 -49t55 -18q33 0 55 18t32 49l81 -15q-6 -65 -51.5 -109t-116.5 -44t-116 44zM347 942l-55 -49l-152 137l78 76z" />
    <glyph glyph-name="uni1EB2" unicode="&#x1eb2;" horiz-adv-x="586" 
d="M400 155h-217l-39 -155h-153l213 692h179l212 -692h-156zM372 264l-81 319l-80 -319h161zM178 781q-45 44 -51 109l81 15q10 -31 31 -49t55 -18q33 0 55 18t32 49l81 -15q-6 -65 -51.5 -109t-116.5 -44t-116 44zM250 977q38 2 54.5 10.5t16.5 28.5q0 16 -10.5 24t-29.5 8
q-27 0 -60 -13l-25 62q44 26 105 26q57 0 89 -27.5t32 -72.5q0 -75 -84 -91v-44h-88v89z" />
    <glyph glyph-name="uni1EB4" unicode="&#x1eb4;" horiz-adv-x="586" 
d="M400 155h-217l-39 -155h-153l213 692h179l212 -692h-156zM372 264l-81 319l-80 -319h161zM177 781q-45 44 -51 109l81 15q10 -31 31 -49t55 -18q33 0 55 18t32 49l81 -15q-6 -65 -51.5 -109t-116.5 -44t-116 44zM316 938.5q-16 6.5 -36 19.5q-13 9 -22.5 13t-19.5 4
q-16 0 -28 -10t-25 -32l-73 34q19 46 51.5 75.5t72.5 29.5q23 0 39 -6.5t36 -19.5q14 -9 22.5 -13t18.5 -4q16 0 27.5 9.5t25.5 31.5l73 -34q-20 -48 -52 -76t-73 -28q-21 0 -37 6.5z" />
    <glyph glyph-name="uni01CD" unicode="&#x1cd;" horiz-adv-x="586" 
d="M400 155h-217l-39 -155h-153l213 692h179l212 -692h-156zM372 264l-81 319l-80 -319h161zM478 875l-140 -124h-88l-140 124l53 60l131 -83l132 83z" />
    <glyph glyph-name="Acircumflex" unicode="&#xc2;" horiz-adv-x="586" 
d="M400 155h-217l-39 -155h-153l213 692h179l212 -692h-156zM372 264l-81 319l-80 -319h161zM109 816l140 124h88l140 -124l-52 -60l-132 83l-131 -83z" />
    <glyph glyph-name="uni1EA4" unicode="&#x1ea4;" horiz-adv-x="586" 
d="M400 155h-217l-39 -155h-153l213 692h179l212 -692h-156zM372 264l-81 319l-80 -319h161zM109 780l140 124h88l140 -124l-52 -60l-132 83l-131 -83zM600 999l-152 -137l-55 49l128 164z" />
    <glyph glyph-name="uni1EAC" unicode="&#x1eac;" horiz-adv-x="586" 
d="M400 155h-217l-39 -155h-153l213 692h179l212 -692h-156zM372 264l-81 319l-80 -319h161zM109 816l140 124h88l140 -124l-52 -60l-132 83l-131 -83zM231 -206q-24 24 -24 60q0 35 24.5 58.5t62.5 23.5q37 0 61.5 -23.5t24.5 -58.5q0 -36 -24.5 -60t-61.5 -24
q-39 0 -63 24z" />
    <glyph glyph-name="uni1EA6" unicode="&#x1ea6;" horiz-adv-x="586" 
d="M400 155h-217l-39 -155h-153l213 692h179l212 -692h-156zM372 264l-81 319l-80 -319h161zM108 780l140 124h88l140 -124l-52 -60l-132 83l-131 -83zM193 911l-55 -49l-152 137l78 76z" />
    <glyph glyph-name="uni1EA8" unicode="&#x1ea8;" horiz-adv-x="586" 
d="M400 155h-217l-39 -155h-153l213 692h179l212 -692h-156zM372 264l-81 319l-80 -319h161zM108 780l140 124h88l140 -124l-52 -60l-132 83l-131 -83zM414 935q38 2 54.5 10.5t16.5 28.5q0 16 -10.5 24t-29.5 8q-27 0 -60 -13l-25 62q44 26 105 26q57 0 89 -27.5t32 -72.5
q0 -75 -84 -91v-44h-88v89z" />
    <glyph glyph-name="uni1EAA" unicode="&#x1eaa;" horiz-adv-x="586" 
d="M400 155h-217l-39 -155h-153l213 692h179l212 -692h-156zM372 264l-81 319l-80 -319h161zM107 780l140 124h88l140 -124l-52 -60l-132 83l-131 -83zM312 938.5q-16 6.5 -36 19.5q-13 9 -22.5 13t-19.5 4q-16 0 -28 -10t-25 -32l-73 34q19 46 51.5 75.5t72.5 29.5
q23 0 39 -6.5t36 -19.5q14 -9 22.5 -13t18.5 -4q16 0 27.5 9.5t25.5 31.5l73 -34q-20 -48 -52 -76t-73 -28q-21 0 -37 6.5z" />
    <glyph glyph-name="uni0200" unicode="&#x200;" horiz-adv-x="586" 
d="M400 155h-217l-39 -155h-153l213 692h179l212 -692h-156zM372 264l-81 319l-80 -319h161zM259 788l-76 -35l-118 176l99 50zM420 790l-77 -32l-109 173l100 48z" />
    <glyph glyph-name="Adieresis" unicode="&#xc4;" horiz-adv-x="586" 
d="M400 155h-217l-39 -155h-153l213 692h179l212 -692h-156zM372 264l-81 319l-80 -319h161zM232.5 896.5q21.5 -21.5 21.5 -52.5t-21.5 -52.5t-53.5 -21.5q-31 0 -53 21.5t-22 52.5t22 52.5t53 21.5q32 0 53.5 -21.5zM459 896.5q22 -21.5 22 -52.5t-22 -52.5t-54 -21.5
q-31 0 -52.5 21.5t-21.5 52.5t21.5 52.5t52.5 21.5q32 0 54 -21.5z" />
    </font>
</defs>
</svg>
